<?xml version="1.0" encoding="UTF-8"?>
<svg width="17px" height="21px" viewBox="0 0 17 21" version="1.1" xmlns="http://www.w3.org/2000/svg" xmlns:xlink="http://www.w3.org/1999/xlink">
    <!-- Generator: Sketch 44.1 (41455) - http://www.bohemiancoding.com/sketch -->
    <title>Combined Shape@2x</title>
    <desc>Created with Sketch.</desc>
    <defs></defs>
    <g id="Page-1" stroke="none" stroke-width="1" fill="none" fill-rule="evenodd">
        <g id="Final-Copy-34" transform="translate(-156.000000, -471.000000)" fill="#373D49">
            <g id="Group-24">
                <g id="Group-38">
                    <g id="Group-37" transform="translate(140.000000, 199.000000)">
                        <g id="Group-33" transform="translate(0.000000, 261.000000)">
                            <g id="Mac-App-Store-Copy-3">
                                <path d="M32.5308135,27.2942741 C32.2276661,27.9946064 31.8688386,28.6392587 31.4530936,29.2319428 C30.8863935,30.0399234 30.4223924,30.5991994 30.0648022,30.9097709 C29.5104755,31.4195534 28.9165541,31.6806314 28.2805632,31.6954794 C27.8239861,31.6954794 27.2733714,31.5655591 26.6324312,31.3020065 C25.9893875,31.0396912 25.3984356,30.9097709 24.8580909,30.9097709 C24.2913908,30.9097709 23.6836112,31.0396912 23.0335147,31.3020065 C22.3824283,31.5655591 21.8579214,31.7029035 21.4569007,31.7165142 C20.8470176,31.7424982 20.2391143,31.4739962 19.6323246,30.9097709 C19.2450383,30.571978 18.7606211,29.9929046 18.1803104,29.1725506 C17.5576827,28.2965165 17.0457967,27.2806634 16.644776,26.1225166 C16.2152965,24.8715695 16,23.6602172 16,22.4874699 C16,21.1440938 16.2902791,19.985452 16.8717035,19.0145142 C17.3286518,18.2346211 17.9365551,17.6194175 18.6973932,17.1677897 C19.4582313,16.716162 20.2803176,16.4860174 21.1656318,16.4712931 C21.6500489,16.4712931 22.2852974,16.6211345 23.074718,16.9156206 C23.8619114,17.2110965 24.3673633,17.3609379 24.5889702,17.3609379 C24.7546495,17.3609379 25.3161528,17.1857311 26.2680356,16.8364311 C27.1681978,16.5124964 27.9279223,16.3783691 28.5503025,16.4312034 C30.2367919,16.5673104 31.5038244,17.2321312 32.3464504,18.4298728 C30.8381374,19.3437694 30.0920236,20.6237939 30.1068716,22.2658629 C30.1204823,23.5448975 30.5844834,24.6092542 31.4964003,25.4543549 C31.9096707,25.8465906 32.3711971,26.149738 32.8846917,26.3650345 C32.7733314,26.6879793 32.6557845,26.9973134 32.5308135,27.2942741 L32.5308135,27.2942741 Z M28.6629001,12.0810134 C28.6629001,13.0835157 28.2966486,14.0195482 27.5666201,14.8859311 C26.6856366,15.9158899 25.6200426,16.5110487 24.4644942,16.4171349 C24.4497699,16.2968658 24.4412323,16.1702863 24.4412323,16.0372726 C24.4412323,15.0748724 24.8601943,14.0449136 25.6042047,13.2027825 C25.975653,12.7763964 26.4480681,12.4218624 27.0209548,12.1390445 C27.5926042,11.8604458 28.1333202,11.7063727 28.6418654,11.6799927 C28.6567134,11.8140086 28.6629001,11.9480368 28.6629001,12.081001 L28.6629001,12.0810134 Z" id="Combined-Shape"></path>
                            </g>
                        </g>
                    </g>
                </g>
            </g>
        </g>
    </g>
</svg>