<?xml version="1.0" encoding="UTF-8"?>
<svg width="46px" height="46px" viewBox="0 0 46 46" version="1.1" xmlns="http://www.w3.org/2000/svg" xmlns:xlink="http://www.w3.org/1999/xlink">
    <!-- Generator: Sketch 42 (36781) - http://www.bohemiancoding.com/sketch -->
    <title>feature-security</title>
    <desc>Created with Sketch.</desc>
    <defs></defs>
    <g id="Page-1" stroke="none" stroke-width="1" fill="none" fill-rule="evenodd">
        <g id="Final" transform="translate(-340.000000, -655.000000)">
            <g id="Features" transform="translate(140.000000, 442.000000)">
                <g id="Left-1" transform="translate(0.000000, 208.000000)">
                    <g id="feature-security" transform="translate(200.000000, 5.000000)">
                        <circle id="Base" fill="#0BB071" cx="23" cy="23" r="23"></circle>
                        <path d="M28.9988945,19.9966935 L29.4988025,19.9966935 C30.6483189,20.0445215 31.5425383,21.0132294 31.4984343,22.1628947 L31.4984343,30.8280492 C31.5425665,31.9777337 30.6483391,32.9464726 29.4988025,32.9943004 L16.5011956,32.9943004 C15.3516714,32.9464456 14.4574594,31.9777234 14.5015638,30.8280492 L14.5015638,22.1629447 C14.4574594,21.0132705 15.3516714,20.0445483 16.5011956,19.9966935 L17.0011036,19.9966935 L17.0011036,16.4949883 C17.0011036,14.4800592 17.4241257,13.3061254 18.3653024,12.3647487 C19.3064791,11.423372 20.4796131,11 22.4936923,11 L23.5062058,11 C25.520285,11 26.693569,11.4233221 27.6346957,12.3647487 C28.5758224,13.3061754 28.9988945,14.4800592 28.9988945,16.4949883 L28.9988945,19.9966935 Z M26.9992627,16.4958381 C26.9992627,15.2136242 26.7299623,14.4666117 26.1311225,13.867522 C25.5322828,13.2684323 24.7856703,12.9990819 23.5039063,12.9990819 L22.4960918,12.9990819 C21.2143778,12.9990819 20.4677153,13.2684323 19.8689255,13.867522 C19.2701358,14.4666117 19.0007354,15.2136242 19.0007354,16.4958381 L19.0007354,19.9966935 L26.9992627,19.9966935 L26.9992627,16.4958381 Z" id="Shape" fill="#FFFFFF"></path>
                    </g>
                </g>
            </g>
        </g>
    </g>
</svg>