<?xml version="1.0" encoding="UTF-8"?>
<svg width="90px" height="19px" viewBox="0 0 90 19" version="1.1" xmlns="http://www.w3.org/2000/svg" xmlns:xlink="http://www.w3.org/1999/xlink">
    <!-- Generator: Sketch 42 (36781) - http://www.bohemiancoding.com/sketch -->
    <title>Balance</title>
    <desc>Created with Sketch.</desc>
    <defs></defs>
    <g id="Page-1" stroke="none" stroke-width="1" fill="none" fill-rule="evenodd">
        <g id="Final-Copy-3" transform="translate(-22.000000, -25.000000)" fill="#F1F0FA">
            <g id="Group-7" transform="translate(22.000000, 25.000000)">
                <path d="M0,1.19999725 L6.86400113,1.19999725 C10.7760018,1.19999725 13.2360022,2.65199748 13.2360022,5.85599801 C13.2360022,7.54799829 12.204002,8.90399851 10.8000018,9.41999859 C12.336002,9.93599868 13.5960022,11.3759989 13.5960022,13.1879992 C13.5960022,16.4159997 11.3040019,18 7.27200119,18 L0,18 L0,1.19999725 Z M7.10400116,11.0159989 L3.34800055,11.0159989 L3.34800055,15.0479995 L7.10400116,15.0599995 C8.95200147,15.0599995 10.1160017,14.6279994 10.1160017,13.0199992 C10.1160017,11.4479989 8.95200147,11.0159989 7.10400116,11.0159989 Z M6.76800111,4.15199773 L3.34800055,4.15199773 L3.34800055,8.07599837 L6.78000111,8.07599837 C8.44800138,8.07599837 9.7440016,7.72799832 9.7440016,6.09599805 C9.7440016,4.51199779 8.42400138,4.15199773 6.76800111,4.15199773 Z M27.7920018,6.37199809 L27.7920018,18 L24.7320013,18 L24.7320013,16.7159998 C23.9760012,17.6519999 22.848001,18.3 21.2520008,18.3 C18.0480002,18.3 15.6239998,15.6719996 15.6239998,12.179999 C15.6239998,8.68799847 18.0480002,6.05999804 21.2520008,6.05999804 C22.848001,6.05999804 23.9640012,6.70799815 24.7320013,7.6559983 L24.7320013,6.37199809 L27.7920018,6.37199809 Z M21.8280009,8.97599852 C19.9920006,8.97599852 18.8280004,10.4039988 18.8280004,12.179999 C18.8280004,13.9559993 19.9920006,15.3839996 21.8280009,15.3839996 C23.6160011,15.3839996 24.8280013,14.0159993 24.8280013,12.179999 C24.8280013,10.3439987 23.6160011,8.97599852 21.8280009,8.97599852 Z M34.2120005,0.719997168 L31.08,0.719997168 L31.08,18 L34.2120005,18 L34.2120005,0.719997168 Z M48.9480018,6.37199809 L48.9480018,18 L45.8880013,18 L45.8880013,16.7159998 C45.1320012,17.6519999 44.004001,18.3 42.4080008,18.3 C39.2040002,18.3 36.7799998,15.6719996 36.7799998,12.179999 C36.7799998,8.68799847 39.2040002,6.05999804 42.4080008,6.05999804 C44.004001,6.05999804 45.1200012,6.70799815 45.8880013,7.6559983 L45.8880013,6.37199809 L48.9480018,6.37199809 Z M42.9840009,8.97599852 C41.1480006,8.97599852 39.9840004,10.4039988 39.9840004,12.179999 C39.9840004,13.9559993 41.1480006,15.3839996 42.9840009,15.3839996 C44.7720011,15.3839996 45.9840013,14.0159993 45.9840013,12.179999 C45.9840013,10.3439987 44.7720011,8.97599852 42.9840009,8.97599852 Z M58.704001,6.05999804 C57.3840008,6.05999804 56.1120006,6.50399812 55.2840005,7.73999832 L55.2840005,6.37199809 L52.236,6.37199809 L52.236,18 L55.3680005,18 L55.3680005,11.627999 C55.3680005,9.87599867 56.4840007,8.99999852 57.8280009,8.99999852 C59.2560011,8.99999852 60.0960012,9.92399868 60.0960012,11.603999 L60.0960012,18 L63.2280018,18 L63.2280018,10.5959988 C63.2280018,7.89599834 61.3440014,6.05999804 58.704001,6.05999804 Z M71.8920009,6.05999804 C68.1840002,6.05999804 65.6999998,8.66399847 65.6999998,12.179999 C65.6999998,15.7079996 68.1840002,18.3 71.8920009,18.3 C73.8360012,18.3 75.4680014,17.5199999 76.5600016,16.1159997 L74.3280013,14.2079994 C73.6680011,14.9279995 72.804001,15.3839996 71.7960008,15.3839996 C70.1760006,15.3839996 68.8920004,14.1239994 68.8920004,12.179999 C68.8920004,10.2479987 70.1880006,8.97599852 71.8080008,8.97599852 C72.828001,8.97599852 73.5840011,9.38399859 74.2920012,10.1399987 L76.5480016,8.2559984 C75.4800014,6.85199817 73.8360012,6.05999804 71.8920009,6.05999804 Z M83.9760008,6.05999804 C87.3240014,6.05999804 89.6160017,8.54399845 89.6280017,12.167999 C89.6280017,12.5279991 89.6040017,12.9599992 89.5680017,13.2239992 L81.3240004,13.2239992 C81.6600004,14.9039995 82.8360006,15.6359996 84.3120009,15.6359996 C85.320001,15.6359996 86.4120012,15.2279995 87.2520013,14.5199994 L89.0880016,16.5359998 C87.7680014,17.748 86.0880011,18.3 84.1320008,18.3 C80.5680002,18.3 78.0959998,15.8759997 78.0959998,12.2159991 C78.0959998,8.55599845 80.4960002,6.05999804 83.9760008,6.05999804 Z M83.9520008,8.75999849 C82.4760006,8.75999849 81.6120004,9.64799863 81.3360004,11.0879989 L86.4840012,11.0879989 C86.1960012,9.59999862 85.296001,8.75999849 83.9520008,8.75999849 Z" id="Balance"></path>
            </g>
        </g>
    </g>
</svg>