<?xml version="1.0" encoding="UTF-8"?>
<svg width="18px" height="18px" viewBox="0 0 18 18" version="1.1" xmlns="http://www.w3.org/2000/svg" xmlns:xlink="http://www.w3.org/1999/xlink">
    <!-- Generator: Sketch 42 (36781) - http://www.bohemiancoding.com/sketch -->
    <title>mobile-nav-blog-alt</title>
    <desc>Created with Sketch.</desc>
    <defs></defs>
    <g id="Page-1" stroke="none" stroke-width="1" fill="none" fill-rule="evenodd">
        <g id="Mobile" transform="translate(-206.000000, -27.000000)" stroke="#05121D">
            <g id="Group-3" transform="translate(190.000000, 10.000000)">
                <path d="M32.9887675,18.1614455 C32.6727599,18.8375765 31.4508235,21.2133472 29.456952,22.2384551 C30.3287709,22.2895573 31.1991337,22.1162944 31.984918,21.7352135 C32.0284698,21.7147543 32.0801559,21.7235871 32.1144418,21.7573482 C32.1487276,21.7911094 32.1583565,21.8426531 32.1385713,21.8865152 C31.0180827,24.2494933 29.013629,24.5476757 26.8384024,25.6725853 C27.7999934,25.7799437 28.7717536,25.7551947 29.726633,25.5990274 C29.7747198,25.5901327 29.8231629,25.6126756 29.8473259,25.6551915 C29.8714889,25.6977074 29.8660675,25.750863 29.8338188,25.7876254 C27.3458299,28.5235666 25.7110001,26.8828108 22.8726233,28.9301106 C21.1047729,30.1568527 19.5915357,31.7147157 18.4166775,33.5174636 C18.2580789,33.8075966 17.9537126,33.9879725 17.6230608,33.9877829 C17.44333,33.9881708 17.2722256,33.9107594 17.1538616,33.7755068 C17.0354975,33.6402542 16.981457,33.4603964 17.0056727,33.282304 C17.0056727,32.2902596 18.8169192,28.4427187 23.3327367,23.9489122 C28.3745592,18.9314522 32.0028842,18.1263597 32.8708114,18.0012548 C32.9120638,17.9950467 32.953363,18.0121854 32.9780986,18.0457778 C33.0028343,18.0793701 33.0069412,18.1238953 32.9887675,18.1614455 L32.9887675,18.1614455 Z" id="mobile-nav-blog-alt"></path>
            </g>
        </g>
    </g>
</svg>