<?xml version="1.0" encoding="UTF-8"?>
<svg width="16px" height="16px" viewBox="0 0 16 16" version="1.1" xmlns="http://www.w3.org/2000/svg" xmlns:xlink="http://www.w3.org/1999/xlink">
    <!-- Generator: Sketch 42 (36781) - http://www.bohemiancoding.com/sketch -->
    <title>mobile-nav-blog</title>
    <desc>Created with Sketch.</desc>
    <defs></defs>
    <g id="Page-1" stroke="none" stroke-width="1" fill="none" fill-rule="evenodd">
        <g id="Mobile" transform="translate(-207.000000, -28.000000)" fill="#333333">
            <g id="Group-3" transform="translate(190.000000, 10.000000)">
                <g id="Group-8" transform="translate(17.000000, 18.000000)">
                    <path d="M15.9887675,0.161445513 C15.6727599,0.83757649 14.4508235,3.21334723 12.456952,4.2384551 C13.3287709,4.28955729 14.1991337,4.11629438 14.984918,3.73521349 C15.0284698,3.71475427 15.0801559,3.72358708 15.1144418,3.75734822 C15.1487276,3.79110936 15.1583565,3.84265309 15.1385713,3.8865152 C14.0180827,6.24949325 12.013629,6.54767567 9.83840242,7.67258529 C10.7999934,7.77994365 11.7717536,7.7551947 12.726633,7.59902735 C12.7747198,7.59013273 12.8231629,7.61267558 12.8473259,7.65519148 C12.8714889,7.69770739 12.8660675,7.75086299 12.8338188,7.78762538 C10.3458299,10.5235666 8.71100011,8.88281082 5.87262334,10.9301106 C4.10477287,12.1568527 2.5915357,13.7147157 1.41667752,15.5174636 C1.25807892,15.8075966 0.953712598,15.9879725 0.623060789,15.9877829 C0.443329972,15.9881708 0.272225649,15.9107594 0.153861589,15.7755068 C0.0354975288,15.6402542 -0.0185429758,15.4603964 0.00567268839,15.282304 C0.00567268839,14.2902596 1.81691921,10.4427187 6.33273668,5.94891221 C11.3745592,0.931452215 15.0028842,0.126359696 15.8708114,0.00125477096 C15.9120638,-0.00495329284 15.953363,0.0121854159 15.9780986,0.0457777728 C16.0028343,0.0793701297 16.0069412,0.123895333 15.9887675,0.161445513 L15.9887675,0.161445513 Z" id="mobile-nav-blog"></path>
                </g>
            </g>
        </g>
    </g>
</svg>