<?xml version="1.0" encoding="UTF-8"?>
<svg width="8px" height="20px" viewBox="0 0 8 20" version="1.1" xmlns="http://www.w3.org/2000/svg" xmlns:xlink="http://www.w3.org/1999/xlink">
    <!-- Generator: Sketch 42 (36781) - http://www.bohemiancoding.com/sketch -->
    <title>mobile-nav-about-alt</title>
    <desc>Created with Sketch.</desc>
    <defs></defs>
    <g id="Page-1" stroke="none" stroke-width="1" fill="none" fill-rule="evenodd">
        <g id="Mobile" transform="translate(-211.000000, -78.000000)" fill-rule="nonzero" stroke="#05121D">
            <g id="Info" transform="translate(211.000000, 79.000000)">
                <g id="Layer_1">
                    <path d="M4.72522707,3.90505278 C3.56098113,3.98766977 2.54687027,3.11843189 2.45045414,1.95524742 C2.54687027,0.792062944 3.56098113,-0.077174938 4.72522707,0.00544204721 C5.88949686,-0.0772471646 6.90365161,0.792028333 7,1.95524742 C6.90361746,3.11842205 5.88952548,3.98766858 4.72529206,3.90505278 L4.72522707,3.90505278 Z M5.64813494,8.30088899 L3.83826061,15.1312522 C3.66234599,15.7946041 4.00885349,16.4849699 4.64586999,16.7402966 C4.89252394,16.8390843 5.05420896,17.07806 5.05415924,17.3437613 L5.05415924,17.5536904 C5.05415935,17.9124367 4.76349025,18.2033385 4.40474406,18.2036255 L2.46228296,18.2036255 C1.85574472,18.2065263 1.2822887,17.9274404 0.910331809,17.4483317 C0.538374923,16.969223 0.410145347,16.3444847 0.563302519,15.7575946 L2.37350182,8.92716647 C2.54943263,8.26384956 2.20298758,7.57349702 1.56602243,7.31812209 C1.31936848,7.21933434 1.15768346,6.98035863 1.15773318,6.71465732 L1.15773318,6.50479327 C1.15773309,6.14602161 1.44844178,5.85510929 1.80721335,5.85485815 L3.74980444,5.85485815 C4.35630451,5.85200602 4.92970167,6.1311211 5.30159529,6.61023028 C5.67348891,7.08933946 5.80165772,7.71404923 5.64845991,8.30088899 L5.64813494,8.30088899 Z" id="mobile-nav-about-alt"></path>
                </g>
            </g>
        </g>
    </g>
</svg>