<?xml version="1.0" encoding="UTF-8"?>
<svg width="83px" height="17px" viewBox="0 0 83 17" version="1.1" xmlns="http://www.w3.org/2000/svg" xmlns:xlink="http://www.w3.org/1999/xlink">
    <!-- Generator: Sketch 42 (36781) - http://www.bohemiancoding.com/sketch -->
    <title>logo</title>
    <desc>Created with Sketch.</desc>
    <defs></defs>
    <g id="Page-1" stroke="none" stroke-width="1" fill="none" fill-rule="evenodd">
        <g id="iPhone" transform="translate(-142.000000, -28.000000)" fill="#F1F0FA">
            <g id="Nav" transform="translate(142.000000, 26.000000)">
                <path d="M0,2.59999748 L6.29200103,2.59999748 C9.87800162,2.59999748 12.133002,3.93099769 12.133002,6.86799818 C12.133002,8.41899843 11.1870018,9.66199863 9.90000162,10.1349987 C11.3080019,10.6079988 12.463002,11.927999 12.463002,13.5889993 C12.463002,16.5479998 10.3620017,18 6.66600109,18 L0,18 L0,2.59999748 Z M6.51200107,11.597999 L3.0690005,11.597999 L3.0690005,15.2939996 L6.51200107,15.3049996 C8.20600135,15.3049996 9.27300152,14.9089995 9.27300152,13.4349993 C9.27300152,11.993999 8.20600135,11.597999 6.51200107,11.597999 Z M6.20400102,5.30599792 L3.0690005,5.30599792 L3.0690005,8.90299851 L6.21500102,8.90299851 C7.74400127,8.90299851 8.93200146,8.58399846 8.93200146,7.08799821 C8.93200146,5.63599797 7.72200127,5.30599792 6.20400102,5.30599792 Z M25.4760017,7.34099825 L25.4760017,18 L22.6710012,18 L22.6710012,16.8229998 C21.9780011,17.6809999 20.9440009,18.275 19.4810007,18.275 C16.5440002,18.275 14.3219999,15.8659997 14.3219999,12.6649991 C14.3219999,9.4639986 16.5440002,7.05499821 19.4810007,7.05499821 C20.9440009,7.05499821 21.9670011,7.6489983 22.6710012,8.51799845 L22.6710012,7.34099825 L25.4760017,7.34099825 Z M20.0090008,9.72799864 C18.3260005,9.72799864 17.2590003,11.0369989 17.2590003,12.6649991 C17.2590003,14.2929994 18.3260005,15.6019996 20.0090008,15.6019996 C21.6480011,15.6019996 22.7590012,14.3479994 22.7590012,12.6649991 C22.7590012,10.9819988 21.6480011,9.72799864 20.0090008,9.72799864 Z M31.3610004,2.1599974 L28.49,2.1599974 L28.49,18 L31.3610004,18 L31.3610004,2.1599974 Z M44.8690017,7.34099825 L44.8690017,18 L42.0640012,18 L42.0640012,16.8229998 C41.3710011,17.6809999 40.3370009,18.275 38.8740007,18.275 C35.9370002,18.275 33.7149999,15.8659997 33.7149999,12.6649991 C33.7149999,9.4639986 35.9370002,7.05499821 38.8740007,7.05499821 C40.3370009,7.05499821 41.3600011,7.6489983 42.0640012,8.51799845 L42.0640012,7.34099825 L44.8690017,7.34099825 Z M39.4020008,9.72799864 C37.7190005,9.72799864 36.6520003,11.0369989 36.6520003,12.6649991 C36.6520003,14.2929994 37.7190005,15.6019996 39.4020008,15.6019996 C41.0410011,15.6019996 42.1520012,14.3479994 42.1520012,12.6649991 C42.1520012,10.9819988 41.0410011,9.72799864 39.4020008,9.72799864 Z M53.8120009,7.05499821 C52.6020007,7.05499821 51.4360005,7.46199827 50.6770004,8.59499846 L50.6770004,7.34099825 L47.883,7.34099825 L47.883,18 L50.7540004,18 L50.7540004,12.158999 C50.7540004,10.5529988 51.7770006,9.74999865 53.0090008,9.74999865 C54.318001,9.74999865 55.0880011,10.5969988 55.0880011,12.136999 L55.0880011,18 L57.9590016,18 L57.9590016,11.2129989 C57.9590016,8.73799848 56.2320013,7.05499821 53.8120009,7.05499821 Z M65.9010008,7.05499821 C62.5020002,7.05499821 60.2249999,9.4419986 60.2249999,12.6649991 C60.2249999,15.8989997 62.5020002,18.275 65.9010008,18.275 C67.6830011,18.275 69.1790013,17.5599999 70.1800015,16.2729997 L68.1340011,14.5239994 C67.529001,15.1839995 66.7370009,15.6019996 65.8130008,15.6019996 C64.3280005,15.6019996 63.1510003,14.4469994 63.1510003,12.6649991 C63.1510003,10.8939988 64.3390005,9.72799864 65.8240008,9.72799864 C66.7590009,9.72799864 67.452001,10.1019987 68.1010011,10.7949988 L70.1690015,9.06799854 C69.1900013,7.78099832 67.6830011,7.05499821 65.9010008,7.05499821 Z M76.9780007,7.05499821 C80.0470012,7.05499821 82.1480016,9.33199858 82.1590016,12.6539991 C82.1590016,12.9839992 82.1370016,13.3799992 82.1040016,13.6219993 L74.5470003,13.6219993 C74.8550004,15.1619995 75.9330006,15.8329996 77.2860008,15.8329996 C78.2100009,15.8329996 79.2110011,15.4589996 79.9810012,14.8099995 L81.6640015,16.6579998 C80.4540013,17.769 78.9140011,18.275 77.1210008,18.275 C73.8540002,18.275 71.5879999,16.0529997 71.5879999,12.6979991 C71.5879999,9.34299858 73.7880002,7.05499821 76.9780007,7.05499821 Z M76.9560007,9.52999861 C75.6030005,9.52999861 74.8110004,10.3439987 74.5580003,11.663999 L79.2770011,11.663999 C79.0130011,10.2999987 78.1880009,9.52999861 76.9560007,9.52999861 Z" id="logo"></path>
            </g>
        </g>
    </g>
</svg>