<?xml version="1.0" encoding="UTF-8"?>
<svg width="32px" height="32px" viewBox="0 0 32 32" version="1.1" xmlns="http://www.w3.org/2000/svg" xmlns:xlink="http://www.w3.org/1999/xlink" xmlns:sketch="http://www.bohemiancoding.com/sketch/ns">
    <!-- Generator: Sketch 3.5.1 (25234) - http://www.bohemiancoding.com/sketch -->
    <title>bat</title>
    <desc>Created with Sketch.</desc>
    <defs></defs>
    <g id="Page-1" stroke="none" stroke-width="1" fill="none" fill-rule="evenodd" sketch:type="MSPage">
        <g id="bat" sketch:type="MSLayerGroup">
            <path d="M16,32 C24.836556,32 32,24.836556 32,16 C32,7.163444 24.836556,0 16,0 C7.163444,0 0,7.163444 0,16 C0,24.836556 7.163444,32 16,32 Z" id="Oval" fill="#58595C" sketch:type="MSShapeGroup"></path>
            <g id="shape" transform="translate(5.000000, 4.000000)" sketch:type="MSShapeGroup">
                <path d="M22,19.1282743 L11.05269,12.7784057 L0,19.1545714 L22,19.1282743 L22,19.1282743 Z" id="Shape" fill="#662D91"></path>
                <path d="M11.05621,0 L11.05269,12.7784057 L22,19.1282743 L11.05621,0 L11.05621,0 Z" id="Shape" fill="#9E1F63"></path>
                <path d="M0,19.1545714 L11.05269,12.7784057 L11.05621,0 L0,19.1545714 L0,19.1545714 Z" id="Shape" fill="#FF5000"></path>
                <path d="M11.03025,7.75175143 L6.5109,15.3985371 L15.56984,15.3985371 L11.03025,7.75175143 L11.03025,7.75175143 Z" id="Shape" stroke="#FF5000" stroke-width="0.25" fill="#FFFFFF"></path>
            </g>
        </g>
    </g>
</svg>