<?xml version="1.0" encoding="UTF-8"?>
<svg width="88px" height="88px" viewBox="0 0 88 88" version="1.1" xmlns="http://www.w3.org/2000/svg" xmlns:xlink="http://www.w3.org/1999/xlink">
    <!-- Generator: Sketch 48.2 (47327) - http://www.bohemiancoding.com/sketch -->
    <title>district0x</title>
    <desc>Created with Sketch.</desc>
    <defs>
        <circle id="path-1" cx="44" cy="44" r="44"></circle>
    </defs>
    <g id="Page-1" stroke="none" stroke-width="1" fill="none" fill-rule="evenodd">
        <g id="district0x">
            <mask id="mask-2" fill="white">
                <use xlink:href="#path-1"></use>
            </mask>
            <use id="Mask" fill="#2C398F" fill-rule="nonzero" xlink:href="#path-1"></use>
            <path d="M0.00153779139,65.8379286 C0.276365732,65.2766621 0.648833092,64.7687521 1.10153779,64.3379286 C6.00153779,59.3379286 11.4015378,69.5379286 22.9015378,75.4379286 C30.2015378,79.1379286 34.4015378,84.0379286 36.0015378,88.6379286 C19.1477101,84.716136 -0.198462209,65.4379286 0.00153779139,65.8379286 Z" id="Shape-Copy-4" fill="#04FFCC" fill-rule="nonzero" mask="url(#mask-2)"></path>
            <path d="M80.8094417,51.3556088 C77.2094417,51.1556088 79.2094417,45.4556088 77.6094417,38.9556088 C75.7094417,31.7556088 78.5094417,26.7556088 82.2094417,26.9556088 C83.9470376,27.2264219 85.5936341,27.9125038 87.0094417,28.9556088 C88.6239139,34.6625585 90.1922394,38.2548836 89.2767449,43.8687818 C89.0176185,45.4577691 88.9834732,46.6590761 87.0094417,48.8556088 C85.2822895,50.3617548 83.0982659,51.2424094 80.8094417,51.3556088 Z" id="Shape-Copy-2" fill="#04FFCC" fill-rule="nonzero" mask="url(#mask-2)" transform="translate(83.272499, 39.152713) rotate(-6.000000) translate(-83.272499, -39.152713) "></path>
            <path d="M40.99,6.67 C43.69,6.57 46.19,9.77 46.29,11.27 C46.39,12.77 43.99,12.17 41.39,13.07 C38.49,14.07 36.39,13.17 36.29,11.67 C36.19,10.17 38.19,6.77 40.99,6.67 Z" id="Path" fill="#7DF8FB" mask="url(#mask-2)"></path>
            <path d="M66.8311597,2.9 L66.8311597,63.2 C66.8340487,66.0525213 64.8565776,68.5248469 62.0731156,69.1487263 C59.2896536,69.7726057 56.4460966,68.3808554 55.2311597,65.8 C45.3588804,71.9186931 32.5085355,69.9924362 24.864225,61.2480197 C17.2199145,52.5036032 17.0283788,39.5110999 24.4116028,30.5451472 C31.7948268,21.5791946 44.582806,19.2749772 54.6311597,25.1 L54.6311597,1.7 C54.5976278,-0.122707217 55.6474899,-2.01339416 56.8311597,-3 C59.1930222,-1.39693909 63.4744349,0.958285523 66.8311597,2.9 Z" id="Mask" fill="#7DF8FB" fill-rule="nonzero" mask="url(#mask-2)"></path>
            <path d="M53.1074072,49.6637364 C53.8074072,45.3637364 53.4074072,38.6637364 49.6074072,36.5637364 C37.0074072,29.3637364 26.4074072,47.8637364 39.0074072,55.0637364 C44.8074072,58.3637364 51.8074072,57.0637364 53.1074072,49.6637364 Z" id="Shape" fill="#2C398F" mask="url(#mask-2)"></path>
        </g>
    </g>
</svg>