<?xml version="1.0" encoding="UTF-8"?>
<svg width="32px" height="32px" viewBox="0 0 32 32" version="1.1" xmlns="http://www.w3.org/2000/svg" xmlns:xlink="http://www.w3.org/1999/xlink" xmlns:sketch="http://www.bohemiancoding.com/sketch/ns">
    <!-- Generator: Sketch 3.5.1 (25234) - http://www.bohemiancoding.com/sketch -->
    <title>district0x</title>
    <desc>Created with Sketch.</desc>
    <defs>
        <circle id="path-1" cx="16" cy="16" r="16"></circle>
    </defs>
    <g id="Page-1" stroke="none" stroke-width="1" fill="none" fill-rule="evenodd" sketch:type="MSPage">
        <g id="district0x" sketch:type="MSLayerGroup">
            <g id="Group-2">
                <g>
                    <mask id="mask-2" sketch:name="Mask" fill="white">
                        <use xlink:href="#path-1"></use>
                    </mask>
                    <use id="Mask" fill="#2C398F" sketch:type="MSShapeGroup" xlink:href="#path-1"></use>
                    <path d="M32.7480848,12.8567506 C32.517759,11.7346154 32.1062643,10.6574677 31.5297514,9.66758381 C30.3472513,7.69675039 28.0910157,4.49486982 24.8660156,2.23736972 C24.8660156,2.23736972 22.1055843,0.995916755 20.9589176,0.458416731 C16.7664174,-1.47658335 12.0722505,-1.87075004 8.05891702,1.67675012 C1.32225006,7.66091705 -2.04608342,16.0100841 1.32225006,24.3234178 C1.39391673,24.5025845 3.25725014,29.590918 14.4372506,32.9950848 C19.3464175,33.1384182 22.2130843,32.8517515 25.3664178,31.0242514 C29.4872513,28.6592513 31.8880847,24.3592511 32.7480848,19.9875843 C32.9989181,18.6617509 33.0347515,14.182584 32.7480848,12.8567506 L33.5739583,8.59127604 L31.5720052,2.44752604 L24.3432292,-0.559505208" id="Shape" fill="#04FFCC" sketch:type="MSShapeGroup" mask="url(#mask-2)"></path>
                    <path d="M19.7047509,1.10916578 L19.7047509,9.08800353 L10.4597505,8.51553086 L6.66141696,13.3099894 L6.19558361,22.3622134 L9.34891708,25.7254903 L14.0789173,28.08694 L20.2780842,28.7667513 L27.0147512,27.0493333 L27.0147512,10.4118466 L25.7247511,3.50639506 C0.0358333349,-0.955313757 22.1055843,0.679811287 19.7405842,0" id="Shape" fill="#7DF8FB" sketch:type="MSShapeGroup" mask="url(#mask-2)"></path>
                    <g id="Group" mask="url(#mask-2)" fill="#2C398F" sketch:type="MSShapeGroup">
                        <g transform="translate(0.000000, -1.000000)" id="Shape">
                            <path d="M29.3797513,17.4400841 C28.6989179,14.860084 29.7022513,13.0684172 31.0280847,13.1400839 C31.6507233,13.2371253 32.2407537,13.4829713 32.7480848,13.8567506 C32.517759,12.7346154 32.1062643,11.6574677 31.5297514,10.6675838 C30.3472513,8.69675039 27.7672509,5.40008366 24.5422508,3.14258356 C24.5422508,3.14258356 24.0455734,2.78172915 24.0455734,2.81367178 C24.0455734,2.82847213 24.5422508,3.26801214 24.5422508,3.28281249 C24.5422509,14.2314485 24.5422511,25.1800845 24.5422511,25.1800845 C24.5432863,26.202238 23.8346925,27.0881547 22.8372852,27.3117115 C21.839878,27.5352683 20.8209366,27.0365577 20.3855842,26.1117512 C16.8480173,28.304283 12.2433102,27.6140409 9.50409882,24.4806248 C6.76488743,21.3472088 6.69625381,16.6915615 9.34190919,13.4787617 C11.9875646,10.2659618 16.569924,9.4402839 20.1705842,11.5275838 L20.1705842,3.14258347 C20.1585686,2.48944669 20.4496663,1.86755622 20.9589176,1.45841673 C16.7664174,-0.476583354 12.0722505,-0.870750039 8.05891702,2.67675012 C1.32225006,8.66091705 -2.04608342,17.0100841 1.32225006,25.3234178 C1.39391673,25.5025845 1.4655834,25.6817511 1.53725007,25.8250845 C1.63573008,25.623964 1.76919756,25.4419629 1.93141675,25.2875845 C3.68725016,23.4959177 5.62225025,27.1509179 9.74308377,29.2650846 C12.3589172,30.590918 13.8639173,32.3467514 14.4372506,33.9950848 C18.2714175,34.4609182 22.2130843,33.8517515 25.3664178,32.0242514 C29.4872513,29.6592513 31.8880847,25.3592511 32.7480848,20.9875843 C32.1291885,21.5272866 31.3465801,21.8428545 30.526418,21.8834176 C29.236418,21.811751 29.9530847,19.7692509 29.3797513,17.4400841 Z M16.4797507,4.89841688 C17.4472508,4.86258355 18.3430841,6.00925027 18.3789175,6.54675029 C18.4147508,7.08425031 17.5547508,6.8692503 16.6230841,7.19175032 C15.5839174,7.55008367 14.8314173,7.22758365 14.795584,6.69008363 C14.7597507,6.15258361 15.4764174,4.93425022 16.4797507,4.89841688 L16.4797507,4.89841688 Z M14.365584,22.026751 C16.4439174,23.209251 18.9522508,22.7434177 19.4180842,20.0917509 C19.6689175,18.5509175 19.5255842,16.150084 18.1639175,15.397584 C13.6489173,12.8175839 9.85058377,19.4467509 14.365584,22.026751 Z"></path>
                        </g>
                    </g>
                </g>
            </g>
        </g>
    </g>
</svg>