<?xml version="1.0" encoding="UTF-8"?>
<svg width="32px" height="32px" viewBox="0 0 32 32" version="1.1" xmlns="http://www.w3.org/2000/svg" xmlns:xlink="http://www.w3.org/1999/xlink">
    <!-- Generator: Sketch 48.2 (47327) - http://www.bohemiancoding.com/sketch -->
    <title>gnosis</title>
    <desc>Created with Sketch.</desc>
    <defs>
        <circle id="path-1" cx="16" cy="16" r="16"></circle>
    </defs>
    <g id="Page-1" stroke="none" stroke-width="1" fill="none" fill-rule="evenodd">
        <g id="gnosis">
            <mask id="mask-2" fill="white">
                <use xlink:href="#path-1"></use>
            </mask>
            <use id="Mask" fill="#00A6C4" fill-rule="nonzero" xlink:href="#path-1"></use>
            <ellipse id="path-1" fill="#FFFFFF" fill-rule="nonzero" mask="url(#mask-2)" cx="16.2" cy="15" rx="14" ry="13"></ellipse>
            <path d="M29.4234726,8.60869565 L28.2126111,9.90789565 C29.1750486,11.5318957 29.477764,13.5689565 28.8180418,15.5159913 C27.7174082,18.8222435 24.3069245,20.564513 21.1975111,19.3835826 C20.7565995,19.2070609 20.3453015,19.0005304 19.9866495,18.7339826 L16.1072861,22.8963652 L12.7231255,19.2353043 C11.1552572,20.3562174 9.14647742,20.6810174 7.2479255,19.9731652 C4.05625242,18.7339826 2.40612454,14.9846609 3.56104954,11.5901478 C3.72556877,11.0588174 3.97399281,10.5857391 4.24873992,10.1444348 L2.79109954,8.58045217 L2.51635242,9.08177391 C1.0027755,11.7384261 0.17853415,14.8081391 0.17853415,17.966113 C0.15056588,27.3817826 7.30386204,35.0869565 16.0793178,35.0869565 L16.1072861,35.0869565 C24.8827418,35.0869565 32.0097149,27.4418 32.036038,18.0243652 C32.036038,14.8946348 31.2381197,11.8249217 29.7245428,9.14002609 L29.4234726,8.60869565 Z M6.03870915,12.0632261 C5.62576588,12.6528087 5.37898704,13.3924348 5.37898704,14.1885478 C5.37898704,16.1073391 6.83662742,17.6713217 8.62495146,17.6713217 C9.36857838,17.6713217 10.0562688,17.4047739 10.605763,16.9334609 L6.03870915,12.0632261 Z M21.9674611,16.6369043 C22.4906322,17.0199565 23.096063,17.226487 23.7837534,17.226487 C25.5720774,17.226487 27.0297178,15.6625043 27.0297178,13.743713 C27.0297178,13.0358609 26.8372303,12.3562522 26.4802236,11.794913 L21.9674611,16.6369043 Z M16.1615774,20.2979652 L3.01155531,6.12856522 L3.53472646,5.53898261 C6.78069088,1.84967826 11.2095486,-0.2173913 15.9690899,-0.2173913 L15.9970582,-0.2173913 C20.8108909,-0.2173913 25.4338813,1.9961913 28.6518774,5.83377391 L29.1470803,6.42335652 L16.1615774,20.2979652 Z M5.15853127,6.12856522 L16.1632226,17.966113 L27.0297178,6.36510435 C24.1127918,3.23713913 20.1511688,1.43485217 16.0250265,1.43485217 L15.9970582,1.43485217 C11.897239,1.43485217 8.07381204,3.08886087 5.15853127,6.12856522 Z" id="Shape" fill="#00A6C4" fill-rule="nonzero" mask="url(#mask-2)"></path>
        </g>
    </g>
</svg>