<?xml version="1.0" encoding="UTF-8"?>
<svg width="32px" height="32px" viewBox="0 0 32 32" version="1.1" xmlns="http://www.w3.org/2000/svg" xmlns:xlink="http://www.w3.org/1999/xlink" xmlns:sketch="http://www.bohemiancoding.com/sketch/ns">
    <!-- Generator: Sketch 3.5.1 (25234) - http://www.bohemiancoding.com/sketch -->
    <title>Group 2</title>
    <desc>Created with Sketch.</desc>
    <defs>
        <ellipse id="path-1" cx="14.75" cy="14" rx="14.75" ry="14"></ellipse>
    </defs>
    <g id="Page-1" stroke="none" stroke-width="1" fill="none" fill-rule="evenodd" sketch:type="MSPage">
        <g id="Group-2" sketch:type="MSLayerGroup">
            <circle id="Oval-1" fill="#00A6C4" sketch:type="MSShapeGroup" cx="16" cy="16" r="16"></circle>
            <g id="Shape" transform="translate(1.299988, 1.000000)">
                <mask id="mask-2" sketch:name="Mask" fill="white">
                    <use xlink:href="#path-1"></use>
                </mask>
                <use id="Mask" fill="#FFFFFF" sketch:type="MSShapeGroup" xlink:href="#path-1"></use>
                <path d="M28.1234846,7.60869565 L26.9126231,8.90789565 C27.8750606,10.5318957 28.177776,12.5689565 27.5180538,14.5159913 C26.4174202,17.8222435 23.0069365,19.564513 19.8975231,18.3835826 C19.4566115,18.2070609 19.0453135,18.0005304 18.6866615,17.7339826 L14.8072981,21.8963652 L11.4231375,18.2353043 C9.85526923,19.3562174 7.84648942,19.6810174 5.9479375,18.9731652 C2.75626442,17.7339826 1.10613654,13.9846609 2.26106154,10.5901478 C2.42558077,10.0588174 2.67400481,9.58573913 2.94875192,9.14443478 L1.49111154,7.58045217 L1.21636442,8.08177391 C-0.2972125,10.7384261 -1.12145385,13.8081391 -1.12145385,16.966113 C-1.14942212,26.3817826 6.00387404,34.0869565 14.7793298,34.0869565 L14.8072981,34.0869565 C23.5827538,34.0869565 30.7097269,26.4418 30.73605,17.0243652 C30.73605,13.8946348 29.9381317,10.8249217 28.4245548,8.14002609 L28.1234846,7.60869565 L28.1234846,7.60869565 L28.1234846,7.60869565 L28.1234846,7.60869565 Z M4.73872115,11.0632261 C4.32577788,11.6528087 4.07899904,12.3924348 4.07899904,13.1885478 C4.07899904,15.1073391 5.53663942,16.6713217 7.32496346,16.6713217 C8.06859038,16.6713217 8.75628077,16.4047739 9.305775,15.9334609 L4.73872115,11.0632261 L4.73872115,11.0632261 L4.73872115,11.0632261 L4.73872115,11.0632261 Z M20.6674731,15.6369043 C21.1906442,16.0199565 21.796075,16.226487 22.4837654,16.226487 C24.2720894,16.226487 25.7297298,14.6625043 25.7297298,12.743713 C25.7297298,12.0358609 25.5372423,11.3562522 25.1802356,10.794913 L20.6674731,15.6369043 L20.6674731,15.6369043 L20.6674731,15.6369043 L20.6674731,15.6369043 Z M14.8615894,19.2979652 L1.71156731,5.12856522 L2.23473846,4.53898261 C5.48070288,0.849678261 9.90956058,-1.2173913 14.6691019,-1.2173913 L14.6970702,-1.2173913 C19.5109029,-1.2173913 24.1338933,0.996191304 27.3518894,4.83377391 L27.8470923,5.42335652 L14.8615894,19.2979652 L14.8615894,19.2979652 L14.8615894,19.2979652 L14.8615894,19.2979652 Z M3.85854327,5.12856522 L14.8632346,16.966113 L25.7297298,5.36510435 C22.8128038,2.23713913 18.8511808,0.434852174 14.7250385,0.434852174 L14.6970702,0.434852174 C10.597251,0.434852174 6.77382404,2.08886087 3.85854327,5.12856522 L3.85854327,5.12856522 L3.85854327,5.12856522 L3.85854327,5.12856522 Z" fill="#00A6C4" sketch:type="MSShapeGroup" mask="url(#mask-2)"></path>
            </g>
        </g>
    </g>
</svg>