<?xml version="1.0" encoding="UTF-8"?>
<svg width="32px" height="32px" viewBox="0 0 32 32" version="1.1" xmlns="http://www.w3.org/2000/svg" xmlns:xlink="http://www.w3.org/1999/xlink" xmlns:sketch="http://www.bohemiancoding.com/sketch/ns">
    <!-- Generator: Sketch 3.5.1 (25234) - http://www.bohemiancoding.com/sketch -->
    <title>Group</title>
    <desc>Created with Sketch.</desc>
    <defs></defs>
    <g id="Page-1" stroke="none" stroke-width="1" fill="none" fill-rule="evenodd" sketch:type="MSPage">
        <g id="Group" sketch:type="MSLayerGroup">
            <circle id="Oval" fill="#004F7B" sketch:type="MSShapeGroup" cx="16" cy="16" r="16"></circle>
            <path d="M20.499,5.288 L21.702,6.492 L19.425,8.832 C19.905,9.562 20.163,10.423 20.163,11.311 C20.1711729,12.4793856 19.7192877,13.6040697 18.905,14.442 C18.3104946,15.0700075 17.5359623,15.4983236 16.688,15.668 L16.688,17.707 C17.521,17.875 18.289,18.299 18.901,18.927 C19.717694,19.7657021 20.1710967,20.8923827 20.163,22.063 C20.1708332,23.2332718 19.7174499,24.3595449 18.901,25.198 C18.0969707,26.0309422 16.9886938,26.5009671 15.831,26.5 C14.6727892,26.5035233 13.5635511,26.0330908 12.761,25.198 C11.9470232,24.3580135 11.4943689,23.2326598 11.5,22.063 C11.5,20.883 11.948,19.764 12.758,18.931 C13.3526412,18.3033598 14.1271594,17.875401 14.975,17.706 L14.975,15.666 C14.1312264,15.4916874 13.3598352,15.0664288 12.762,14.446 C11.9474149,13.6059257 11.4943748,12.4801462 11.5,11.31 C11.5,10.13 11.948,9.011 12.762,8.175 C13.5658602,7.34168987 14.6741587,6.87129477 15.832,6.872 C16.692,6.872 17.519,7.134 18.227,7.621 L20.5,5.288 L20.499,5.288 Z M15.832,19.345 C15.130222,19.3393777 14.4576387,19.6255063 13.975,20.135 C13.4745521,20.6516377 13.1963511,21.34373 13.2,22.063 C13.2,22.788 13.475,23.465 13.975,23.99 C14.47,24.498 15.131,24.78 15.832,24.78 C16.5334312,24.7853443 17.2055991,24.4992384 17.688,23.99 C18.1882053,23.4736101 18.4663871,22.7819244 18.463,22.063 C18.463,21.338 18.188,20.661 17.685,20.132 C17.2030043,19.6243298 16.5320121,19.3393482 15.832,19.345 L15.832,19.345 Z M17.685,13.255 C18.1869993,12.7379215 18.4663111,12.0446681 18.463,11.324 C18.4722131,10.6036793 18.1931913,9.90954507 17.688,9.396 C17.202309,8.89151525 16.532286,8.60632225 15.832,8.606 C15.130222,8.60037768 14.4576387,8.88650629 13.975,9.396 C13.4745521,9.91263771 13.1963511,10.60473 13.2,11.324 C13.2,12.049 13.475,12.726 13.975,13.251 C14.47,13.759 15.131,14.041 15.832,14.041 C16.543,14.041 17.199,13.765 17.685,13.255 L17.685,13.255 Z" id="Shape" fill="#FFFFFF" sketch:type="MSShapeGroup"></path>
        </g>
    </g>
</svg>