<svg fill="#fff" xmlns="http://www.w3.org/2000/svg" width="120" height="22" viewBox="0 0 120 22">
  <path fill="#ffffff" fill-rule="evenodd" d="M220.4,19.1177263 L220.4,1.83733521 L227.121476,1.83733521 C230.148524,1.83733521 233.413922,2.79073609 233.413922,6.34215441 C233.413922,7.96293592 232.341346,9.41687228 231.45945,9.98891281 C232.794212,10.6324584 234.033633,11.6335293 234.033633,14.0170316 C234.033633,17.735295 230.958915,19.1177263 227.407497,19.1177263 L220.4,19.1177263 Z M223.808408,11.5381893 L223.808408,16.4482038 L227.574342,16.4482038 C229.576484,16.4482038 230.553719,15.6139781 230.553719,14.0170316 C230.553719,12.3962501 229.552649,11.5381893 227.431332,11.5381893 L223.808408,11.5381893 Z M223.808408,4.5068577 L223.808408,8.96400685 L227.335991,8.96400685 C228.956773,8.96400685 229.910174,8.20128614 229.910174,6.67584472 C229.910174,5.31724845 228.932938,4.5068577 227.335991,4.5068577 L223.808408,4.5068577 Z M244.163517,14.2077117 L244.163517,13.2543109 C240.469089,13.6356712 239.015152,14.0647016 239.015152,15.4948029 C239.015152,16.4243688 239.730203,17.1870895 241.231809,17.1870895 C243.305456,17.1870895 244.163517,16.0906785 244.163517,14.2077117 Z M244.449537,17.5207798 C243.519972,18.8555411 242.18521,19.4275816 240.254574,19.4275816 C237.799566,19.4275816 235.630579,17.9974803 235.630579,15.6616481 C235.630579,12.6346003 239.015152,11.7288694 244.068177,11.1568289 L244.068177,10.9423137 C244.068177,8.96400685 242.995601,8.27279121 241.66084,8.27279121 C240.397584,8.27279121 239.348843,8.91633681 239.277338,10.3464381 L236.20262,10.3464381 C236.464805,7.81992579 238.514617,5.96079405 241.827685,5.96079405 C244.854733,5.96079405 247.35741,7.2955553 247.35741,11.6096943 C247.35741,11.9910547 247.30974,13.7310113 247.30974,14.8750924 C247.30974,16.9010693 247.428915,18.0451503 247.6911,19.1177263 L244.664053,19.1177263 C244.568713,18.7125309 244.521042,18.1643254 244.449537,17.5207798 Z M253.483014,1.83733521 L253.483014,19.1177263 L250.193781,19.1177263 L250.193781,1.83733521 L253.483014,1.83733521 Z M264.351781,14.2077117 L264.351781,13.2543109 C260.657353,13.6356712 259.203416,14.0647016 259.203416,15.4948029 C259.203416,16.4243688 259.918467,17.1870895 261.420073,17.1870895 C263.49372,17.1870895 264.351781,16.0906785 264.351781,14.2077117 Z M264.637801,17.5207798 C263.708235,18.8555411 262.373474,19.4275816 260.442837,19.4275816 C257.98783,19.4275816 255.818843,17.9974803 255.818843,15.6616481 C255.818843,12.6346003 259.203416,11.7288694 264.256441,11.1568289 L264.256441,10.9423137 C264.256441,8.96400685 263.183865,8.27279121 261.849104,8.27279121 C260.585847,8.27279121 259.537107,8.91633681 259.465601,10.3464381 L256.390884,10.3464381 C256.653069,7.81992579 258.702881,5.96079405 262.015949,5.96079405 C265.042997,5.96079405 267.545674,7.2955553 267.545674,11.6096943 C267.545674,11.9910547 267.498004,13.7310113 267.498004,14.8750924 C267.498004,16.9010693 267.617179,18.0451503 267.879364,19.1177263 L264.852316,19.1177263 C264.756976,18.7125309 264.709306,18.1643254 264.637801,17.5207798 Z M273.575935,6.29448436 L273.575935,7.98677094 C274.31482,6.67584472 275.697252,6.0084641 277.294198,6.0084641 C280.368916,6.0084641 281.727512,7.86759583 281.727512,11.0376538 L281.727512,19.1177263 L278.438279,19.1177263 L278.438279,11.7527045 C278.438279,10.1080879 278.080754,8.65415156 276.221622,8.65415156 C274.052635,8.65415156 273.575935,10.4179432 273.575935,12.4439201 L273.575935,19.1177263 L270.286702,19.1177263 L270.286702,6.29448436 L273.575935,6.29448436 Z M290.093605,6.0084641 C292.786963,6.0084641 295.456485,7.5100705 295.90935,10.6801285 L292.763127,10.6801285 C292.500942,9.4407073 291.356861,8.55881147 290.093605,8.55881147 C288.377483,8.55881147 287.018887,10.0127478 287.018887,12.6822703 C287.018887,15.3756278 288.305978,16.8772342 290.11744,16.8772342 C291.261521,16.8772342 292.429437,16.2813587 292.882303,14.7559173 L296.028526,14.7559173 C295.265805,18.2596655 292.620117,19.4275816 289.950595,19.4275816 C286.113156,19.4275816 283.658149,16.615049 283.658149,12.7299404 C283.658149,8.82099672 286.256166,6.0084641 290.093605,6.0084641 Z M309.995849,13.6118362 L300.533345,13.6118362 C300.724025,15.8046582 302.201796,16.8772342 303.774908,16.8772342 C304.799814,16.8772342 305.800885,16.5197089 306.468265,15.3994629 L309.852838,15.3994629 C309.161623,17.3062646 307.302491,19.4275816 303.798743,19.4275816 C299.675284,19.4275816 297.267947,16.3528637 297.267947,12.6584353 C297.267947,8.84483174 299.913634,6.0084641 303.703403,6.0084641 C307.660016,6.0084641 310.115024,9.08318196 309.995849,13.6118362 Z M303.679568,8.41580134 C302.440147,8.41580134 300.8432,9.17852205 300.581015,11.3475091 L306.658945,11.3475091 C306.58744,9.17852205 305.061999,8.41580134 303.679568,8.41580134 Z M201.400153,0.426301006 L203,1.35156013 L193.717559,6.72004015 C193.389949,6.90952141 193.188131,7.25967564 193.188131,7.63863815 L193.188131,11 L190,9.1561853 L190,7.01953594 C190,5.88269083 190.605454,4.83222813 191.588284,4.26378436 L198.223585,0.426301006 C199.206457,-0.142100335 200.417323,-0.142100335 201.400153,0.426301006 Z M200.928875,18.4471084 L204,16.7418117 L204,20.4835374 L202.047894,21.567423 C201.009221,22.1441923 199.729511,22.1441923 198.690837,21.567423 L191.678528,17.6737347 C190.639855,17.0970083 190,16.0311172 190,14.8776215 L190,13 L199.809856,18.4471084 C200.156081,18.6393218 200.582695,18.6393218 200.928875,18.4471084 Z M206.369364,3 L208.32145,4.05560819 C209.360137,4.61726604 210,5.65530802 210,6.77866564 L210,14.3626188 C210,15.4859764 209.360182,16.5240183 208.321495,17.0856762 L206.630725,18 L206.630725,7.39038092 C206.630725,7.01595633 206.417438,6.66995632 206.071209,6.48272306 L203,4.82198167 L206.369364,3 Z" transform="translate(-190)"/>
</svg>
