<?xml version="1.0" encoding="UTF-8"?>
<svg width="18px" height="18px" viewBox="0 0 18 18" version="1.1" xmlns="http://www.w3.org/2000/svg" xmlns:xlink="http://www.w3.org/1999/xlink">
    <!-- Generator: Sketch 53 (72520) - https://sketchapp.com -->
    <title>blog</title>
    <desc>Created with Sketch.</desc>
    <g id="Page-1" stroke="none" stroke-width="1" fill="none" fill-rule="evenodd">
        <g id="homepage-rejiggle-copy-29" transform="translate(-647.000000, -1802.000000)" fill="#272727" fill-rule="nonzero">
            <g id="blog" transform="translate(647.000000, 1802.000000)">
                <path d="M17.9873634,0.181764976 C17.6318549,0.942993507 16.2571764,3.61777773 14.014071,4.77190524 C14.9948673,4.82943913 15.9740254,4.63436942 16.8580328,4.20532585 C16.9070285,4.18229165 16.9651754,4.19223615 17.003747,4.23024645 C17.0423186,4.26825676 17.053151,4.32628776 17.0308927,4.37567033 C15.770343,7.03605179 13.5153327,7.37176331 11.0682027,8.63825358 C12.1499926,8.75912402 13.2432228,8.73126018 14.3174622,8.55543767 C14.3715598,8.54542357 14.4260582,8.57080366 14.4532416,8.6186706 C14.4804251,8.66653754 14.474326,8.72638327 14.4380461,8.76777257 C11.6390586,11.8480582 9.79987512,10.0007976 6.60670126,12.3057696 C4.61786948,13.686909 2.91547766,15.440844 1.59376221,17.4704849 C1.41533879,17.7971339 1.07292667,18.0002119 0.700943387,17.9999984 C0.498746218,18.0004351 0.306253855,17.9132808 0.173094288,17.7610054 C0.0399347199,17.6087299 -0.0208608477,17.4062353 0.00638177443,17.2057282 C0.00638177443,16.0888255 2.04403412,11.7570348 7.12432876,6.69763975 C12.7963791,1.04868439 16.8782447,0.142263273 17.8546628,0.00141269589 C17.9010717,-0.00557671215 17.9475334,0.0137190672 17.975361,0.0515393437 C18.0031886,0.0893596202 18.0078088,0.139488747 17.9873634,0.181764976 Z"></path>
            </g>
        </g>
    </g>
</svg>