<?xml version="1.0" encoding="UTF-8"?>
<svg width="18px" height="18px" viewBox="0 0 18 18" version="1.1" xmlns="http://www.w3.org/2000/svg" xmlns:xlink="http://www.w3.org/1999/xlink">
    <!-- Generator: Sketch 53 (72520) - https://sketchapp.com -->
    <title>calendar</title>
    <desc>Created with Sketch.</desc>
    <g id="Page-1" stroke="none" stroke-width="1" fill="none" fill-rule="evenodd">
        <g id="homepage-rejiggle-copy-29" transform="translate(-353.000000, -1803.000000)" fill="#272727" fill-rule="nonzero">
            <g id="calendar" transform="translate(353.000000, 1803.000000)">
                <path d="M17.604,15.9739301 C17.604,16.8728616 16.8876556,17.6015896 16.004,17.6015896 L1.604,17.6015896 C0.7203444,17.6015896 0.004,16.8728616 0.004,15.9739301 L0.004,2.13882367 C0.004,1.23989211 0.7203444,0.511164096 1.604,0.511164096 L16.004,0.511123404 C16.8876556,0.511123404 17.604,1.23985142 17.604,2.13878298 L17.604,15.9739301 Z M2.004,7.02180239 C1.7830861,7.02180239 1.604,7.2039844 1.604,7.42871729 L1.604,15.5670152 C1.604,15.791748 1.7830861,15.9739301 2.004,15.9739301 L15.604,15.9739301 C15.8249139,15.9739301 16.004,15.791748 16.004,15.5670152 L16.004,7.42871729 C16.0040106,7.3207897 15.9618726,7.21727885 15.8868569,7.1409587 C15.8118412,7.06463855 15.7100935,7.0217617 15.604,7.0217617 L2.004,7.02180239 Z" id="Shape"></path>
            </g>
        </g>
    </g>
</svg>