<?xml version="1.0" encoding="UTF-8"?>
<svg width="22px" height="16px" viewBox="0 0 22 16" version="1.1" xmlns="http://www.w3.org/2000/svg" xmlns:xlink="http://www.w3.org/1999/xlink">
    <!-- Generator: Sketch 53 (72520) - https://sketchapp.com -->
    <title>discord</title>
    <desc>Created with Sketch.</desc>
    <g id="Page-1" stroke="none" stroke-width="1" fill="none" fill-rule="evenodd">
        <g id="homepage-rejiggle-copy-29" transform="translate(-210.000000, -1803.000000)" fill="#272727" fill-rule="nonzero">
            <g id="discord" transform="translate(210.000000, 1803.000000)">
                <path d="M16.208547,15.8477802 C16.208547,15.8477802 15.5316239,15.0287325 14.9675214,14.3239706 C17.4307692,13.6192087 18.3709402,12.0763516 18.3709402,12.0763516 C17.6,12.5906373 16.8666667,12.9525421 16.208547,13.2001611 C15.2683761,13.6001611 14.365812,13.8477802 13.4820513,14.0192087 C11.6769231,14.3620659 10.0222222,14.2668278 8.61196581,14.0001611 C7.54017094,13.7906373 6.61880342,13.504923 5.84786325,13.1811135 C5.41538462,13.0096849 4.94529915,12.8001611 4.47521368,12.5334944 C4.41880342,12.4953992 4.36239316,12.4763516 4.30598291,12.4382563 C4.26837607,12.4192087 4.24957265,12.4001611 4.23076923,12.4001611 C3.89230769,12.2096849 3.7042735,12.0763516 3.7042735,12.0763516 C3.7042735,12.0763516 4.60683761,13.5811135 6.99487179,14.304923 C6.43076923,15.0287325 5.73504274,15.8668278 5.73504274,15.8668278 C1.57948718,15.7334944 4.12114787e-13,12.9906373 4.12114787e-13,12.9906373 C4.12114787e-13,6.91444682 2.70769231,1.98111349 2.70769231,1.98111349 C5.41538462,-0.0569817527 7.97264957,0.000161104461 7.97264957,0.000161104461 L8.16068376,0.228732533 C4.77606838,1.2001611 3.23418803,2.70492301 3.23418803,2.70492301 C3.23418803,2.70492301 3.64786325,2.47635158 4.34358974,2.17158968 C6.35555556,1.27635158 7.95384615,1.04778015 8.61196581,0.971589676 C8.72478632,0.952542057 8.81880342,0.933494438 8.93162393,0.933494438 C10.0786325,0.781113485 11.3760684,0.743018247 12.7299145,0.8953992 C14.5162393,1.10492301 16.434188,1.63825634 18.3897436,2.70492301 C18.3897436,2.70492301 16.9042735,1.27635158 13.7076923,0.304923009 L13.9709402,0.000161104461 C13.9709402,0.000161104461 16.5470085,-0.0569817527 19.2358974,1.98111349 C19.2358974,1.98111349 21.9435897,6.91444682 21.9435897,12.9906373 C21.9435897,12.9715897 20.3641026,15.7144468 16.208547,15.8477802 Z M7.46495726,7.02873253 C6.39316239,7.02873253 5.54700855,7.96206587 5.54700855,9.12397063 C5.54700855,10.2858754 6.41196581,11.2192087 7.46495726,11.2192087 C8.53675214,11.2192087 9.38290598,10.2858754 9.38290598,9.12397063 C9.4017094,7.96206587 8.53675214,7.02873253 7.46495726,7.02873253 Z M14.3282051,7.02873253 C13.2564103,7.02873253 12.4102564,7.96206587 12.4102564,9.12397063 C12.4102564,10.2858754 13.2752137,11.2192087 14.3282051,11.2192087 C15.4,11.2192087 16.2461538,10.2858754 16.2461538,9.12397063 C16.2461538,7.96206587 15.3811966,7.02873253 14.3282051,7.02873253 Z" id="Combined-Shape"></path>
            </g>
        </g>
    </g>
</svg>