<?xml version="1.0" encoding="UTF-8"?>
<svg width="20px" height="16px" viewBox="0 0 20 16" version="1.1" xmlns="http://www.w3.org/2000/svg" xmlns:xlink="http://www.w3.org/1999/xlink">
    <!-- Generator: Sketch 53 (72520) - https://sketchapp.com -->
    <title>twitter</title>
    <desc>Created with Sketch.</desc>
    <g id="Page-1" stroke="none" stroke-width="1" fill="none" fill-rule="evenodd">
        <g id="homepage-rejiggle-copy-29" transform="translate(-501.000000, -1803.000000)" fill="#272727" fill-rule="nonzero">
            <g id="twitter" transform="translate(501.000000, 1803.000000)">
                <path d="M13.6066961,0.000118512421 C14.7279842,0.0148789595 15.79492,0.465768467 16.5628374,1.24939048 C16.5628374,1.24939048 18.1760459,0.945677681 19.0671114,0.344326347 C19.0671114,0.344326347 18.8432892,1.5348805 17.358884,2.44601889 L17.3715532,2.44601889 C17.4855758,2.44601889 18.3175184,2.42577137 19.6266667,1.8385933 C19.6266667,1.8385933 19.3753947,2.52498422 17.6629442,3.83094924 L17.6629442,3.83094924 C17.7664092,6.92072074 16.1722044,12.632546 10.272591,14.665397 C8.97690364,15.1199015 7.60866388,15.3548984 6.22901201,15.3598869 C4.01860261,15.3695518 1.85346306,14.7593722 -2.9096725e-12,13.604427 C0.316729424,13.6347983 0.601785906,13.6347983 0.886842388,13.6347983 C4.37508912,13.6347983 6.06431271,11.9178086 5.97140542,11.9178086 L5.84260212,11.9178086 C2.88646082,11.9178086 2.16642926,9.20464096 2.16642926,9.20464096 C2.4031878,9.34188525 2.67787099,9.40685119 2.95402977,9.39091814 C3.3109794,9.38379474 3.66562084,9.33414499 4.00979451,9.24311125 C0.673577909,8.48585401 0.79815815,5.41633003 0.79815815,5.41633003 C1.24900346,5.70485204 1.77653718,5.86363389 2.31845939,5.87392397 C2.40759892,5.87488195 2.49664607,5.86810515 2.5845121,5.85367645 C-0.46242496,3.5414097 1.37249417,0.781672772 1.37249417,0.781672772 C4.80584113,4.60237974 9.0267886,4.73803812 9.60745921,4.73803812 L9.67713968,4.73803812 C9.36463332,2.94410787 10.1353416,1.22104395 12.2109751,0.283583788 C12.6439652,0.0929144367 13.1154693,-0.00387109298 13.5919154,0.000118512421 L13.6066961,0.000118512421 Z" id="Path"></path>
            </g>
        </g>
    </g>
</svg>