<svg xmlns="http://www.w3.org/2000/svg" width="32" height="32" viewBox="0 0 32 32">
  <g fill="none" transform="translate(6 6)">
    <path fill="#24D7D0" d="M10.1971059 2.15072248L10.1971059 3.16693551 9.08929385 3.01927837 9.08929385 2.15072248C9.25502902 2.24626376 9.4382102 2.29837727 9.63883686 2.29837727 9.83946353 2.29837727 10.0313647 2.24626376 10.1971059 2.15072248zM10.1609882 12.8774721L10.1609882 15.3962971 9.05317647 15.3962971 9.05317647 12.868786C9.39336941 12.8514148 9.76845412 12.8514154 10.1609882 12.8774721z"/>
    <path fill="#14869F" d="M10.7104863,1.20400286 C10.7104863,1.61222367 10.4924078,1.96833796 10.1609412,2.15941592 C9.99520784,2.25495878 9.81202353,2.30707306 9.61139608,2.30707306 C9.41076863,2.30707306 9.21886824,2.25495878 9.06185647,2.15941592 C8.73038667,1.96833796 8.51231373,1.61222367 8.51231373,1.20400286 C8.51231373,0.596011388 9.00951843,0.100932653 9.62011765,0.100932653 C10.2307216,0.100932653 10.7104863,0.596011388 10.7104863,1.20400286 Z"/>
    <path fill="#1EB6D1" d="M6.82129412,7.24912816 L6.82129412,12.026209 C6.82129412,12.0956869 6.76895686,12.1478012 6.69917647,12.1478012 L2.24177333,12.1478012 C2.15454431,12.1478012 2.093484,12.0609441 2.12837553,11.9740947 L4.39632941,6.18948576 C4.42249412,6.12000113 4.50100392,6.09394468 4.56206275,6.12000151 L6.75151373,7.13621388 C6.79512157,7.15358531 6.82129412,7.20569959 6.82129412,7.24912816 Z"/>
    <path fill="#6BD9FC" d="M11.3572235,8.70832041 C11.0693725,9.37711265 10.6593961,10.0024763 10.1970824,10.575749 C9.85688627,10.9926633 9.48180392,11.3835204 9.08927059,11.7396347 C8.62804706,12.1666306 8.15931765,12.548802 7.70397647,12.8791694 C7.64516078,12.9219 7.5516,12.8959204 7.58893333,12.8339571 L7.58893333,12.8339571 C7.80700392,12.3736143 8.23443137,11.1142633 8.15592157,8.39564245 C8.06869804,5.45122408 7.0306698,3.5403902 6.62941631,2.91503118 C6.56835608,2.82817482 6.64686227,2.71526224 6.75153725,2.72394783 L9.08927059,3.02794392 L10.1970824,3.17559873 L11.8020941,3.38405278 L11.8020941,3.38405278 C11.8208627,3.38405278 11.8308706,3.40033616 11.8364235,3.41806433 C11.9208157,3.68768286 12.5547608,5.91774 11.3572235,8.70832041 Z"/>
    <path fill="#1EB6D1" d="M14.8725804,9.48998816 C14.8725804,13.3811184 13.4856392,13.7546041 13.1367216,14.0325469 C13.0843843,14.0672898 13.0146039,14.0672898 12.9709882,14.0238612 C12.7354745,13.7980327 12.116149,13.1292327 10.746651,12.9381469 C10.5634667,12.9120898 10.3802902,12.8947184 10.1971059,12.8773469 C9.81330196,12.8512898 9.43821961,12.8512898 9.08930196,12.8599755 C8.49614118,12.8860327 8.00766196,12.9555184 7.71980706,12.9989469 L7.71980706,12.9989469 C7.64384878,13.0115878 7.64897843,12.9104612 7.71091843,12.865249 C7.85635529,12.7589265 8.00179216,12.6471755 8.14722902,12.5299184 C8.19956627,12.4864898 8.25190275,12.4517469 8.30424078,12.4083184 C8.56592941,12.1998612 8.82761569,11.9740327 9.08930196,11.7309102 C9.14163922,11.6874816 9.19397647,11.6353673 9.23759216,11.5919388 C9.28120784,11.5485102 9.32481569,11.5050816 9.37715294,11.4616531 C9.39640784,11.4424204 9.41566275,11.425902 9.43345098,11.409151 C9.46183529,11.3823184 9.48583529,11.3545551 9.51236078,11.3259388 L9.51236078,11.3259388 C9.53888627,11.2973224 9.56557647,11.265449 9.59308235,11.2377633 C9.63159216,11.1989878 9.6701098,11.1589714 9.70862745,11.1141935 C9.75224314,11.0707727 9.78712941,11.0273441 9.8307451,10.9839155 C9.87436078,10.9404869 9.91797647,10.8883727 9.95287059,10.8449441 C10.0313725,10.7580869 10.1098824,10.6625441 10.1883843,10.5670012 C10.2232784,10.5148869 10.2668941,10.4714661 10.3017804,10.4193518 C10.3366745,10.3672376 10.3802902,10.323809 10.4151843,10.2716947 C10.4500706,10.2195804 10.4849647,10.1761518 10.5198588,10.1240376 C10.5547451,10.0719233 10.5896392,10.0284947 10.6245333,9.97638041 C10.6419765,9.95032327 10.668149,9.91558041 10.6855922,9.88953102 C10.7117569,9.85478816 10.7292078,9.82004531 10.7553725,9.78530245 C10.8077098,9.70713102 10.8600471,9.62895959 10.9036627,9.55078816 C10.9211059,9.51604531 10.9472784,9.48130245 10.9647216,9.44655959 L10.9647216,9.44655959 C11.0007843,9.3747551 11.048149,9.30858857 11.0833961,9.23638857 C11.084549,9.23403102 11.0856941,9.23171224 11.0868471,9.22942449 C11.1566275,9.10782449 11.2176863,8.97753878 11.2787451,8.85593878 C11.3049176,8.80382449 11.3310824,8.75171796 11.3485333,8.69960367 C12.5615922,5.87283796 11.8953725,3.62122163 11.8168706,3.39202331 C11.8140235,3.38371434 11.8196392,3.37548748 11.8259294,3.38167462 L11.8259294,3.38167462 C11.8268863,3.38261801 11.8284863,3.38410815 11.8296863,3.38472103 C12.1165255,3.53091192 14.8725804,5.93476245 14.8725804,9.48998816 Z"/>
    <path fill="#14869F" d="M19.8620392,13.2422043 C19.8620392,13.3464313 19.8009412,13.4506584 19.6963137,13.5027719 L19.6963137,13.5027719 C18.467451,14.0902914 17.7012549,15.2955661 17.2502745,16.5693882 C17.0464314,17.1451812 16.7847059,17.6933584 16.4722353,18.2079094 C16.268549,18.5433176 15.8778039,18.7553653 15.5180392,18.5925314 L15.5180392,18.5925314 L14.9597647,18.3493314 C14.541098,18.1669392 14.087451,18.1669392 13.6687843,18.3493314 L13.1105098,18.5925314 C12.6918431,18.7749314 12.2381961,18.7749314 11.8195294,18.5925314 L11.2612549,18.3493314 C10.8425882,18.1669392 10.3889412,18.1669392 9.97027451,18.3493314 L9.412,18.5925314 C8.99333333,18.7749314 8.53968627,18.7749314 8.12101961,18.5925314 L7.56275294,18.3493314 C7.1440549,18.1669392 6.69046275,18.1669392 6.27176471,18.3493314 L5.71349804,18.5925314 C5.2948,18.7749314 4.83248627,18.7749314 4.4225098,18.5925314 L3.86424314,18.3493314 C3.4455451,18.1669392 2.98323137,18.1669392 2.5732549,18.3493314 L2.05860392,18.57516 L2.05860392,18.57516 C1.8144549,18.6815212 1.53839216,18.5609992 1.39377255,18.3393196 C0.500668235,16.9702882 0,15.3559784 0,13.6243696 C0,13.5027711 0,13.3811734 0.00872290196,13.259575 C0.00872290196,13.19009 0.0697831373,13.1379773 0.130843137,13.1379773 L4.85865098,13.1379773 C4.92843922,13.1379773 4.98077647,13.19009 4.98077647,13.259575 L4.98077647,13.8588792 C4.98077647,14.7013857 5.66988235,15.3875494 6.516,15.3875494 L13.2326275,15.3875494 C13.9741176,15.3875494 14.5847059,14.8664143 14.7329412,14.1802506 C14.7417255,14.1281363 14.7940392,14.0847078 14.8550588,14.0847078 L14.8550588,14.0847078 C16.3477647,14.0847078 17.8212549,13.7515331 19.1655686,13.1100217 L19.4345882,12.9816362 C19.5308235,12.9337528 19.6435294,12.9477395 19.7272157,13.0065421 C19.804,13.0605201 19.8620392,13.1490524 19.8620392,13.2422043 L19.8620392,13.2422043 Z"/>
  </g>
</svg>
