<svg xmlns="http://www.w3.org/2000/svg" width="32" height="32" viewBox="0 0 32 32">
  <path fill="#FFF" fill-rule="evenodd" d="M22.9357152,11.9976373 C22.5692497,12.3465925 21.9892659,12.3322983 21.6403703,11.9658329 L20.6927299,10.9704263 C19.297088,9.50438584 16.9772718,9.44732849 15.5112909,10.8429704 L9.15005121,16.8987925 L15.1824071,17.0471535 C15.6882402,17.0596013 16.0882372,17.4797888 16.075849,17.9856219 C16.0634012,18.4915145 15.6432137,18.8915116 15.1373211,18.8790638 L6.89372473,18.6763255 C6.38783209,18.6639373 5.98783503,18.2437498 6.00028282,17.7378572 L6.20302106,9.49426084 C6.21546885,8.98836819 6.63559679,8.58837113 7.14148944,8.60081893 C7.64738209,8.61326672 8.04737915,9.03339466 8.03493135,9.53928731 L7.88657032,15.5715836 L14.24781,9.51576157 C16.4467814,7.42232849 19.9265056,7.50791452 22.0199387,9.70688584 L22.9675791,10.7022925 C23.3164747,11.0688175 23.3022402,11.6487417 22.9357152,11.9976373 Z M8.85326959,20.5156807 C9.21973503,20.1667851 9.79971885,20.1810197 10.1486144,20.5475447 L11.0962549,21.5429513 C12.4918968,23.0089917 14.811713,23.0659895 16.2776939,21.6704072 L22.6389336,15.6145255 L16.6065777,15.4661645 C16.1007446,15.4537763 15.7007475,15.0335888 15.7131358,14.5276961 C15.7255836,14.021863 16.1457711,13.6218064 16.6516637,13.6342542 L24.89526,13.8369925 C25.4011527,13.8494403 25.8011497,14.2696278 25.7887019,14.7754608 L25.5859637,23.0191167 C25.5735159,23.5250094 25.153388,23.9250064 24.6474953,23.9125586 C24.1416027,23.9001108 23.7416056,23.4799233 23.7540534,22.9740903 L23.9024144,16.9417344 L17.5411747,22.997616 C15.3422034,25.0910491 11.8624791,25.005463 9.76904606,22.8064917 L8.82140562,21.8110255 C8.47251003,21.4445601 8.48674459,20.8645763 8.85326959,20.5156807 Z"/>
</svg>
