<svg xmlns="http://www.w3.org/2000/svg" width="32" height="32" viewBox="0 0 32 32">
  <path fill="#FFF" d="M13.8389888,15.7049552 C13.8390179,15.5122113 13.7425562,15.3322502 13.5823153,15.2257563 L6.40676953,10.4620315 L6.40740898,22.0035522 C6.40740898,22.3920209 6.09249289,22.706937 5.7040242,22.706937 C5.31555552,22.706937 5.00063943,22.3920209 5.00063943,22.0035522 L5,10.3425841 C5.00008966,9.84789187 5.27216121,9.39331246 5.70810139,9.15948234 C6.14404158,8.92565222 6.67323971,8.95044565 7.08547391,9.22405421 L14.3606765,14.0539396 C14.9136014,14.4214058 15.2458585,15.0412718 15.2457584,15.7050613 L15.2444795,22.0035522 C15.2444795,22.3920209 14.9295634,22.706937 14.5410947,22.706937 C14.152626,22.706937 13.8377099,22.3920209 13.8377099,22.0035522 L13.8389888,15.7049552 Z M26.0932305,10.4620315 L18.9176187,15.2258001 C18.7569825,15.3324177 18.6604067,15.5123902 18.6603717,15.7050613 L18.6590928,22.0035522 C18.6590928,22.3920209 18.3441768,22.706937 17.9557081,22.706937 C17.5672394,22.706937 17.2523233,22.3920209 17.2523233,22.0035522 L17.2536022,15.7049338 C17.2537226,15.0408498 17.5863728,14.4209445 18.1396092,14.0537498 L25.414592,9.22401044 C25.8267603,8.95044565 26.3559584,8.92565222 26.7918986,9.15948234 C27.2278388,9.39331246 27.4999103,9.84789187 27.5,10.3427115 L27.4961634,22.0035522 C27.4961634,22.3920209 27.1812473,22.706937 26.7927786,22.706937 C26.4043099,22.706937 26.0893938,22.3920209 26.0893938,22.0035522 L26.0932305,10.4620315 Z"/>
</svg>
