<svg xmlns="http://www.w3.org/2000/svg" width="32" height="32" viewBox="0 0 32 32">
  <path fill="#FFF" fill-rule="evenodd" d="M12.1801279,12.9465144 L15.2214153,12.9465144 C15.4089798,12.9465144 15.5768736,13.0628531 15.6427485,13.238469 L18.5570055,21.0075854 C18.5608848,21.0179274 18.5724136,21.0231665 18.5827556,21.0192871 C18.5881301,21.0172711 18.5923793,21.013043 18.5944221,21.0076786 L21.5537527,13.2363717 C21.6202099,13.0618526 21.7875488,12.9465144 21.9742932,12.9465144 L24.9907103,12.9465144 C25.2668527,12.9465144 25.4907103,13.170372 25.4907103,13.4465144 C25.4907103,13.5119689 25.4778586,13.5767866 25.4528845,13.6372894 L20.7874033,24.9399503 C20.5865625,25.4265101 20.112132,25.7439355 19.5857506,25.7439355 L17.6114897,25.7439355 C17.0860519,25.7439355 16.6122773,25.4276323 16.4108285,24.9423455 L11.7183351,13.6382106 C11.6124642,13.3831695 11.7333906,13.0905925 11.9884317,12.9847216 C12.0491945,12.9594982 12.1143378,12.9465144 12.1801279,12.9465144 Z"/>
</svg>
