<?xml version="1.0" encoding="UTF-8"?>
<svg width="19px" height="18px" viewBox="0 0 19 18" version="1.1" xmlns="http://www.w3.org/2000/svg" xmlns:xlink="http://www.w3.org/1999/xlink">
    <!-- Generator: Sketch 49.1 (51147) - http://www.bohemiancoding.com/sketch -->
    <title>arrow-right-circle</title>
    <desc>Created with Sketch.</desc>
    <defs></defs>
    <g id="arrow-right-circle" stroke="none" stroke-width="1" fill="none" fill-rule="evenodd">
        <path d="M2.99311547,8.66666667 C2.36279716,8.66666667 1.86659871,8.12358333 2.0321972,7.52483333 C2.91266774,4.341 5.86998713,2 9.38262012,2 C13.5895411,2 17,5.35783333 17,9.5 C17,13.6421333 13.5895411,17 9.38262012,17 C5.86998713,17 2.91266774,14.6590417 2.0321972,11.4752 C1.86659871,10.8763917 2.36279716,10.3333333 2.99311547,10.3333333 L10.7249926,10.3333333 L8.36058274,12.6554167 C8.03296879,12.9818083 8.03470385,13.5074667 8.36446759,13.83175 C8.6942398,14.1560333 9.22812324,14.1570917 9.55921579,13.834125 L13.3775248,10.0823333 C13.5364736,9.92614167 13.6258505,9.71409167 13.6258505,9.49295833 C13.6258505,9.271825 13.5364736,9.059775 13.3775248,8.90358333 L9.55921579,5.15166667 C9.22860568,4.82583333 8.69227621,4.8255 8.36128523,5.151 C8.03028579,5.4765 8.02997263,6.00458333 8.36058274,6.3305 L10.739381,8.66666667 L2.99311547,8.66666667 Z" id="signInSymbol-Copy" fill="#FFFFFF" fill-rule="nonzero"></path>
    </g>
</svg>