<?xml version="1.0" encoding="UTF-8"?>
<svg width="84px" height="17px" viewBox="0 0 84 17" version="1.1" xmlns="http://www.w3.org/2000/svg" xmlns:xlink="http://www.w3.org/1999/xlink">
    <!-- Generator: Sketch 49.3 (51167) - http://www.bohemiancoding.com/sketch -->
    <title>balance-logo</title>
    <desc>Created with Sketch.</desc>
    <defs></defs>
    <g id="Page-1" stroke="none" stroke-width="1" fill="none" fill-rule="evenodd">
        <g id="home-copy-19" transform="translate(-24.000000, -23.000000)" fill="#FFFFFF">
            <path d="M24,39.4903676 L24,23.2900009 L30.301384,23.2900009 C33.1392413,23.2900009 36.200552,24.1838142 36.200552,27.5132689 C36.200552,29.0327516 35.195012,30.3958169 34.3682347,30.9321049 C35.6195733,31.5354289 36.7815307,32.4739329 36.7815307,34.7084663 C36.7815307,38.1943383 33.8989827,39.4903676 30.569528,39.4903676 L24,39.4903676 Z M27.1953827,32.3845516 L27.1953827,36.9876903 L30.7259453,36.9876903 C32.6029533,36.9876903 33.519112,36.2056036 33.519112,34.7084663 C33.519112,33.1889836 32.580608,32.3845516 30.5918733,32.3845516 L27.1953827,32.3845516 Z M27.1953827,25.7926783 L27.1953827,29.9712556 L30.502492,29.9712556 C32.0219747,29.9712556 32.915788,29.2562049 32.915788,27.8261036 C32.915788,26.5524196 31.9996293,25.7926783 30.502492,25.7926783 L27.1953827,25.7926783 Z M46.2782973,34.8872289 L46.2782973,33.9934156 C42.8147707,34.3509409 41.4517053,34.7531569 41.4517053,36.0938769 C41.4517053,36.9653449 42.1220653,37.6803956 43.5298213,37.6803956 C45.4738653,37.6803956 46.2782973,36.6525103 46.2782973,34.8872289 Z M46.5464413,37.9932303 C45.6749733,39.2445689 44.4236347,39.7808569 42.6136627,39.7808569 C40.3120933,39.7808569 38.278668,38.4401369 38.278668,36.2502943 C38.278668,33.4124369 41.4517053,32.5633143 46.188916,32.0270263 L46.188916,31.8259183 C46.188916,29.9712556 45.183376,29.3232409 43.9320373,29.3232409 C42.7477347,29.3232409 41.76454,29.9265649 41.697504,31.2672849 L38.814956,31.2672849 C39.0607547,28.8986796 40.9824533,27.1557436 44.0884547,27.1557436 C46.926312,27.1557436 49.272572,28.4070823 49.272572,32.4515876 C49.272572,32.8091129 49.2278813,34.4403223 49.2278813,35.5128983 C49.2278813,37.4122516 49.339608,38.4848276 49.5854067,39.4903676 L46.7475493,39.4903676 C46.658168,39.1104969 46.6134773,38.5965543 46.5464413,37.9932303 Z M55.0153261,23.2900009 L55.0153261,39.4903676 L51.9316701,39.4903676 L51.9316701,23.2900009 L55.0153261,23.2900009 Z M65.2047947,34.8872289 L65.2047947,33.9934156 C61.741268,34.3509409 60.3782027,34.7531569 60.3782027,36.0938769 C60.3782027,36.9653449 61.0485627,37.6803956 62.4563187,37.6803956 C64.4003627,37.6803956 65.2047947,36.6525103 65.2047947,34.8872289 Z M65.4729387,37.9932303 C64.6014707,39.2445689 63.350132,39.7808569 61.54016,39.7808569 C59.2385907,39.7808569 57.2051653,38.4401369 57.2051653,36.2502943 C57.2051653,33.4124369 60.3782027,32.5633143 65.1154134,32.0270263 L65.1154134,31.8259183 C65.1154134,29.9712556 64.1098734,29.3232409 62.8585347,29.3232409 C61.674232,29.3232409 60.6910374,29.9265649 60.6240014,31.2672849 L57.7414533,31.2672849 C57.987252,28.8986796 59.9089507,27.1557436 63.014952,27.1557436 C65.8528094,27.1557436 68.1990694,28.4070823 68.1990694,32.4515876 C68.1990694,32.8091129 68.1543787,34.4403223 68.1543787,35.5128983 C68.1543787,37.4122516 68.2661054,38.4848276 68.511904,39.4903676 L65.6740467,39.4903676 C65.5846654,39.1104969 65.5399747,38.5965543 65.4729387,37.9932303 Z M73.8524387,27.4685783 L73.8524387,29.0550969 C74.545144,27.8261036 75.8411734,27.2004343 77.3383107,27.2004343 C80.2208587,27.2004343 81.4945427,28.9433703 81.4945427,31.9152996 L81.4945427,39.4903676 L78.4108867,39.4903676 L78.4108867,32.5856596 C78.4108867,31.0438316 78.0757067,29.6807663 76.3327707,29.6807663 C74.2993454,29.6807663 73.8524387,31.3343209 73.8524387,33.2336743 L73.8524387,39.4903676 L70.7687827,39.4903676 L70.7687827,27.4685783 L73.8524387,27.4685783 Z M89.3377547,27.2004343 C91.8627774,27.2004343 94.3654547,28.6081903 94.790016,31.5801196 L91.840432,31.5801196 C91.5946334,30.4181623 90.5220574,29.5913849 89.3377547,29.5913849 C87.7288907,29.5913849 86.4552067,30.9544503 86.4552067,33.4571276 C86.4552067,35.9821503 87.6618547,37.3899063 89.3601,37.3899063 C90.432676,37.3899063 91.5275974,36.8312729 91.9521587,35.4011716 L94.9017427,35.4011716 C94.186692,38.6859356 91.70636,39.7808569 89.2036827,39.7808569 C85.606084,39.7808569 83.3045147,37.1441076 83.3045147,33.5018183 C83.3045147,29.8371836 85.740156,27.2004343 89.3377547,27.2004343 Z M107.996108,34.3285956 L99.1250107,34.3285956 C99.3037734,36.3843663 100.689184,37.3899063 102.163976,37.3899063 C103.124825,37.3899063 104.063329,37.0547263 104.688999,36.0044956 L107.862036,36.0044956 C107.214021,37.7921223 105.471085,39.7808569 102.186321,39.7808569 C98.3205787,39.7808569 96.0637,36.8983089 96.0637,33.4347823 C96.0637,29.8595289 98.544032,27.2004343 102.09694,27.2004343 C105.806265,27.2004343 108.107835,30.0829823 107.996108,34.3285956 Z M102.074595,29.4573129 C100.912637,29.4573129 99.4155,30.1723636 99.1697014,32.2057889 L104.867761,32.2057889 C104.800725,30.1723636 103.370624,29.4573129 102.074595,29.4573129 Z" id="balance-logo"></path>
        </g>
    </g>
</svg>