<?xml version="1.0" encoding="UTF-8"?>
<svg width="108px" height="22px" viewBox="0 0 108 22" version="1.1" xmlns="http://www.w3.org/2000/svg" xmlns:xlink="http://www.w3.org/1999/xlink">
    <!-- Generator: Sketch 49.3 (51167) - http://www.bohemiancoding.com/sketch -->
    <title>balance-logo</title>
    <desc>Created with Sketch.</desc>
    <defs></defs>
    <g id="Page-1" stroke="none" stroke-width="1" fill="none" fill-rule="evenodd">
        <g id="home-copy-21" transform="translate(-140.000000, -21.000000)" fill="#CCE6E3">
            <g id="nav" transform="translate(140.000000, 18.000000)">
                <g id="balance-logo" transform="translate(0.000000, 3.000000)">
                    <path d="M27.1493476,18.7266934 L27.1493476,3.29408331 L33.1521008,3.29408331 C35.8554683,3.29408331 38.7716995,4.14553765 38.7716995,7.3172051 C38.7716995,8.76467749 37.8138133,10.0631454 37.0262181,10.574018 C38.2182542,11.1487497 39.3251448,12.0427767 39.3251448,14.1714126 C39.3251448,17.4920846 36.5792045,18.7266934 33.4075371,18.7266934 L27.1493476,18.7266934 Z M30.1932969,11.9576313 L30.1932969,16.3426212 L33.5565416,16.3426212 C35.3445957,16.3426212 36.2173364,15.5975986 36.2173364,14.1714126 C36.2173364,12.7239402 35.3233094,11.9576313 33.4288235,11.9576313 L30.1932969,11.9576313 Z M30.1932969,5.67815548 L30.1932969,9.65870456 L33.343678,9.65870456 C34.7911504,9.65870456 35.6426048,8.97754108 35.6426048,7.61521412 C35.6426048,6.40189168 34.7698641,5.67815548 33.343678,5.67815548 L30.1932969,5.67815548 Z M48.3718473,14.3417035 L48.3718473,13.4902491 C45.0724617,13.8308309 43.7739938,14.2139853 43.7739938,15.4911668 C43.7739938,16.3213348 44.4125845,17.0024983 45.7536251,17.0024983 C47.6055383,17.0024983 48.3718473,16.0233258 48.3718473,14.3417035 Z M48.6272836,17.3005073 C47.7971156,18.4925434 46.6050795,19.003416 44.8808844,19.003416 C42.6883895,19.003416 40.7513308,17.7262345 40.7513308,15.6401714 C40.7513308,12.9368038 43.7739938,12.1279222 48.2867018,11.6170496 L48.2867018,11.4254723 C48.2867018,9.65870456 47.3288157,9.04140016 46.1367796,9.04140016 C45.0086026,9.04140016 44.0720028,9.61613184 44.0081437,10.8933134 L41.2622035,10.8933134 C41.4963534,8.63695934 43.3269803,6.97662336 46.2857841,6.97662336 C48.9891517,6.97662336 51.2242193,8.16865945 51.2242193,12.0214904 C51.2242193,12.3620721 51.1816466,13.9159763 51.1816466,14.9377215 C51.1816466,16.747062 51.2880784,17.7688072 51.5222284,18.7266934 L48.8188608,18.7266934 C48.7337154,18.3648253 48.6911426,17.875239 48.6272836,17.3005073 Z M56.6948168,3.29408331 L56.6948168,18.7266934 L53.7572993,18.7266934 L53.7572993,3.29408331 L56.6948168,3.29408331 Z M66.4013931,14.3417035 L66.4013931,13.4902491 C63.1020075,13.8308309 61.8035396,14.2139853 61.8035396,15.4911668 C61.8035396,16.3213348 62.4421304,17.0024983 63.783171,17.0024983 C65.6350842,17.0024983 66.4013931,16.0233258 66.4013931,14.3417035 Z M66.6568294,17.3005073 C65.8266614,18.4925434 64.6346253,19.003416 62.9104303,19.003416 C60.7179353,19.003416 58.7808767,17.7262345 58.7808767,15.6401714 C58.7808767,12.9368038 61.8035396,12.1279222 66.3162476,11.6170496 L66.3162476,11.4254723 C66.3162476,9.65870456 65.3583615,9.04140016 64.1663254,9.04140016 C63.0381484,9.04140016 62.1015486,9.61613184 62.0376895,10.8933134 L59.2917493,10.8933134 C59.5258992,8.63695934 61.3565261,6.97662336 64.3153299,6.97662336 C67.0186975,6.97662336 69.2537651,8.16865945 69.2537651,12.0214904 C69.2537651,12.3620721 69.2111924,13.9159763 69.2111924,14.9377215 C69.2111924,16.747062 69.3176242,17.7688072 69.5517742,18.7266934 L66.8484066,18.7266934 C66.7632612,18.3648253 66.7206885,17.875239 66.6568294,17.3005073 Z M74.6392139,7.27463238 L74.6392139,8.78596385 C75.299091,7.61521412 76.5336998,7.01919608 77.9598859,7.01919608 C80.7058261,7.01919608 81.9191486,8.67953206 81.9191486,11.5106178 L81.9191486,18.7266934 L78.9816311,18.7266934 L78.9816311,12.1492085 C78.9816311,10.6804498 78.6623357,9.3819819 77.0019997,9.3819819 C75.0649411,9.3819819 74.6392139,10.9571724 74.6392139,12.7665129 L74.6392139,18.7266934 L71.7016964,18.7266934 L71.7016964,7.27463238 L74.6392139,7.27463238 Z M89.3906605,7.01919608 C91.796019,7.01919608 94.1800912,8.36023668 94.584532,11.1913224 L91.7747327,11.1913224 C91.5405827,10.0844317 90.5188375,9.29683646 89.3906605,9.29683646 C87.8580427,9.29683646 86.6447202,10.5953043 86.6447202,12.9793765 C86.6447202,15.384735 87.7941836,16.7257756 89.4119468,16.7257756 C90.4336921,16.7257756 91.4767236,16.1936167 91.8811644,14.8312897 L94.6909638,14.8312897 C94.0098003,17.9603845 91.6470145,19.003416 89.2629423,19.003416 C85.8358386,19.003416 83.6433436,16.4916257 83.6433436,13.0219492 C83.6433436,9.53098641 85.9635567,7.01919608 89.3906605,7.01919608 Z M107.16477,13.8095445 L98.7140856,13.8095445 C98.8843765,15.7678895 100.204131,16.7257756 101.60903,16.7257756 C102.524344,16.7257756 103.418371,16.4064803 104.014389,15.4060214 L107.037052,15.4060214 C106.419747,17.1089301 104.759411,19.003416 101.630317,19.003416 C97.9477767,19.003416 95.7978545,16.2574758 95.7978545,12.9580902 C95.7978545,9.55227276 98.1606403,7.01919608 101.545171,7.01919608 C105.078707,7.01919608 107.271202,9.76513635 107.16477,13.8095445 Z M101.523885,9.16911831 C100.416994,9.16911831 98.9908083,9.85028179 98.7566583,11.7873404 L104.18468,11.7873404 C104.120821,9.85028179 102.758494,9.16911831 101.523885,9.16911831 Z"></path>
                    <path d="M10.8965785,1.16520985 L12.425756,2.04438264 L3.55334478,7.14546344 C3.24020609,7.3255068 3.04730295,7.65822017 3.04730295,8.01830689 L3.04730295,11.2122423 L0,9.46026637 L0,7.43004161 C0,6.34982174 0.57870944,5.35168166 1.5181255,4.81155157 L7.86032754,1.16520985 C8.79978408,0.625120078 9.95716248,0.625120078 10.8965785,1.16520985 Z M9.88449487,18.0655006 L12.6621382,16.4685329 L12.6621382,19.9725654 L10.8965785,20.9875971 C9.95716248,21.5277272 8.7997436,21.5277272 7.86032754,20.9875971 L1.5181255,17.3412554 C0.57870944,16.8011656 0,15.8029852 0,14.7227654 L0,12.9644198 L8.87241121,18.0655006 C9.18554989,18.2455036 9.57139667,18.2455036 9.88449487,18.0655006 Z M15.4732209,3.7964795 L17.2387401,4.81155157 C18.1781562,5.35164134 18.7568656,6.34982174 18.7568656,7.43004161 L18.7568656,14.7227654 C18.7568656,15.8029852 18.1781966,16.8011656 17.2387806,17.3412554 L15.7096031,18.2204685 L15.7096031,8.01826658 C15.7096031,7.65822017 15.5167,7.3255068 15.2035613,7.14546344 L12.4258774,5.54849574 L15.4732209,3.7964795 Z" id="Combined-Shape" fill-rule="nonzero"></path>
                </g>
            </g>
        </g>
    </g>
</svg>