<?xml version="1.0" encoding="UTF-8"?>
<svg width="80px" height="16px" viewBox="0 0 80 16" version="1.1" xmlns="http://www.w3.org/2000/svg" xmlns:xlink="http://www.w3.org/1999/xlink">
    <!-- Generator: Sketch 49.1 (51147) - http://www.bohemiancoding.com/sketch -->
    <title>Balance</title>
    <desc>Created with Sketch.</desc>
    <defs></defs>
    <g id="Page-1" stroke="none" stroke-width="1" fill="none" fill-rule="evenodd">
        <g id="home" transform="translate(-140.000000, -24.000000)" fill="#CCE6E3">
            <g id="nav" transform="translate(140.000000, 18.000000)">
                <path d="M0,21.7189216 L0,6.29000092 L6.0013181,6.29000092 C8.70403937,6.29000092 11.6195733,7.14125171 11.6195733,10.3121609 C11.6195733,11.7592873 10.6619162,13.0574447 9.87450921,13.5681952 C11.0662603,14.1427895 12.1728864,15.0366028 12.1728864,17.1647298 C12.1728864,20.4846079 9.42760254,21.7189216 6.25669334,21.7189216 L0,21.7189216 Z M3.04322159,14.9514777 L3.04322159,19.3354193 L6.40566223,19.3354193 C8.19328889,19.3354193 9.06582096,18.5905749 9.06582096,17.1647298 C9.06582096,15.7176035 8.17200762,14.9514777 6.27797461,14.9514777 L3.04322159,14.9514777 Z M3.04322159,8.67350314 L3.04322159,12.6531006 L6.19284953,12.6531006 C7.63997588,12.6531006 8.49122667,11.9721 8.49122667,10.6100987 C8.49122667,9.39706631 7.61869461,8.67350314 6.19284953,8.67350314 L3.04322159,8.67350314 Z M21.217426,17.33498 L21.217426,16.4837292 C17.9188292,16.8242295 16.6206718,17.2072923 16.6206718,18.4841685 C16.6206718,19.3141381 17.2591098,19.9951387 18.5998298,19.9951387 C20.4513003,19.9951387 21.217426,19.0162003 21.217426,17.33498 Z M21.4728013,20.2930765 C20.6428318,21.4848276 19.4510806,21.9955781 17.7272978,21.9955781 C15.535327,21.9955781 13.5987314,20.7187019 13.5987314,18.6331374 C13.5987314,15.9304162 16.6206718,15.1217279 21.132301,14.6109774 L21.132301,14.419446 C21.132301,12.6531006 20.1746438,12.0359438 18.9828927,12.0359438 C17.8549854,12.0359438 16.9186095,12.6105381 16.8547657,13.8874143 L14.1094819,13.8874143 C14.3435759,11.6315996 16.1737651,9.9716606 19.1318616,9.9716606 C21.8345829,9.9716606 24.0691162,11.1634117 24.0691162,15.0153216 C24.0691162,15.3558219 24.0265537,16.9093546 24.0265537,17.9308555 C24.0265537,19.7397635 24.13296,20.7612644 24.367054,21.7189216 L21.6643327,21.7189216 C21.5792076,21.35714 21.5366451,20.8676708 21.4728013,20.2930765 Z M29.5384058,6.29000092 L29.5384058,21.7189216 L26.6015906,21.7189216 L26.6015906,6.29000092 L29.5384058,6.29000092 Z M39.2426616,17.33498 L39.2426616,16.4837292 C35.9440648,16.8242295 34.6459073,17.2072923 34.6459073,18.4841685 C34.6459073,19.3141381 35.2843454,19.9951387 36.6250654,19.9951387 C38.4765359,19.9951387 39.2426616,19.0162003 39.2426616,17.33498 Z M39.4980368,20.2930765 C38.6680673,21.4848276 37.4763162,21.9955781 35.7525333,21.9955781 C33.5605626,21.9955781 31.623967,20.7187019 31.623967,18.6331374 C31.623967,15.9304162 34.6459073,15.1217279 39.1575365,14.6109774 L39.1575365,14.419446 C39.1575365,12.6531006 38.1998794,12.0359438 37.0081283,12.0359438 C35.880221,12.0359438 34.9438451,12.6105381 34.8800013,13.8874143 L32.1347175,13.8874143 C32.3688114,11.6315996 34.1990007,9.9716606 37.1570972,9.9716606 C39.8598184,9.9716606 42.0943518,11.1634117 42.0943518,15.0153216 C42.0943518,15.3558219 42.0517892,16.9093546 42.0517892,17.9308555 C42.0517892,19.7397635 42.1581956,20.7612644 42.3922895,21.7189216 L39.6895683,21.7189216 C39.6044432,21.35714 39.5618807,20.8676708 39.4980368,20.2930765 Z M47.478513,10.2695984 L47.478513,11.7805685 C48.1382324,10.6100987 49.3725461,10.0142231 50.7983911,10.0142231 C53.5436749,10.0142231 54.7567073,11.6741622 54.7567073,14.5045711 L54.7567073,21.7189216 L51.8198921,21.7189216 L51.8198921,15.1430092 C51.8198921,13.6746016 51.500673,12.3764441 49.840734,12.3764441 C47.9041384,12.3764441 47.478513,13.9512581 47.478513,15.760166 L47.478513,21.7189216 L44.5416978,21.7189216 L44.5416978,10.2695984 L47.478513,10.2695984 Z M62.226433,10.0142231 C64.6312165,10.0142231 67.0147188,11.3549431 67.4190629,14.185352 L64.6099353,14.185352 C64.3758413,13.078726 63.3543403,12.291319 62.226433,12.291319 C60.6941816,12.291319 59.4811492,13.5894765 59.4811492,15.9729787 C59.4811492,18.3777622 60.6303378,19.7184822 62.2477143,19.7184822 C63.2692153,19.7184822 64.3119975,19.1864504 64.7163416,17.8244492 L67.5254692,17.8244492 C66.8444686,20.9527958 64.4822476,21.9955781 62.0987454,21.9955781 C58.672461,21.9955781 56.4804902,19.4843882 56.4804902,16.0155412 C56.4804902,12.525413 58.8001486,10.0142231 62.226433,10.0142231 Z M79.9962934,16.8029482 L71.5476292,16.8029482 C71.7178794,18.760825 73.0373181,19.7184822 74.4418819,19.7184822 C75.3569765,19.7184822 76.2507899,19.3992631 76.8466654,18.3990435 L79.8686058,18.3990435 C79.2514489,20.101545 77.5915099,21.9955781 74.4631632,21.9955781 C70.7815035,21.9955781 68.6320953,19.2502943 68.6320953,15.9516974 C68.6320953,12.5466943 70.9943162,10.0142231 74.3780381,10.0142231 C77.9107289,10.0142231 80.1026997,12.759507 79.9962934,16.8029482 Z M74.3567569,12.1636314 C73.2501308,12.1636314 71.8242857,12.844632 71.5901918,14.7812276 L77.0169156,14.7812276 C76.9530718,12.844632 75.5910705,12.1636314 74.3567569,12.1636314 Z" id="Balance"></path>
            </g>
        </g>
    </g>
</svg>