<?xml version="1.0" encoding="UTF-8"?>
<svg width="18px" height="18px" viewBox="0 0 18 18" version="1.1" xmlns="http://www.w3.org/2000/svg" xmlns:xlink="http://www.w3.org/1999/xlink">
    <!-- Generator: Sketch 46.2 (44496) - http://www.bohemiancoding.com/sketch -->
    <title>path0_fill</title>
    <desc>Created with Sketch.</desc>
    <defs></defs>
    <g id="Page-1" stroke="none" stroke-width="1" fill="none" fill-rule="evenodd">
        <g id="Balance-Open-Copy-31" transform="translate(-346.000000, -444.000000)" fill-rule="nonzero" fill="#FFFFFF">
            <g id="Group-21" transform="translate(334.000000, 435.000000)">
                <path d="M13.39579,19 C12.651061,19 12.0647963,19.6517 12.260453,20.3702 C13.30074,24.1908 16.79485,27 20.94507,27 C25.9156,27 29.9451,22.9706 29.9451,18 C29.9451,13.02944 25.9156,9 20.94507,9 C16.79485,9 13.30074,11.80915 12.260453,15.62976 C12.0647963,16.34833 12.651061,17 13.39579,17 L22.5311,17 L19.73752,14.2135 C19.35044,13.82183 19.35249,13.19104 19.74211,12.8019 C20.13174,12.41276 20.76253,12.41149 21.15372,12.79905 L25.6651,17.3012 C25.8529,17.48863 25.9585,17.74309 25.9585,18.00845 C25.9585,18.27381 25.8529,18.52827 25.6651,18.7157 L21.15372,23.218 C20.7631,23.609 20.12942,23.6094 19.73835,23.2188 C19.34727,22.8282 19.3469,22.1945 19.73752,21.8034 L22.5481,19 L13.39579,19 Z" id="path0_fill"></path>
            </g>
        </g>
    </g>
</svg>