<?xml version="1.0" encoding="UTF-8"?>
<svg width="20px" height="20px" viewBox="0 0 20 20" version="1.1" xmlns="http://www.w3.org/2000/svg" xmlns:xlink="http://www.w3.org/1999/xlink">
    <!-- Generator: Sketch 44.1 (41455) - http://www.bohemiancoding.com/sketch -->
    <title>Fill 51@2x</title>
    <desc>Created with Sketch.</desc>
    <defs></defs>
    <g id="Page-1" stroke="none" stroke-width="1" fill="none" fill-rule="evenodd">
        <g id="Final-Copy-34" transform="translate(-322.000000, -472.000000)" fill="#FFFFFF">
            <g id="Group-24">
                <g id="Group-38">
                    <g id="Group-37" transform="translate(140.000000, 199.000000)">
                        <g id="Group-33" transform="translate(0.000000, 261.000000)">
                            <g id="Group-29" transform="translate(168.000000, 0.000000)">
                                <path d="M24.0000828,12.5 C18.4779135,12.5 14,16.9769199 14,22.4999172 C14,26.9182157 16.8653281,30.6666736 20.8386669,31.9889671 C21.3384392,32.0815359 21.5219209,31.7720348 21.5219209,31.5079073 C21.5219209,31.2694473 21.5126475,30.4817015 21.508342,29.6460981 C18.7263093,30.2510246 18.1392672,28.4662182 18.1392672,28.4662182 C17.6843718,27.3103498 17.0289381,27.0030014 17.0289381,27.0030014 C16.1216311,26.3823432 17.0973297,26.3950942 17.0973297,26.3950942 C18.1015111,26.465473 18.6302629,27.4256055 18.6302629,27.4256055 C19.5221693,28.9543987 20.9696543,28.5124198 21.5403022,28.2569033 C21.6300559,27.6107431 21.8892155,27.169261 22.1752018,26.9197061 C19.9540468,26.6668392 17.6191265,25.8093769 17.6191265,21.9776237 C17.6191265,20.8858414 18.0097702,19.9937694 18.6494722,19.2934589 C18.5456427,19.04142 18.2033533,18.0244877 18.7463465,16.6470503 C18.7463465,16.6470503 19.5860898,16.3782861 21.4970813,17.6720969 C22.294763,17.4505278 23.150238,17.3394121 24.0000828,17.3356034 C24.8499276,17.3394121 25.706065,17.4505278 26.505237,17.6720969 C28.4139102,16.3782861 29.2524943,16.6470503 29.2524943,16.6470503 C29.7968123,18.0244877 29.4543573,19.04142 29.3505278,19.2934589 C29.9917201,19.9937694 30.3797143,20.8858414 30.3797143,21.9776237 C30.3797143,25.8184848 28.0403229,26.6641896 25.8135376,26.9117574 C26.1722211,27.2220865 26.4918236,27.8306562 26.4918236,28.7636307 C26.4918236,30.1014904 26.4802318,31.1783689 26.4802318,31.5079073 C26.4802318,31.7740219 26.660236,32.0858414 27.167129,31.9876423 C31.138315,30.6638584 34,26.9167253 34,22.4999172 C34,16.9769199 29.5227489,12.5 24.0000828,12.5" id="Fill-51"></path>
                            </g>
                        </g>
                    </g>
                </g>
            </g>
        </g>
    </g>
</svg>
