<?xml version="1.0" encoding="UTF-8"?>
<svg width="747px" height="746px" viewBox="0 0 747 746" version="1.1" xmlns="http://www.w3.org/2000/svg" xmlns:xlink="http://www.w3.org/1999/xlink" xmlns:sketch="http://www.bohemiancoding.com/sketch/ns">
    <!-- Generator: Sketch 3.5.1 (25234) - http://www.bohemiancoding.com/sketch -->
    <title>circular-arrows</title>
    <desc>Created with Sketch.</desc>
    <defs></defs>
    <g id="Page-1" stroke="none" stroke-width="1" fill="none" fill-rule="evenodd" sketch:type="MSPage">
        <g id="circular-arrows" sketch:type="MSLayerGroup" fill="#4CA873">
            <g id="Group" sketch:type="MSShapeGroup">
                <path d="M107.7,614.2 C105.8,614.2 104.4,614.5 103.2,614.2 C97.8,612.9 92.4,611.4 87,609.9 C82.9,608.7 78.9,607.3 74.8,606.1 C73.5,605.7 72,605.6 70.7,605.2 C65.6,603.7 60.6,602.2 55.6,600.7 C54.2,600.3 52.6,600.3 51.2,599.8 C50.3,599.5 49,598.9 48.8,598.2 C48.5,597.4 49,596 49.6,595.4 C53.7,591 58,586.8 62.2,582.5 C63.3,581.4 63.3,579 62.4,577.5 C60.1,573.8 57.8,570.1 55.5,566.4 C53.7,563.5 51.8,560.6 50,557.6 C48.7,555.5 47.4,553.4 46.3,551.2 C43,544.9 39.6,538.6 36.6,532.2 C34.4,527.6 32.6,522.7 30.6,518 C29.1,514.5 27.4,511.2 26,507.6 C23.6,501.2 21.3,494.8 19.1,488.4 C17.8,484.5 16.8,480.5 15.6,476.6 C14.3,472 12.9,467.5 11.6,462.9 C11.3,462 11.2,461 11,460 C9.9,454.2 8.6,448.4 7.6,442.6 C6.1,434 4.7,425.4 3.5,416.7 C1.7,403.9 0.5,391 0.9,378 C1.2,368.2 0.7,358.4 1.1,348.6 C1.4,341.6 2.6,334.6 3.5,327.7 C4.4,320.3 5.3,312.8 6.6,305.4 C7.7,298.8 9.4,292.4 10.9,285.9 C12.6,278.8 14.3,271.6 16.4,264.6 C18.2,258.5 20.7,252.6 22.8,246.5 C24.8,240.9 26.6,235.3 28.8,229.8 C30.6,225.4 32.8,221.2 34.9,216.9 C35.9,214.8 36.9,212.6 37.9,210.5 C40.7,204.7 43.3,198.9 46.4,193.3 C49.1,188.3 52.3,183.5 55.3,178.6 C58.5,173.4 61.6,168.2 65.1,163.2 C70,156.3 75,149.5 80.2,142.8 C84.6,137 89.2,131.3 94,125.9 C100.2,119 106.5,112.3 113.1,105.9 C120.3,98.9 127.8,92 135.5,85.6 C142.3,79.9 149.6,74.7 156.9,69.5 C162.8,65.2 168.9,61.1 175.1,57.2 C180.7,53.6 186.4,50.3 192.2,47.1 C198.6,43.6 205.1,40.2 211.6,36.9 C217.7,33.8 223.9,30.8 230.3,28.2 C235.7,25.9 241.4,24.2 247,22.2 C250.4,20.9 253.8,19.4 257.3,18.2 C260.6,17.1 263.9,16.2 267.2,15.3 C271.2,14.2 275.3,13.1 279.4,12.1 C287.1,10.3 294.8,8.4 302.5,6.8 C309.5,5.3 316.6,4 323.6,2.9 C328.3,2.2 333.1,2.4 337.7,1.7 C347.4,0.1 357.1,0.2 366.8,0.3 C377,0.3 387.2,-0.1 397.4,0.4 C406.6,0.9 415.8,2.2 425,3.3 C430.3,3.9 435.6,4.9 440.9,5.8 C444.5,6.4 448,7 451.6,7.8 C456.5,9 461.4,10.4 466.4,11.7 C470.9,12.9 475.5,14 480,15.3 C483.8,16.4 487.4,17.8 491.1,19 C491.7,19.2 492.3,19.5 493,19.7 C499.6,22.1 506.3,24.4 512.9,26.9 C517.5,28.6 522.1,30.5 526.5,32.5 C530.8,34.5 535,36.8 539.2,39 C541.1,40 543,41 544.9,41.8 C551.1,44.4 556.8,48 562.5,51.6 C568.5,55.4 574.7,58.8 580.6,62.6 C583.7,64.6 586.4,67.1 589.4,69.2 C592.1,71.2 594.9,73.1 597.6,75 C599.2,76.1 600.8,77.1 602.3,78.2 C603.7,79.3 604,80.7 603,82.1 C601.3,84.5 599.5,86.7 597.7,89 C595.4,91.8 593.9,91.8 591.1,89.6 C587.4,86.6 583.6,83.8 579.7,81 C576.4,78.6 573.1,76.4 569.7,74.2 C565.2,71.3 560.5,68.4 555.9,65.6 C552.1,63.3 548.4,61 544.5,58.8 C542.4,57.6 540.3,56.6 538.1,55.6 C533.9,53.6 529.6,51.7 525.4,49.7 C521,47.6 516.7,45.5 512.3,43.5 C509.6,42.3 506.8,41.5 504,40.4 C500.5,39 497.1,37.4 493.5,36.1 C490.3,34.9 486.9,34 483.6,33 C479.7,31.9 475.8,31 472,29.7 C466.1,27.8 460.2,25.8 453.9,24.8 C447.9,23.8 442.1,21.9 436.1,20.9 C429.4,19.7 422.6,18.9 415.8,18 C409.8,17.2 403.8,16.7 397.8,16.1 C395,15.8 392.2,15.6 389.4,15.6 C380.4,15.5 371.4,15.3 362.4,15.7 C355,16 347.6,16.9 340.2,17.5 C337.2,17.7 334.2,17.8 331.3,18.1 C327.4,18.5 323.5,19.2 319.6,19.8 C312.8,20.9 305.9,21.8 299.1,23.2 C294,24.2 288.9,25.8 283.9,27.1 C279.6,28.2 275.3,29.4 271,30.6 C267.5,31.6 263.9,32.7 260.5,33.8 C257,35 253.5,36.3 250.1,37.6 C246.4,39 242.8,40.5 239.2,42 C236.2,43.2 233.2,44.3 230.3,45.6 C225.7,47.7 221.1,49.9 216.5,52.1 C212.8,53.9 209.1,55.7 205.4,57.6 C202.9,58.9 200.4,60.4 197.9,61.9 C196.1,63 194.2,64 192.4,65.1 C187.6,68 182.8,70.7 178.1,73.8 C172.3,77.6 166.4,81.5 160.9,85.8 C154.9,90.3 149.2,95.1 143.5,99.9 C137.6,104.9 131.8,109.9 126.3,115.3 C120.1,121.3 114.1,127.6 108.2,133.9 C104.4,137.9 100.7,142 97.3,146.3 C93.4,151.2 89.7,156.4 85.9,161.4 C82.9,165.4 80,169.3 77.1,173.4 C74.9,176.5 73,179.8 71,183 C68.8,186.5 66.6,189.9 64.5,193.5 C62.4,197.2 60.4,201 58.3,204.7 C56.2,208.5 54.2,212.4 52.2,216.3 C51.1,218.4 50.1,220.6 49.2,222.8 C47.2,227.7 45.2,232.7 43.2,237.6 C41.1,242.6 38.9,247.6 37,252.6 C35.7,255.9 34.9,259.3 33.8,262.7 C32.4,267.1 30.9,271.4 29.7,275.9 C28.3,280.9 27.1,285.9 25.9,291 C25.1,294.2 24.3,297.4 23.8,300.6 C22.6,307.5 21.4,314.4 20.4,321.3 C19.1,330.6 17.9,340 17,349.3 C16.5,354.5 16.5,359.8 16.4,365 C16.3,370.4 16.1,375.8 16.4,381.2 C16.8,389.4 17.7,397.5 18.3,405.7 C18.7,410.3 18.8,415 19.4,419.6 C20.3,425.9 21.7,432.2 22.8,438.6 C23.4,441.9 23.6,445.3 24.4,448.6 C26.3,456.4 28.5,464.2 30.6,472 C31.7,476.1 32.6,480.3 34,484.4 C35.7,489.7 37.7,494.9 39.7,500.1 C41.1,503.8 42.4,507.5 44,511.1 C45.9,515.5 48,519.7 50.1,524.1 C52.1,528.3 54,532.4 56.1,536.5 C59.1,542.2 62.3,547.9 65.5,553.5 C68,557.9 70.8,562.1 73.5,566.4 C74.7,568.3 76.3,568.6 77.9,566.9 C80.6,564.1 83.2,561.3 85.9,558.6 C86.6,557.9 88.1,557.2 88.8,557.5 C89.7,557.9 90.5,559.1 90.9,560.2 C92.5,564.9 94,569.7 95.4,574.5 C96.6,578.5 97.7,582.5 98.9,586.6 C99.9,590 100.9,593.4 102,596.7 C103.8,602 105.7,607.8 107.7,614.2 Z M690.4,208.8 C682.9,211.6 677.1,216.6 669.7,218.5 C667.8,214.7 668.8,211.1 668.7,207.5 C668.7,206.4 669,205.2 669,204.1 C669,193.9 669,183.8 669.1,173.6 C669.1,169.1 669.3,164.6 669.6,160.2 C669.6,159.5 670.3,158.5 670.9,158.2 C671.5,157.9 672.7,158.1 673.3,158.5 C677.8,161.4 682.2,164.4 686.7,167.4 C690,169.6 693.2,171.9 696.5,174.1 C701,177 705.5,179.8 710,182.8 C713.5,185.1 716.9,187.5 720.2,189.9 C721.9,191.2 721.6,191.9 719.7,192.9 C714.8,195.5 709.9,198.2 704.5,201.2 C706.6,205.4 708.6,209.2 710.5,213.2 C712.4,217.4 714.2,221.6 716,225.8 C717.5,229.2 719,232.6 720.3,236 C721.6,239.4 722.8,242.8 723.9,246.2 C724.9,249.2 725.9,252.3 726.9,255.3 C728.3,259.5 730,263.6 731.1,267.9 C733.1,275.2 734.7,282.6 736.5,289.9 C737.9,296 739.6,302 740.7,308.1 C741.9,314.9 742.5,321.8 743.4,328.7 C744.2,334.8 744.9,340.8 745.7,346.9 C745.8,347.5 745.8,348.1 745.9,348.6 C746.1,357.3 746.3,366.1 746.4,374.8 C746.4,381.8 746.3,388.8 745.9,395.7 C745.6,400.8 744.7,405.9 744.1,410.9 C743.8,413.2 743.8,415.5 743.5,417.8 C743,421.8 742.4,425.8 741.8,429.8 C740.7,436.6 739.7,443.3 738.5,450 C738,453 737.1,455.9 736.3,458.8 C734.8,464.2 733.3,469.5 731.8,474.9 C730.7,479 729.8,483.2 728.5,487.3 C727.4,490.8 725.9,494.2 724.7,497.6 C723.5,500.8 722.5,504 721.2,507.1 C719.1,512.3 716.9,517.4 714.8,522.5 C713.7,525.1 712.7,527.8 711.5,530.4 C710.6,532.6 709.6,534.7 708.5,536.9 C706,541.8 703.6,546.8 700.9,551.6 C697.8,557.3 694.5,562.9 691.1,568.3 C687.5,574 683.5,579.5 679.7,585 C676.9,589 674.2,593 671.3,596.9 C668.7,600.4 666.1,603.8 663.4,607.2 C660.3,611 657.2,614.7 653.9,618.2 C649.2,623.3 644.5,628.2 639.6,633.1 C632.8,639.9 625.9,646.6 618.9,653.2 C615.2,656.6 611,659.6 607.1,662.8 C602.5,666.4 598,670.1 593.3,673.5 C587.6,677.6 581.8,681.4 576,685.3 C572.9,687.4 569.8,689.6 566.6,691.6 C563.2,693.7 559.8,695.5 556.3,697.4 C552.4,699.5 548.5,701.7 544.6,703.7 C540.1,705.9 535.6,708.1 531.1,710.2 C526.7,712.3 522.2,714.4 517.7,716.5 C515.5,717.5 513.2,718.4 510.8,719.2 C507.5,720.4 504.1,721.5 500.8,722.7 C497.4,723.9 494.1,725.3 490.7,726.5 C487.6,727.6 484.5,728.7 481.4,729.6 C477,730.8 472.6,731.7 468.2,732.8 C463.1,734.1 458.1,735.7 452.9,736.8 C446.4,738.1 439.8,739.1 433.2,740.2 C430.3,740.7 427.4,741.4 424.4,741.7 C419.6,742.3 414.7,742.8 409.8,743.1 C400,743.8 390.1,744.5 380.3,745 C376.3,745.2 372.2,744.7 368.1,744.7 C363.8,744.6 359.4,744.9 355.1,744.6 C349.3,744.3 343.6,743.6 337.8,743 C334.7,742.7 331.5,742.5 328.4,742.1 C325.3,741.7 322.2,741.2 319.1,740.8 C315.3,740.3 311.5,739.9 307.8,739.2 C301.1,737.9 294.5,736.4 287.8,734.9 C283.1,733.9 278.3,732.9 273.6,731.6 C269.3,730.4 265.1,728.9 261,727.5 C254.5,725.2 248,722.9 241.6,720.6 C238.4,719.5 235.1,718.4 231.9,717.2 C229.5,716.3 227.2,715.3 224.9,714.2 C218.1,711.1 211.3,708 204.7,704.7 C201,702.9 197.6,700.7 194,698.6 C191.6,697.3 189.3,695.9 186.8,694.8 C183.5,693.3 182.9,691.1 184.9,688.2 C186.3,686.1 187.6,683.8 188.8,681.6 C189.8,679.8 191.7,679.3 193.4,680.4 C195.4,681.7 197.4,683 199.5,684 C206.9,687.8 214.3,691.5 221.7,695.2 C225.9,697.3 230,699.4 234.3,701.4 C236.8,702.6 239.5,703.4 242.1,704.4 C246,705.9 249.9,707.5 253.8,708.9 C257.4,710.2 261.2,711.2 264.8,712.4 C268.8,713.7 272.8,715 276.7,716.2 C277.9,716.6 279.2,716.8 280.5,717.1 C287.5,718.8 294.5,720.6 301.6,722.1 C308.1,723.4 314.8,724.4 321.4,725.3 C327.2,726.1 333,726.7 338.8,727.3 C344.8,728 350.8,728.5 356.8,729.1 C357.7,729.2 358.6,729.3 359.5,729.3 C369.5,729.3 379.5,729.5 389.5,729.2 C395,729.1 400.5,728.1 406,727.6 C409.2,727.3 412.4,727.1 415.6,726.8 C419.6,726.3 423.6,725.7 427.6,725.1 C434.4,724 441.1,723 447.8,721.8 C450.8,721.3 453.7,720.4 456.7,719.6 C462.8,718 468.9,716.4 475,714.6 C480.3,713.1 485.5,711.4 490.7,709.5 C496.4,707.5 502.1,705.2 507.7,703.1 C510.2,702.1 512.7,701.1 515.2,700 C519.8,698 524.5,696.3 529,694 C534.7,691.2 540.2,688 545.7,685 C550.4,682.4 555.2,679.8 559.8,676.9 C565.7,673.2 571.5,669.3 577.3,665.4 C581.5,662.6 585.6,659.8 589.6,656.8 C592.1,655 594.4,653 596.7,651 C605.2,643.6 613.9,636.5 622,628.8 C628.7,622.5 634.7,615.5 641,608.8 C643.8,605.8 646.6,602.7 649.2,599.5 C653.3,594.4 657.2,589.1 661.2,583.8 C664.2,579.8 667.1,575.9 669.9,571.8 C672,568.7 674,565.4 676,562.2 C678.2,558.7 680.4,555.3 682.5,551.7 C684.5,548.3 686.4,544.9 688.2,541.4 C690.5,537.2 692.7,533 694.9,528.7 C696,526.7 696.9,524.6 697.8,522.4 C700.6,515.6 703.5,508.7 706.2,501.9 C708.7,495.4 711.2,488.9 713.4,482.3 C715.9,474.8 718,467.2 720.2,459.7 C720.6,458.2 720.8,456.6 721.1,455.1 C722.6,448.3 724.2,441.5 725.5,434.6 C726.1,431.4 726.3,428 726.7,424.8 C727.9,415.1 729.1,405.5 730.2,395.8 C730.6,392.2 730.7,388.5 730.7,384.9 C730.8,377.2 731,369.6 730.7,361.9 C730.4,354.6 729.5,347.4 728.9,340.2 C728.7,337.6 728.6,334.9 728.3,332.3 C727.9,328.5 727.3,324.8 726.8,321 C726.3,317.5 725.9,314 725.3,310.5 C723.8,302.9 722.5,295.3 720.6,287.8 C718.7,280.4 716.2,273.2 714.1,265.8 C712.9,261.9 712,257.9 710.7,254 C709.9,251.3 708.7,248.8 707.7,246.2 C705.4,240.2 703.1,234.2 700.6,228.3 C698.9,224.3 696.8,220.5 694.8,216.6 C693.3,214 691.8,211.3 690.4,208.8 Z" id="Shape"></path>
            </g>
        </g>
    </g>
</svg>