<?xml version="1.0" encoding="UTF-8"?>
<svg width="46px" height="46px" viewBox="0 0 46 46" version="1.1" xmlns="http://www.w3.org/2000/svg" xmlns:xlink="http://www.w3.org/1999/xlink">
    <!-- Generator: Sketch 42 (36781) - http://www.bohemiancoding.com/sketch -->
    <title>feature-sync</title>
    <desc>Created with Sketch.</desc>
    <defs></defs>
    <g id="Page-1" stroke="none" stroke-width="1" fill="none" fill-rule="evenodd">
        <g id="Final" transform="translate(-340.000000, -934.000000)">
            <g id="Features" transform="translate(140.000000, 442.000000)">
                <g id="Left-2" transform="translate(0.000000, 487.000000)">
                    <g id="feature-sync" transform="translate(200.000000, 5.000000)">
                        <circle id="Base" fill="#2DBED4" cx="23" cy="23" r="23"></circle>
                        <path d="M12.7228146,16.8548468 L16.4662086,22.1416528 C16.5845271,22.3062735 16.6010149,22.5221893 16.5090387,22.7025357 C16.4170626,22.8828822 16.2317436,22.9980101 16.0276367,23.0016029 L13.3586581,23.0016029 C13.3612847,26.682732 15.5034746,30.034054 18.8635013,31.613585 C22.2235279,33.193116 26.202044,32.7191062 29.0872011,30.3955091 C29.5384137,30.0165897 30.2146021,30.0713848 30.5975101,30.5178972 C30.9804182,30.9644097 30.9250464,31.6335545 30.4738338,32.0124739 C26.9519061,34.8705409 22.0809986,35.4644072 17.963368,33.5377632 C13.8457374,31.6111193 11.2186258,27.5089216 11.21588,23.0016559 L8.54052738,23.0016559 C8.33641651,22.9980662 8.15108562,22.8829579 8.05907191,22.7026259 C7.96705819,22.5222938 7.98348328,22.3063739 8.10174127,22.1417058 L11.8453495,16.8548468 C11.9449062,16.7122139 12.1089072,16.6270691 12.2840821,16.6270691 C12.4592569,16.6270691 12.623258,16.7122139 12.7228146,16.8548468 L12.7228146,16.8548468 Z M34.1548271,29.1369098 C34.0552672,29.2795205 33.8912796,29.3646492 33.7161214,29.3646492 C33.5409632,29.3646492 33.3769755,29.2795205 33.2774156,29.1369098 L29.5340216,23.8501039 C29.415693,23.6854429 29.3992288,23.4694814 29.4912538,23.2891162 C29.5832788,23.1087509 29.7686609,22.99364 29.9728077,22.9901008 L32.6421077,22.9901008 C32.6394349,19.3089304 30.4971903,15.9575935 27.1371154,14.3780667 C23.7770406,12.7985399 19.7984845,13.2725692 16.9132969,15.5961946 C16.4620843,15.9751286 15.7858839,15.9203455 15.4029611,15.473833 C15.0200382,15.0273205 15.0753981,14.3581638 15.5266107,13.9792298 C19.0485701,11.1211678 23.9194948,10.5273019 28.037153,12.4539373 C32.1548112,14.3805728 34.7819696,18.4827611 34.7847787,22.9900478 L37.459435,22.9900478 C37.6635645,22.993624 37.8489167,23.1087399 37.9409342,23.2890905 C38.0329517,23.4694411 38.0165094,23.6853817 37.8982211,23.8500509 L34.1548271,29.1369098 Z" id="Shape" fill="#FFFFFF"></path>
                    </g>
                </g>
            </g>
        </g>
    </g>
</svg>