<?xml version="1.0" encoding="UTF-8"?>
<svg width="46px" height="46px" viewBox="0 0 46 46" version="1.1" xmlns="http://www.w3.org/2000/svg" xmlns:xlink="http://www.w3.org/1999/xlink">
    <!-- Generator: Sketch 42 (36781) - http://www.bohemiancoding.com/sketch -->
    <title>feature-search</title>
    <desc>Created with Sketch.</desc>
    <defs></defs>
    <g id="Page-1" stroke="none" stroke-width="1" fill="none" fill-rule="evenodd">
        <g id="Final" transform="translate(-894.000000, -505.000000)">
            <g id="Features" transform="translate(140.000000, 442.000000)">
                <g id="Right-1" transform="translate(754.000000, 58.000000)">
                    <g id="feature-search" transform="translate(0.000000, 5.000000)">
                        <circle id="Base" fill="#FF6A29" cx="23" cy="23" r="23"></circle>
                        <path d="M30,34 C27.23855,34 25,31.9853 25,29.5 L25,28.3893 C23.7171843,27.8702358 22.2828157,27.8702358 21,28.3893 L21,29.5 C21,31.9853 18.76145,34 16,34 C13.23855,34 11,31.9853 11,29.5 L11,24.5 C11.0373015,22.8361644 12.0025219,21.3331039 13.5,20.60695 L13.5,18.50005 C13.5,16.7155 15.02745,15.24595 17,15.03005 L17,14.00005 C17,12.89545 18.1193,12.00005 19.5,12.00005 C20.8807,12.00005 22,12.89545 22,14.00005 L22,15.0978 C22.6602966,14.9674663 23.3397034,14.9674663 24,15.0978 L24,14 C24,12.8954 25.11925,12 26.5,12 C27.88075,12 29,12.8954 29,14 L29,15.03 C30.9726,15.24575 32.5,16.7153 32.5,18.5 L32.5,20.6069 C33.9975018,21.3330272 34.9627327,22.836104 35,24.49995 L35,29.49995 C35,31.9853 32.76145,34 30,34 Z M16,27 C14.34305,27 13,28.1193 13,29.5 C13,30.8807 14.34305,32 16,32 C17.65695,32 19,30.8807 19,29.5 C19,28.1193 17.6568,27 16,27 Z M25,19.69775 C24.9798847,19.4711922 24.8154139,19.2837255 24.5934,19.2343 C23.5541017,18.9218998 22.4458983,18.9218998 21.4066,19.2343 C21.1845861,19.2837255 21.0201153,19.4711922 21,19.69775 L21,21.755 C21,21.93355 21.23855,22.0509 21.459,21.98355 C22.4657415,21.6930175 23.5341085,21.6930175 24.54085,21.98355 C24.7613,22.0509 25,21.93355 25,21.755 L25,19.69775 Z M30,27 C28.3432,27 27,28.1193 27,29.5 C27,30.8807 28.3432,32 30,32 C31.6568,32 33,30.8807 33,29.5 C33,28.1193 31.6568,27 30,27 Z" id="Shape" fill="#FFFFFF" fill-rule="nonzero"></path>
                    </g>
                </g>
            </g>
        </g>
    </g>
</svg>