<?xml version="1.0" encoding="UTF-8"?>
<svg width="46px" height="46px" viewBox="0 0 46 46" version="1.1" xmlns="http://www.w3.org/2000/svg" xmlns:xlink="http://www.w3.org/1999/xlink">
    <!-- Generator: Sketch 42 (36781) - http://www.bohemiancoding.com/sketch -->
    <title>feature-institutions</title>
    <desc>Created with Sketch.</desc>
    <defs></defs>
    <g id="Page-1" stroke="none" stroke-width="1" fill="none" fill-rule="evenodd">
        <g id="Final" transform="translate(-894.000000, -784.000000)">
            <g id="Features" transform="translate(140.000000, 442.000000)">
                <g id="Right-2" transform="translate(754.000000, 337.000000)">
                    <g id="feature-institutions" transform="translate(0.000000, 5.000000)">
                        <circle id="Base" fill="#E03636" cx="23" cy="23" r="23"></circle>
                        <path d="M32.1477729,34 L13.8514766,34 C13.5855617,34 13.3699951,33.7844334 13.3699951,33.5185185 L13.3699951,32.5717815 C13.3700411,32.320115 13.5010901,32.0866202 13.7158914,31.9554852 L15.065484,31.1314778 C15.2086822,31.0440566 15.2960017,30.8883557 15.295921,30.7205815 L15.295921,26.780763 C15.2962929,26.6521151 15.2450216,26.5286993 15.153602,26.4381848 C15.0621824,26.3476704 14.9382625,26.2976296 14.8096247,26.2992815 C14.6823662,26.299288 14.5603888,26.2484075 14.4708567,26.1579711 C14.3813247,26.0675347 14.3316726,25.945052 14.3329581,25.8178 L14.3329581,23.8896111 C14.3329581,23.6236962 14.5485247,23.4081296 14.8144396,23.4081296 L31.1848099,23.4081296 C31.4507248,23.4081296 31.6662914,23.6236962 31.6662914,23.8896111 L31.6662914,25.8164037 C31.6674972,25.9437702 31.6178667,26.0663602 31.5283949,26.1570159 C31.4389231,26.2476717 31.3169961,26.2989092 31.1896247,26.2993778 C31.0609908,26.2977391 30.9370786,26.3477841 30.8456619,26.4382957 C30.7542452,26.5288073 30.7029697,26.6522154 30.7033284,26.7808593 L30.7033284,30.720437 C30.7033179,30.888306 30.790697,31.0440742 30.9339581,31.1315741 L32.2835025,31.955437 C32.4982631,32.0866163 32.6292559,32.3201267 32.6292544,32.5717815 L32.6292544,33.5185185 C32.6292544,33.7844334 32.4136878,34 32.1477729,34 Z M19.6292544,26.7798963 C19.6292544,26.5139814 19.4136878,26.2984148 19.1477729,26.2984148 L18.1848099,26.2984148 C17.918895,26.2984148 17.7033284,26.5139814 17.7033284,26.7798963 L17.7033284,30.625537 C17.7033284,30.8914519 17.918895,31.1070185 18.1848099,31.1070185 L19.1477729,31.1070185 C19.4136878,31.1070185 19.6292544,30.8914519 19.6292544,30.625537 L19.6292544,26.7798963 Z M23.9625877,26.7798963 C23.9625877,26.5139814 23.7470211,26.2984148 23.4811062,26.2984148 L22.5181433,26.2984148 C22.2522284,26.2984148 22.0366618,26.5139814 22.0366618,26.7798963 L22.0366618,30.625537 C22.0366618,30.8914519 22.2522284,31.1070185 22.5181433,31.1070185 L23.4811062,31.1070185 C23.7470211,31.1070185 23.9625877,30.8914519 23.9625877,30.625537 L23.9625877,26.7798963 Z M28.295921,26.7798963 C28.295921,26.5139814 28.0803544,26.2984148 27.8144396,26.2984148 L26.8514766,26.2984148 C26.5855617,26.2984148 26.3699951,26.5139814 26.3699951,26.7798963 L26.3699951,30.625537 C26.3699951,30.8914519 26.5855617,31.1070185 26.8514766,31.1070185 L27.8144396,31.1070185 C28.0803544,31.1070185 28.295921,30.8914519 28.295921,30.625537 L28.295921,26.7798963 Z M15.295921,22.4444445 L15.295921,21.0005778 C15.295921,20.7346629 15.5114876,20.5190963 15.7774025,20.5190963 L16.0181433,20.5190963 C16.1511007,20.5190963 16.258884,20.411313 16.258884,20.2783556 L16.258884,19.5561333 C16.259968,16.390783 18.4633576,13.6525707 21.5551803,12.9742815 L21.5551803,11.25 C21.5551803,11.1542274 21.5932258,11.0623774 21.6609473,10.9946559 C21.7286688,10.9269344 21.8205188,10.8888889 21.9162914,10.8888889 L22.1570321,10.8888889 L22.4917099,8.21079261 C22.5068135,8.09032457 22.6092581,7.99995536 22.7306692,8.00000002 L23.2686284,8.00000002 C23.3900698,7.99998875 23.4925051,8.09042991 23.5075396,8.21093705 L23.8422173,10.8888889 L24.0829581,10.8888889 C24.2823942,10.8888889 24.4440692,11.0505639 24.4440692,11.25 L24.4440692,12.9737037 C27.5361209,13.6520433 29.7395753,16.3905966 29.7403655,19.5561815 L29.7403655,20.2784037 C29.7403655,20.4113612 29.8481488,20.5191445 29.9811062,20.5191445 L30.221847,20.5191445 C30.4877618,20.5191445 30.7033284,20.7347111 30.7033284,21.0006259 L30.7033284,22.4444445 L15.295921,22.4444445 Z" id="Shape" fill="#FFFFFF" fill-rule="nonzero"></path>
                    </g>
                </g>
            </g>
        </g>
    </g>
</svg>