<?xml version="1.0" encoding="UTF-8"?>
<svg width="30px" height="24px" viewBox="0 0 30 24" version="1.1" xmlns="http://www.w3.org/2000/svg" xmlns:xlink="http://www.w3.org/1999/xlink">
    <!-- Generator: Sketch 49.1 (51147) - http://www.bohemiancoding.com/sketch -->
    <title>feature-erc20</title>
    <desc>Created with Sketch.</desc>
    <defs></defs>
    <g id="Page-1" stroke="none" stroke-width="1" fill="none" fill-rule="evenodd">
        <g id="home-copy-14" transform="translate(-365.000000, -1794.000000)" fill="#FFFFFF">
            <g id="Group-10" transform="translate(0.000000, 1179.000000)">
                <g id="Left-2" transform="translate(155.000000, 602.000000)">
                    <g id="feature-sync" transform="translate(201.000000, 1.000000)">
                        <path d="M13.7228146,17.8548468 L17.4662086,23.1416528 C17.5845271,23.3062735 17.6010149,23.5221893 17.5090387,23.7025357 C17.4170626,23.8828822 17.2317436,23.9980101 17.0276367,24.0016029 L14.3586581,24.0016029 C14.3612847,27.682732 16.5034746,31.034054 19.8635013,32.613585 C23.2235279,34.193116 27.202044,33.7191062 30.0872011,31.3955091 C30.5384137,31.0165897 31.2146021,31.0713848 31.5975101,31.5178972 C31.9804182,31.9644097 31.9250464,32.6335545 31.4738338,33.0124739 C27.9519061,35.8705409 23.0809986,36.4644072 18.963368,34.5377632 C14.8457374,32.6111193 12.2186258,28.5089216 12.21588,24.0016559 L9.54052738,24.0016559 C9.33641651,23.9980662 9.15108562,23.8829579 9.05907191,23.7026259 C8.96705819,23.5222938 8.98348328,23.3063739 9.10174127,23.1417058 L12.8453495,17.8548468 C12.9449062,17.7122139 13.1089072,17.6270691 13.2840821,17.6270691 C13.4592569,17.6270691 13.623258,17.7122139 13.7228146,17.8548468 Z M35.1548271,30.1369098 C35.0552672,30.2795205 34.8912796,30.3646492 34.7161214,30.3646492 C34.5409632,30.3646492 34.3769755,30.2795205 34.2774156,30.1369098 L30.5340216,24.8501039 C30.415693,24.6854429 30.3992288,24.4694814 30.4912538,24.2891162 C30.5832788,24.1087509 30.7686609,23.99364 30.9728077,23.9901008 L33.6421077,23.9901008 C33.6394349,20.3089304 31.4971903,16.9575935 28.1371154,15.3780667 C24.7770406,13.7985399 20.7984845,14.2725692 17.9132969,16.5961946 C17.4620843,16.9751286 16.7858839,16.9203455 16.4029611,16.473833 C16.0200382,16.0273205 16.0753981,15.3581638 16.5266107,14.9792298 C20.0485701,12.1211678 24.9194948,11.5273019 29.037153,13.4539373 C33.1548112,15.3805728 35.7819696,19.4827611 35.7847787,23.9900478 L38.459435,23.9900478 C38.6635645,23.993624 38.8489167,24.1087399 38.9409342,24.2890905 C39.0329517,24.4694411 39.0165094,24.6853817 38.8982211,24.8500509 L35.1548271,30.1369098 Z" id="feature-erc20"></path>
                    </g>
                </g>
            </g>
        </g>
    </g>
</svg>