<?xml version="1.0" encoding="UTF-8"?>
<svg width="18px" height="22px" viewBox="0 0 18 22" version="1.1" xmlns="http://www.w3.org/2000/svg" xmlns:xlink="http://www.w3.org/1999/xlink">
    <!-- Generator: Sketch 49.1 (51147) - http://www.bohemiancoding.com/sketch -->
    <title>feature-private</title>
    <desc>Created with Sketch.</desc>
    <defs></defs>
    <g id="Page-1" stroke="none" stroke-width="1" fill="none" fill-rule="evenodd">
        <g id="home-copy-14" transform="translate(-371.000000, -1513.000000)" fill="#FFFFFF">
            <g id="Group-10" transform="translate(0.000000, 1179.000000)">
                <g id="Left-1" transform="translate(155.000000, 321.000000)">
                    <g id="feature-security" transform="translate(201.000000, 1.000000)">
                        <path d="M29.9988945,20.9966935 L30.4988025,20.9966935 C31.6483189,21.0445215 32.5425383,22.0132294 32.4984343,23.1628947 L32.4984343,31.8280492 C32.5425665,32.9777337 31.6483391,33.9464726 30.4988025,33.9943004 L17.5011956,33.9943004 C16.3516714,33.9464456 15.4574594,32.9777234 15.5015638,31.8280492 L15.5015638,23.1629447 C15.4574594,22.0132705 16.3516714,21.0445483 17.5011956,20.9966935 L18.0011036,20.9966935 L18.0011036,17.4949883 C18.0011036,15.4800592 18.4241257,14.3061254 19.3653024,13.3647487 C20.3064791,12.423372 21.4796131,12 23.4936923,12 L24.5062058,12 C26.520285,12 27.693569,12.4233221 28.6346957,13.3647487 C29.5758224,14.3061754 29.9988945,15.4800592 29.9988945,17.4949883 L29.9988945,20.9966935 Z M27.9992627,17.4958381 C27.9992627,16.2136242 27.7299623,15.4666117 27.1311225,14.867522 C26.5322828,14.2684323 25.7856703,13.9990819 24.5039063,13.9990819 L23.4960918,13.9990819 C22.2143778,13.9990819 21.4677153,14.2684323 20.8689255,14.867522 C20.2701358,15.4666117 20.0007354,16.2136242 20.0007354,17.4958381 L20.0007354,20.9966935 L27.9992627,20.9966935 L27.9992627,17.4958381 Z" id="feature-private"></path>
                    </g>
                </g>
            </g>
        </g>
    </g>
</svg>