<?xml version="1.0" encoding="UTF-8"?>
<svg width="20px" height="20px" viewBox="0 0 20 20" version="1.1" xmlns="http://www.w3.org/2000/svg" xmlns:xlink="http://www.w3.org/1999/xlink">
    <!-- Generator: Sketch 49.1 (51147) - http://www.bohemiancoding.com/sketch -->
    <title>feature-walletconnect</title>
    <desc>Created with Sketch.</desc>
    <defs></defs>
    <g id="Page-1" stroke="none" stroke-width="1" fill="none" fill-rule="evenodd">
        <g id="home-copy-14" transform="translate(-890.000000, -1645.000000)" fill="#FFFFFF" fill-rule="nonzero">
            <g id="Group-10" transform="translate(0.000000, 1179.000000)">
                <g id="Right-1" transform="translate(876.000000, 451.000000)">
                    <g id="feature-search" transform="translate(0.000000, 1.000000)">
                        <g id="QRCodeScan" transform="translate(14.000000, 14.000000)">
                            <path d="M19,20 L17,20 C16.4477153,20 16,19.5522847 16,19 C16,18.4477153 16.4477153,18 17,18 L19,18 C19.5522847,18 20,18.4477153 20,19 C20,19.5522847 19.5522847,20 19,20 Z M20,13 C20,13.5522847 19.5522847,14 19,14 L18.25,14 C18.1119288,14 18,14.1119288 18,14.25 L18,15 C18,15.5522847 17.5522847,16 17,16 C16.4477153,16 16,15.5522847 16,15 L16,13 C16,12.4477153 16.4477153,12 17,12 L17.75,12 C17.8880712,12 18,11.8880712 18,11.75 L18,10.25 C18,10.1119288 17.8880712,10 17.75,10 L17,10 C16.4477153,10 16,9.55228475 16,9 C16,8.44771525 16.4477153,8 17,8 L19,8 C19.5522847,8 20,8.44771525 20,9 L20,13 Z M20,2 L20,4 C20,5.1045695 19.1045695,6 18,6 L16,6 C14.8954305,6 14,5.1045695 14,4 L14,2 C14,0.8954305 14.8954305,-1.10134124e-13 16,-1.10134124e-13 L18,-1.10134124e-13 C18.5304416,-1.65873537e-10 19.039157,0.210720544 19.4142312,0.585804115 C19.7893054,0.960887686 20.0000133,1.46960836 20,2.00005 L20,2 Z M18,2.5 C18,2.22385763 17.7761424,2 17.5,2 L16.5,2 C16.2238576,2 16,2.22385763 16,2.5 L16,3.5 C16,3.77614237 16.2238576,4 16.5,4 L17.5,4 C17.7761424,4 18,3.77614237 18,3.5 L18,2.5 Z M4.72510919e-13,2 C4.72510919e-13,0.8954305 0.8954305,-1.10134124e-13 2,-1.10134124e-13 L4,-1.10134124e-13 C5.1045695,-1.10134124e-13 6,0.8954305 6,2 L6,4 C6,5.1045695 5.1045695,6 4,6 L2,6 C0.8954305,6 4.72510919e-13,5.1045695 4.72510919e-13,4 L4.72510919e-13,2 Z M2,3.5 C2,3.77614237 2.22385763,4 2.5,4 L3.5,4 C3.77614237,4 4,3.77614237 4,3.5 L4,2.5 C4,2.22385763 3.77614237,2 3.5,2 L2.5,2 C2.22385763,2 2,2.22385763 2,2.5 L2,3.5 Z M1,10 L1.75,10 C1.88807119,10 2,9.88807119 2,9.75 L2,9 C2,8.44771525 2.44771525,8 3,8 C3.55228475,8 4,8.44771525 4,9 L4,9.75 C4,9.88807119 4.11192881,10 4.25,10 L5,10 C5.55228475,10 6,10.4477153 6,11 C6,11.5522847 5.55228475,12 5,12 L1,12 C0.44771525,12 4.72510919e-13,11.5522847 4.72510919e-13,11 C4.72510919e-13,10.4477153 0.44771525,10 1,10 Z M4,20 L2,20 C0.8954305,20 4.72510919e-13,19.1045695 4.72510919e-13,18 L4.72510919e-13,16 C4.72510919e-13,14.8954305 0.8954305,14 2,14 L4,14 C5.1045695,14 6,14.8954305 6,16 L6,18 C6,19.10455 5.10459997,19.9999724 4.00005,20 L4,20 Z M4,16.5 C4,16.2238576 3.77614237,16 3.5,16 L2.5,16 C2.22385763,16 2,16.2238576 2,16.5 L2,17.5 C2,17.7761424 2.22385763,18 2.5,18 L3.5,18 C3.77614237,18 4,17.7761424 4,17.5 L4,16.5 Z M8,10.25 C8,10.1119288 7.88807119,10 7.75,10 L7,10 C6.44771525,10 6,9.55228475 6,9 C6,8.44771525 6.44771525,8 7,8 L9,8 C9.55228475,8 10,8.44771525 10,9 L10,11 C10,11.5522847 9.55228475,12 9,12 C8.44771525,12 8,11.5522847 8,11 L8,10.25 Z M13,8 L11,8 C10.4477153,8 10,7.55228475 10,7 L10,6.25 C10,6.11192881 9.88807119,6 9.75,6 L9,6 C8.44771525,6 8,5.55228475 8,5 C8,4.44771525 8.44771525,4 9,4 L9.75,4 C9.88807119,4 10,3.88807119 10,3.75 L10,2 L9,2 C8.44771525,2 8,1.55228475 8,1 C8,0.44771525 8.44771525,-1.10134124e-13 9,-1.10134124e-13 L11,-1.10134124e-13 C11.5522847,-1.10134124e-13 12,0.44771525 12,1 L12,5.75 C12,5.88807119 12.1119288,6 12.25,6 L13,6 C13.5522847,6 14,6.44771525 14,7 C14,7.55228475 13.5522847,8 13,8 Z M9,14 L9.75,14 C9.88807119,14 10,13.8880712 10,13.75 L10,13 C10,12.4477153 10.4477153,12 11,12 L11.75,12 C11.8880712,12 12,11.8880712 12,11.75 L12,11 C12,10.4477153 12.4477153,10 13,10 C13.5522847,10 14,10.4477153 14,11 L14,13 C14,13.5522847 13.5522847,14 13,14 L12.25,14 C12.1119288,14 12,14.1119288 12,14.25 L12,15 C12,15.5522847 11.5522847,16 11,16 L9,16 C8.44771525,16 8,15.5522847 8,15 C8,14.4477153 8.44771525,14 9,14 Z M13,16 C13.5522847,16 14,16.4477153 14,17 L14,19 C14,19.5522847 13.5522847,20 13,20 L9,20 C8.44771525,20 8,19.5522847 8,19 C8,18.4477153 8.44771525,18 9,18 L11.75,18 C11.8880712,18 12,17.8880712 12,17.75 L12,17 C12.0000133,16.7347835 12.1053828,16.4804349 12.2929286,16.2929079 C12.4804743,16.1053809 12.7348335,16.0000367 13.00005,16.00005 L13,16 Z" id="feature-walletconnect"></path>
                        </g>
                    </g>
                </g>
            </g>
        </g>
    </g>
</svg>