<?xml version="1.0" encoding="UTF-8"?>
<svg width="26px" height="25px" viewBox="0 0 26 25" version="1.1" xmlns="http://www.w3.org/2000/svg" xmlns:xlink="http://www.w3.org/1999/xlink">
    <!-- Generator: Sketch 49.1 (51147) - http://www.bohemiancoding.com/sketch -->
    <title>github</title>
    <desc>Created with Sketch.</desc>
    <defs></defs>
    <g id="Page-1" stroke="none" stroke-width="1" fill="none" fill-rule="evenodd">
        <g id="home-copy-14" transform="translate(-1070.000000, -2229.000000)" fill="#343639">
            <g id="Group-12" transform="translate(140.000000, 2197.000000)">
                <g id="Group-5" transform="translate(0.000000, 32.000000)">
                    <g id="Group-6" transform="translate(930.000000, 0.000000)">
                        <path d="M12.8164652,0 C5.7390547,0 0,5.73799352 0,12.8164652 C0,18.4791152 3.67230736,23.2832734 8.76468111,24.9779722 C9.40520724,25.0966118 9.64036395,24.699944 9.64036395,24.3614287 C9.64036395,24.0558099 9.62847877,23.0462066 9.62296065,21.9752672 C6.05740764,22.7505628 5.30503351,20.4630907 5.30503351,20.4630907 C4.72202315,18.9816884 3.88199584,18.5877796 3.88199584,18.5877796 C2.71915864,17.7923217 3.96964902,17.8086639 3.96964902,17.8086639 C5.25664386,17.8990761 5.93431117,19.1294041 5.93431117,19.1294041 C7.07741049,21.0887604 8.93255923,20.5223044 9.66392207,20.1948253 C9.7789536,19.366471 10.1111018,18.8010761 10.4776322,18.4810253 C7.63092014,18.156942 4.63840244,17.0579876 4.63840244,12.1470751 C4.63840244,10.7478077 5.13906551,9.60449618 5.95893047,8.70695311 C5.82585893,8.38414322 5.38716857,7.08059402 6.08308812,5.31522081 C6.08308812,5.31522081 7.15933331,4.97076292 9.60852865,6.6289573 C10.6308661,6.34498647 11.7272736,6.20257659 12.8164652,6.19769518 C13.9056567,6.20257659 15.0029132,6.34498647 16.0271608,6.6289573 C18.4733848,4.97076292 19.5481444,5.31522081 19.5481444,5.31522081 C20.2457618,7.08059402 19.8068592,8.38414322 19.6737877,8.70695311 C20.4955627,9.60449618 20.99283,10.7478077 20.99283,12.1470751 C20.99283,17.0696606 17.994582,18.1535462 15.1406539,18.470838 C15.6003556,18.8685669 16.0099697,19.6485317 16.0099697,20.8442653 C16.0099697,22.5591265 15.9951132,23.9392927 15.9951132,24.3614287 C15.9951132,24.7024908 16.225813,25.1021299 16.8754653,24.9762744 C21.9650799,23.2796654 25.6327181,18.4772051 25.6327181,12.8164652 C25.6327181,5.73799352 19.8945124,0 12.8164652,0" id="github"></path>
                    </g>
                </g>
            </g>
        </g>
    </g>
</svg>