<?xml version="1.0" encoding="UTF-8"?>
<svg width="20px" height="20px" viewBox="0 0 20 20" version="1.1" xmlns="http://www.w3.org/2000/svg" xmlns:xlink="http://www.w3.org/1999/xlink">
    <!-- Generator: Sketch 49.1 (51147) - http://www.bohemiancoding.com/sketch -->
    <title>Shape</title>
    <desc>Created with Sketch.</desc>
    <defs></defs>
    <g id="Page-1" stroke="none" stroke-width="1" fill="none" fill-rule="evenodd">
        <g id="balance.io-homepage-second-pass-copy-4" transform="translate(-342.000000, -982.000000)" fill="#CECFD1" fill-rule="nonzero">
            <g id="Group-13" transform="translate(-1.000000, 960.000000)">
                <g id="Group-12" transform="translate(191.000000, 21.000000)">
                    <path d="M162,1 C156.477539,1 152,5.5907307 152,11.2527988 C152,15.7834545 154.865,19.6257509 158.838984,20.9811829 C159.338867,21.0750601 159.521367,20.7584048 159.521367,20.4880673 C159.521367,20.2440027 159.512207,19.4355134 159.507324,18.5794448 C156.726562,19.1989581 156.138789,17.3704355 156.138789,17.3704355 C155.683477,16.1864576 155.028555,15.8710639 155.028555,15.8710639 C154.119746,15.2352702 155.0975,15.2477858 155.0975,15.2477858 C156.101523,15.3191148 156.630117,16.3041044 156.630117,16.3041044 C157.522461,17.8710605 158.971426,17.4179949 159.540273,17.1551668 C159.631172,16.4943419 159.889961,16.0412763 160.175039,15.7859576 C157.955195,15.5268942 155.62,14.6470359 155.62,10.7183716 C155.62,9.59821332 156.01002,8.68459283 156.648438,7.96681682 C156.546504,7.70649185 156.202266,6.66330962 156.747305,5.25218809 C156.747305,5.25218809 157.585938,4.97684438 159.497539,6.30350047 C160.294648,6.07509534 161.149766,5.96245473 161.99998,5.95869003 C162.84959,5.96245473 163.705293,6.07633689 164.503652,6.30474202 C166.411621,4.97684438 167.251465,5.25342964 167.251465,5.25342964 C167.79834,6.66581275 167.454102,7.7077334 167.351562,7.96681682 C167.992422,8.68459283 168.379395,9.59823335 168.379395,10.7183716 C168.379395,14.6570484 166.040527,15.5243711 163.812754,15.7784482 C164.172871,16.0963451 164.491465,16.7196231 164.491465,17.6758168 C164.491465,19.0462875 164.478027,20.1514071 164.478027,20.4893289 C164.478027,20.7621695 164.659902,21.0813079 165.166504,20.9811829 C169.137461,19.6232478 172,15.7809514 172,11.2527988 C172,5.5907307 167.522461,1 162,1 Z" id="Shape"></path>
                </g>
            </g>
        </g>
    </g>
</svg>