<?xml version="1.0" encoding="UTF-8"?>
<svg width="265px" height="152px" viewBox="0 0 265 152" version="1.1" xmlns="http://www.w3.org/2000/svg" xmlns:xlink="http://www.w3.org/1999/xlink">
    <!-- Generator: Sketch 49.1 (51147) - http://www.bohemiancoding.com/sketch -->
    <title>ledger</title>
    <desc>Created with Sketch.</desc>
    <defs></defs>
    <g id="Page-1" stroke="none" stroke-width="1" fill="none" fill-rule="evenodd">
        <g id="Artboard-3" transform="translate(-493.000000, -258.000000)">
            <g id="ledger" transform="translate(493.000000, 258.000000)">
                <g id="Group-3-Copy-3" transform="translate(0.000000, 107.900000)">
                    <path d="M16.3674576,11.5938776 L16.3674576,9.15306122 L31.3857627,9.15306122 L31.3857627,4.992 C31.3857627,2.23499453 33.6207572,-3.81724731e-16 36.3777627,-8.8817842e-16 L86.4528814,0 L86.4528814,29.9 L36.3777627,29.9 C33.6207572,29.9 31.3857627,27.6650055 31.3857627,24.908 L31.3857627,21.3571429 L16.3674576,21.3571429 L16.3674576,18.9163265 L0,18.9163265 L0,11.5938776 L16.3674576,11.5938776 Z" id="Combined-Shape" fill="#121212"></path>
                    <path d="M65.2575084,6.7122449 L57.6682211,6.7122449 L57.6682211,16.5049546 L67.8536362,16.5049546 L67.8536252,9.26010381 C67.8577724,7.88449923 66.6882757,6.7122449 65.2575084,6.7122449 Z M55.337522,6.7122449 L54.0643465,6.7122449 C52.6335792,6.7122449 51.4101695,7.83266486 51.4101695,9.26409107 L51.4101695,10.4881798 L55.337522,10.4881798 L55.337522,6.7122449 Z M51.4101695,12.7808541 L55.337522,12.7808541 L55.337522,16.556789 L51.4101695,16.556789 L51.4101695,12.7808541 Z M63.9304199,22.5735638 L65.2035954,22.5735638 C66.6343627,22.5735638 67.8577724,21.4531438 67.8577724,20.0217176 L67.8577724,18.8016161 L63.9304199,18.8016161 L63.9304199,22.5735638 Z M57.6682211,18.8016161 L61.5955736,18.8016161 L61.5955736,22.577551 L57.6682211,22.577551 L57.6682211,18.8016161 Z M51.4101695,18.8016161 L51.4101695,20.0257048 C51.4101695,21.4013094 52.5755191,22.577551 54.0643465,22.577551 L55.337522,22.577551 L55.337522,18.8016161 L51.4101695,18.8016161 Z" id="Shape" fill="#FFFFFF" fill-rule="nonzero"></path>
                    <path d="M86.4528814,5.49183673 L102.728,5.49183673 C103.761877,5.49183673 104.6,6.32995968 104.6,7.36383673 L104.6,22.5361633 C104.6,23.5700403 103.761877,24.4081633 102.728,24.4081633 L86.4528814,24.4081633 L86.4528814,5.49183673 Z" id="Rectangle-3" fill="#CCCCCC"></path>
                </g>
                <path d="M86.348,96.2 L263.252,96.2 C263.941251,96.2 264.5,96.7587486 264.5,97.448 L264.5,149.552 C264.5,150.241251 263.941251,150.8 263.252,150.8 L86.348,150.8 C85.6587486,150.8 85.1,150.241251 85.1,149.552 L85.1,97.448 C85.1,96.7587486 85.6587486,96.2 86.348,96.2 Z M236.565744,135.110345 C243.079646,135.110345 248.360208,129.771726 248.360208,123.186207 C248.360208,116.600687 243.079646,111.262069 236.565744,111.262069 C230.051842,111.262069 224.77128,116.600687 224.77128,123.186207 C224.77128,129.771726 230.051842,135.110345 236.565744,135.110345 Z" id="Combined-Shape-Copy-8" fill="#23262D"></path>
                <rect id="Rectangle-2-Copy-17" fill="#121212" x="105.9" y="94.9" width="23.4" height="1.3"></rect>
                <rect id="Rectangle-2-Copy-16" fill="#121212" x="113.7" y="110.5" width="79.3" height="23.4" rx="1.248"></rect>
                <rect id="Rectangle-2-Copy-15" fill="#121212" x="178.7" y="94.9" width="23.4" height="1.3"></rect>
                <g id="Group-2-Copy-3" transform="translate(184.351590, 81.328574) rotate(-141.000000) translate(-184.351590, -81.328574) translate(89.451590, 54.028574)">
                    <path d="M27.3,0 L188.552,-2.22044605e-16 C189.241251,-3.48658027e-16 189.8,0.558748632 189.8,1.248 L189.8,53.352 C189.8,54.0412514 189.241251,54.6 188.552,54.6 L27.3,54.6 C12.2226263,54.6 1.84644574e-15,42.3773737 0,27.3 C-1.84644574e-15,12.2226263 12.2226263,2.76966861e-15 27.3,0 Z M28.0032787,39.537931 C34.5332763,39.537931 39.8268852,34.1993126 39.8268852,27.6137931 C39.8268852,21.0282736 34.5332763,15.6896552 28.0032787,15.6896552 C21.4732811,15.6896552 16.1796721,21.0282736 16.1796721,27.6137931 C16.1796721,34.1993126 21.4732811,39.537931 28.0032787,39.537931 Z" id="Combined-Shape-Copy-4" fill="#CCCCCC"></path>
                    <g id="Group-Copy-2" transform="translate(133.482295, 26.986207) rotate(-180.000000) translate(-133.482295, -26.986207) translate(93.966557, 16.317241)" fill="#AFAFAF" fill-rule="nonzero">
                        <path d="M23.6472131,16.217158 L23.6472131,1.00350634 L24.7005423,1.00350634 L24.7005423,15.2136516 L31.9133783,15.2136516 L31.9133783,16.217158 L23.6472131,16.217158 Z M37.1224202,16.4277704 C35.488937,16.4277704 34.225765,15.8991745 33.2794145,14.8956681 C32.3865535,13.8921618 31.9092637,12.4674306 31.9092637,10.6173448 C31.9092637,8.82094459 32.3289496,7.34252785 33.2259252,6.28533598 C34.1187862,5.1744586 35.2790941,4.64586267 36.8055985,4.64586267 C38.1222599,4.64586267 39.1755891,5.12077308 39.965586,6.02103802 C40.7555828,6.97085883 41.1217793,8.23866313 41.1217793,9.82445093 L41.1217793,10.6710303 L32.9625929,10.6710303 C32.9625929,12.2031326 33.3329039,13.4172514 34.0694114,14.2101453 C34.7524295,15.0567247 35.8057587,15.4242641 37.1224202,15.4242641 C37.7519489,15.4242641 38.3321029,15.3705785 38.8052781,15.2673371 C39.2784533,15.1599661 39.9120966,15.0030392 40.6486041,14.6850557 L40.6486041,15.688562 C40.0190753,15.95286 39.4389214,16.1634724 38.9122568,16.2708435 C38.3238737,16.3782145 37.7231469,16.4319001 37.1224202,16.4277704 Z M36.8055985,5.59981314 C35.69878,5.59981314 34.8594083,5.97148215 34.1722756,6.657005 C33.5427468,7.39621337 33.1189464,8.39971971 33.0160823,9.77489506 L39.965586,9.77489506 C39.965586,8.45340523 39.7022537,7.44989889 39.1220997,6.71069052 C38.5954352,5.9673525 37.8054383,5.59981314 36.8055985,5.59981314 Z M46.598268,4.69954819 C47.3882649,4.69954819 48.1247724,4.85647511 48.7049264,5.12077308 C49.2850803,5.43875657 49.8117449,5.91366697 50.2849201,6.65287534 L50.3384095,6.65287534 C50.2849201,5.75674005 50.2849201,4.91016063 50.2849201,4.06358122 L50.2849201,0 L51.2847599,0 L51.2847599,16.217158 L50.6017418,16.217158 L50.3384095,14.4744433 C49.4949232,15.7422476 48.2317511,16.4277704 46.6517574,16.4277704 C45.0717637,16.4277704 43.9155703,15.95286 43.0720841,14.9493537 C42.2285978,13.9995328 41.8624014,12.570672 41.8624014,10.7247159 C41.8624014,8.77138872 42.2820872,7.28884232 43.0720841,6.23578012 C43.862081,5.17858826 45.0717637,4.69954819 46.598268,4.69954819 Z M46.598268,5.59981314 C45.3885853,5.59981314 44.4422349,6.02103802 43.8085916,6.92130296 C43.1790628,7.76788238 42.8622412,9.03568669 42.8622412,10.7247159 C42.8622412,13.9458473 44.1254132,15.5316351 46.598268,15.5316351 C47.8614401,15.5316351 48.8077905,15.1599661 49.3879445,14.4207577 C49.9680984,13.6815494 50.2808055,12.4674306 50.2808055,10.7205862 L50.2808055,10.5636593 C50.2808055,8.82094459 49.9639839,7.55314029 49.3879445,6.81393192 C48.8612799,5.9673525 47.9149295,5.59981314 46.598268,5.59981314 Z M62.2295082,4.91429029 L62.2295082,5.65349866 L59.913007,5.81042558 C60.5425357,6.60331947 60.8593574,7.44989889 60.8593574,8.34603418 C60.8593574,9.45691157 60.4890463,10.2993613 59.7525388,10.9890138 C59.0160313,11.6745367 58.0696809,11.9925202 56.8558836,11.9925202 C56.3292191,11.9925202 55.9630226,11.9925202 55.8025545,11.9388346 C55.3828687,12.1494471 55.066047,12.4137451 54.8562041,12.678043 C54.6463612,12.9960265 54.5393824,13.2603245 54.5393824,13.6278638 C54.5393824,13.9954032 54.695736,14.2597012 54.9590682,14.4207577 C55.2224005,14.5776846 55.6955757,14.6850557 56.3292191,14.6850557 L58.2754093,14.6850557 C59.485092,14.6850557 60.4314424,14.9493537 61.0650857,15.4242641 C61.698729,15.8991745 62.0649255,16.6383828 62.0649255,17.6418892 C62.0649255,18.856008 61.5917503,19.7562729 60.6453999,20.3881102 C59.6990495,21.0199475 58.3288986,21.337931 56.539062,21.337931 C55.1195364,21.337931 54.0127178,21.0736331 53.222721,20.4913516 C52.4327241,19.9627557 52.0665276,19.1698618 52.0665276,18.220041 C52.0665276,17.4271471 52.3298599,16.7953098 52.8030351,16.2667138 C53.2762103,15.7381179 53.9592285,15.4201344 54.7492253,15.209522 C54.4324037,15.052595 54.1196966,14.837853 53.9592285,14.5776846 C53.7535001,14.321646 53.6424068,14.0077922 53.6424068,13.6815494 C53.6424068,12.942341 54.115582,12.2568181 55.0619324,11.6745367 C54.4324037,11.4102387 53.9057391,10.9890138 53.5354281,10.4067324 C53.165117,9.82445093 53.0087635,9.13892808 53.0087635,8.39971971 C53.0087635,7.28884232 53.3790745,6.33902151 54.0620926,5.65349866 C54.7986001,4.96797581 55.7449506,4.64999233 56.9587478,4.64999233 C57.6952553,4.64999233 58.2754093,4.70367785 58.6950951,4.86060477 L62.2212791,4.86060477 L62.2212791,4.91429029 L62.2295082,4.91429029 Z M53.070482,18.1209292 C53.070482,19.6530315 54.2266753,20.4459254 56.5431766,20.4459254 C59.4892066,20.4459254 60.9663361,19.4961046 60.9663361,17.5923333 C60.9663361,16.9068105 60.7564932,16.4319001 60.283318,16.1139166 C59.8101428,15.7959331 59.0736353,15.6390062 58.0203061,15.6390062 L56.1769801,15.6390062 C54.1238111,15.688562 53.070482,16.4814559 53.070482,18.1209292 Z M53.9674576,8.39971971 C53.9674576,9.29585499 54.2307899,9.93182197 54.7574545,10.4604179 C55.284119,10.9353283 55.9671372,11.1996263 56.8641128,11.1996263 C57.8104632,11.1996263 58.5469707,10.9353283 59.0201459,10.4604179 C59.5468105,9.9855075 59.7566534,9.29998465 59.7566534,8.39971971 C59.7566534,7.44989889 59.4933211,6.71069052 58.9666565,6.23578012 C58.439992,5.76086971 57.7569738,5.49657175 56.8106234,5.49657175 C55.9177624,5.49657175 55.1771403,5.76086971 54.7039651,6.28946564 C54.1773005,6.76024639 53.9674576,7.49945476 53.9674576,8.39971971 Z" id="Shape"></path>
                        <path d="M67.6363929,15.7882331 C65.9990973,15.7882331 64.732977,15.2633256 63.7844178,14.2668215 C62.8894729,13.2703174 62.4110691,11.8555277 62.4110691,10.0183515 C62.4110691,8.23448623 62.8317345,6.76638559 63.7308036,5.71657062 C64.6257486,4.61344472 65.7887646,4.08853723 67.3188318,4.08853723 C68.6385663,4.08853723 69.6943539,4.56013381 70.4861946,5.45411687 C71.2780353,6.39731002 71.6450864,7.65626782 71.6450864,9.23099029 L71.6450864,10.0716624 L63.5204709,10.0716624 C63.5204709,11.593074 63.8916462,12.7987209 64.6298727,13.5860821 C65.314485,14.4267543 66.3702726,14.791729 67.6900071,14.791729 C68.3210051,14.791729 68.9025132,14.7384181 69.3767927,14.6358971 C69.8510723,14.5292752 70.4861946,14.3734433 71.224421,14.0576787 L71.224421,15.0541827 C70.593423,15.3166365 70.011915,15.5257793 69.4840212,15.6324011 C68.9025132,15.739023 68.3210051,15.7882331 67.6363929,15.7882331 Z M67.372446,5.03583122 C66.2630442,5.03583122 65.4217134,5.4049068 64.732977,6.08564619 C64.1019789,6.81969651 63.6771894,7.81620057 63.5740851,9.18178021 L70.5398088,9.18178021 C70.5398088,7.86951149 70.2758619,6.87300743 69.6943539,6.13895711 C69.1664601,5.40080596 68.3746194,5.03583122 67.372446,5.03583122 Z M77.5014082,4.14184815 C77.9756878,4.14184815 78.5035816,4.19515907 79.0314754,4.29768006 L78.8211427,5.29418412 C78.3344906,5.18756229 77.8395902,5.13425137 77.3446898,5.13835221 C76.3961306,5.13835221 75.6042899,5.55663787 74.9691677,6.3439991 C74.3381696,7.18467125 74.0206085,8.18117531 74.0206085,9.44013311 L74.0206085,15.5790902 L72.9648209,15.5790902 L72.9648209,4.35509182 L73.8597659,4.35509182 L73.9669943,6.40141086 L74.0206085,6.40141086 C74.4948881,5.56073871 74.9691677,4.98662114 75.4970615,4.67085648 C76.1321837,4.3017809 76.7631817,4.14184815 77.5014082,4.14184815 Z M13.7706046,0 L6.22337298,0 L6.22337298,10.0716624 L16.3523462,10.0716624 L16.3523352,2.6204366 C16.3564594,1.20564689 15.1934434,1.45691095e-16 13.7706046,0 Z M3.90558927,0 L2.63946899,0 C1.21663024,0 0,1.15233597 0,2.62453744 L0,3.88349525 L3.90558927,3.88349525 L3.90558927,0 Z M0,6.2414781 L3.90558927,6.2414781 L3.90558927,10.1249734 L0,10.1249734 L0,6.2414781 Z M12.4508701,16.3131405 L13.7169904,16.3131405 C15.1398292,16.3131405 16.3564594,15.1608046 16.3564594,13.6886031 L16.3564594,12.4337461 L12.4508701,12.4337461 L12.4508701,16.3131405 Z M6.22337298,12.4337461 L10.1289623,12.4337461 L10.1289623,16.3172414 L6.22337298,16.3172414 L6.22337298,12.4337461 Z M0,12.4337461 L0,13.6927039 C0,15.1074937 1.15889185,16.3172414 2.63946899,16.3172414 L3.90558927,16.3172414 L3.90558927,12.4337461 L0,12.4337461 Z" id="Shape"></path>
                    </g>
                    <path d="M28.0032787,42.0482759 C20.0985448,42.0482759 13.6904918,35.5857378 13.6904918,27.6137931 C13.6904918,19.6418484 20.0985448,13.1793103 28.0032787,13.1793103 C35.9080126,13.1793103 42.3160656,19.6418484 42.3160656,27.6137931 C42.3160656,35.5857378 35.9080126,42.0482759 28.0032787,42.0482759 Z M28.0032787,39.537931 C34.5332763,39.537931 39.8268852,34.1993126 39.8268852,27.6137931 C39.8268852,21.0282736 34.5332763,15.6896552 28.0032787,15.6896552 C21.4732811,15.6896552 16.1796721,21.0282736 16.1796721,27.6137931 C16.1796721,34.1993126 21.4732811,39.537931 28.0032787,39.537931 Z" id="Combined-Shape-Copy-3" fill="#121212"></path>
                </g>
                <text id="Welcome-Copy-3" font-family="pixelated_verdana_bold_12pt" font-size="8.736" font-weight="bold" fill="#58E7F9">
                    <tspan x="137.347" y="125.3">Welcome</tspan>
                </text>
            </g>
        </g>
    </g>
</svg>