<?xml version="1.0" encoding="UTF-8"?>
<svg width="144px" height="31px" viewBox="0 0 144 31" version="1.1" xmlns="http://www.w3.org/2000/svg" xmlns:xlink="http://www.w3.org/1999/xlink">
    <!-- Generator: Sketch 49.1 (51147) - http://www.bohemiancoding.com/sketch -->
    <title>ledger-wire</title>
    <desc>Created with Sketch.</desc>
    <defs></defs>
    <g id="Page-1" stroke="none" stroke-width="1" fill="none" fill-rule="evenodd">
        <g id="Artboard-2" transform="translate(-159.000000, -300.000000)">
            <g id="ledger-wire" transform="translate(159.000000, 300.000000)">
                <path d="M53.76,12.0204082 L53.76,9.48979592 L69.12,9.48979592 L69.12,5.12 C69.12,2.29230208 71.4123021,-1.25691716e-15 74.24,-1.77635684e-15 L125.44,0 L125.44,31 L74.24,31 C71.4123021,31 69.12,28.7076979 69.12,25.88 L69.12,22.1428571 L53.76,22.1428571 L53.76,19.6122449 L0,19.6122449 L0,12.0204082 L53.76,12.0204082 Z" id="Combined-Shape" fill="#121212"></path>
                <path d="M103.762392,6.95918367 L96.0004342,6.95918367 L96.0004342,17.1121603 L106.417587,17.1121603 L106.417576,9.60077653 C106.421817,8.17456442 105.225712,6.95918367 103.762392,6.95918367 Z M93.6167072,6.95918367 L92.3145645,6.95918367 C90.8512446,6.95918367 89.6,8.1208231 89.6,9.60491047 L89.6,10.8740325 L93.6167072,10.8740325 L93.6167072,6.95918367 Z M89.6,13.2510527 L93.6167072,13.2510527 L93.6167072,17.1659016 L89.6,17.1659016 L89.6,13.2510527 Z M102.40511,23.4040293 L103.707253,23.4040293 C105.170572,23.4040293 106.421817,22.2423899 106.421817,20.7583025 L106.421817,19.4933144 L102.40511,19.4933144 L102.40511,23.4040293 Z M96.0004342,19.4933144 L100.017141,19.4933144 L100.017141,23.4081633 L96.0004342,23.4081633 L96.0004342,19.4933144 Z M89.6,19.4933144 L89.6,20.7624365 C89.6,22.1886486 90.7918635,23.4081633 92.3145645,23.4081633 L93.6167072,23.4081633 L93.6167072,19.4933144 L89.6,19.4933144 Z" id="Shape" fill="#FFFFFF" fill-rule="nonzero"></path>
                <path d="M125.44,5.69387755 L142.08,5.69387755 C143.140387,5.69387755 144,6.55349083 144,7.61387755 L144,23.3861224 C144,24.4465092 143.140387,25.3061224 142.08,25.3061224 L125.44,25.3061224 L125.44,5.69387755 Z" id="Rectangle-3" fill="#CCCCCC"></path>
            </g>
        </g>
    </g>
</svg>