<?xml version="1.0" encoding="UTF-8"?>
<svg width="195px" height="56px" viewBox="0 0 195 56" version="1.1" xmlns="http://www.w3.org/2000/svg" xmlns:xlink="http://www.w3.org/1999/xlink">
    <!-- Generator: Sketch 49.1 (51147) - http://www.bohemiancoding.com/sketch -->
    <title>ledger-shield</title>
    <desc>Created with Sketch.</desc>
    <defs></defs>
    <g id="Page-1" stroke="none" stroke-width="1" fill="none" fill-rule="evenodd">
        <g id="Artboard-2" transform="translate(-155.000000, -367.000000)">
            <g id="ledger-shield" transform="translate(252.500000, 395.000000) rotate(180.000000) translate(-252.500000, -395.000000) translate(155.000000, 367.000000)">
                <path d="M28,0 L193.72,0 C194.426924,-1.2985992e-16 195,0.57307552 195,1.28 L195,54.72 C195,55.4269245 194.426924,56 193.72,56 L28,56 C12.536027,56 1.8937905e-15,43.463973 0,28 C-1.8937905e-15,12.536027 12.536027,-4.2647416e-15 28,-7.10542736e-15 Z M28.7704918,40.5517241 C35.4793934,40.5517241 40.9180328,35.0762181 40.9180328,28.3218391 C40.9180328,21.5674601 35.4793934,16.091954 28.7704918,16.091954 C22.0615902,16.091954 16.6229508,21.5674601 16.6229508,28.3218391 C16.6229508,35.0762181 22.0615902,40.5517241 28.7704918,40.5517241 Z" id="Combined-Shape-Copy-4" fill="#CCCCCC"></path>
                <g id="Group-Copy-2" transform="translate(137.139344, 27.678161) rotate(-180.000000) translate(-137.139344, -27.678161) translate(96.540984, 16.735632)" fill="#AFAFAF" fill-rule="nonzero">
                    <path d="M24.295082,16.6329825 L24.295082,1.02923727 L25.3772695,1.02923727 L25.3772695,15.6037453 L32.7877174,15.6037453 L32.7877174,16.6329825 L24.295082,16.6329825 Z M38.1394728,16.8489953 C36.4612367,16.8489953 35.1634572,16.3068456 34.1911793,15.2776083 C33.2738563,14.2483711 32.7834901,12.7871083 32.7834901,10.8895844 C32.7834901,9.04712266 33.2146742,7.53079779 34.1362245,6.44649845 C35.0535475,5.30713703 36.2456446,4.76498735 37.8139711,4.76498735 C39.1667054,4.76498735 40.2488929,5.25207495 41.0605335,6.17542361 C41.8721742,7.1495988 42.2484034,8.44991091 42.2484034,10.0763599 L42.2484034,10.9446465 L33.8656776,10.9446465 C33.8656776,12.5160334 34.2461342,13.7612835 35.0028199,14.574508 C35.7045509,15.4427946 36.7867384,15.819758 38.1394728,15.819758 C38.7862489,15.819758 39.3822975,15.7646959 39.8684364,15.6588073 C40.3545753,15.5486832 41.0055787,15.3877325 41.7622645,15.0615956 L41.7622645,16.0908328 C41.1154884,16.3619077 40.5194398,16.5779204 39.978346,16.6880446 C39.3738429,16.7981687 38.7566578,16.8532308 38.1394728,16.8489953 Z M37.8139711,5.74339809 C36.6768287,5.74339809 35.8144606,6.12459708 35.1085023,6.82769743 C34.4617262,7.58585987 34.0263148,8.61509714 33.9206325,10.0255334 L41.0605335,10.0255334 C41.0605335,8.67015921 40.7899867,7.64092194 40.1939381,6.88275951 C39.6528443,6.12036153 38.8412037,5.74339809 37.8139711,5.74339809 Z M47.8749329,4.82004943 C48.6865735,4.82004943 49.4432593,4.98100011 50.0393079,5.25207495 C50.6353565,5.57821186 51.1764502,6.06529946 51.6625891,6.82346189 L51.717544,6.82346189 C51.6625891,5.90434877 51.6625891,5.03606219 51.6625891,4.16777561 L51.6625891,0 L52.6898218,0 L52.6898218,16.6329825 L51.9880908,16.6329825 L51.717544,14.8455828 C50.8509485,16.1458949 49.553169,16.8489953 47.9298877,16.8489953 C46.3066065,16.8489953 45.1187366,16.3619077 44.2521412,15.3326704 C43.3855457,14.3584952 43.0093165,12.8929969 43.0093165,10.9997086 C43.0093165,8.99629612 43.4405006,7.47573571 44.2521412,6.39567191 C45.0637818,5.31137257 46.3066065,4.82004943 47.8749329,4.82004943 Z M47.8749329,5.74339809 C46.6321082,5.74339809 45.6598304,6.17542361 45.008827,7.09877227 C44.3620508,7.96705885 44.0365491,9.26737096 44.0365491,10.9997086 C44.0365491,14.3034331 45.3343287,15.9298822 47.8749329,15.9298822 C49.1727124,15.9298822 50.1449903,15.5486832 50.7410389,14.7905207 C51.3370874,14.0323583 51.6583618,12.7871083 51.6583618,10.995473 L51.6583618,10.8345224 C51.6583618,9.04712266 51.3328601,7.74681055 50.7410389,6.98864812 C50.1999451,6.12036153 49.2276673,5.74339809 47.8749329,5.74339809 Z M63.9344262,5.04029773 L63.9344262,5.79846017 L61.5544592,5.95941085 C62.2012353,6.77263536 62.526737,7.64092194 62.526737,8.56003506 C62.526737,9.69939648 62.1462805,10.5634475 61.3895947,11.2707834 C60.6329089,11.9738838 59.6606311,12.3000207 58.4135791,12.3000207 C57.8724853,12.3000207 57.4962561,12.3000207 57.3313916,12.2449586 C56.9002075,12.4609714 56.5747058,12.7320462 56.3591138,13.003121 C56.1435217,13.329258 56.0336121,13.6003328 56.0336121,13.9772962 C56.0336121,14.3542597 56.1942493,14.6253345 56.4647961,14.7905207 C56.735343,14.9514714 57.2214819,15.0615956 57.8724853,15.0615956 L59.8719958,15.0615956 C61.1148205,15.0615956 62.0870984,15.3326704 62.7381018,15.819758 C63.3891052,16.3068456 63.7653344,17.065008 63.7653344,18.0942453 C63.7653344,19.3394953 63.2791955,20.262844 62.3069177,20.9108823 C61.3346399,21.5589206 59.9269507,21.8850575 58.0880774,21.8850575 C56.6296606,21.8850575 55.4925183,21.6139826 54.6808777,21.0167709 C53.8692371,20.4746212 53.4930078,19.6613967 53.4930078,18.6872215 C53.4930078,17.873997 53.7635547,17.2259587 54.2496936,16.6838091 C54.7358325,16.1416594 55.4375635,15.8155225 56.2492041,15.5995097 C55.9237024,15.438559 55.602428,15.2183107 55.4375635,14.9514714 C55.2261987,14.6888677 55.1120618,14.3669663 55.1120618,14.0323583 C55.1120618,13.2741959 55.5982007,12.5710955 56.5704785,11.9738838 C55.9237024,11.7028089 55.3826087,11.2707834 55.0021521,10.6735717 C54.6216956,10.0763599 54.4610584,9.37325957 54.4610584,8.61509714 C54.4610584,7.47573571 54.8415149,6.50156052 55.5432459,5.79846017 C56.2999316,5.09535981 57.2722095,4.7692229 58.5192615,4.7692229 C59.2759473,4.7692229 59.8719958,4.82428497 60.3031799,4.98523566 L63.9259716,4.98523566 L63.9259716,5.04029773 L63.9344262,5.04029773 Z M54.5244678,18.5855685 C54.5244678,20.1569554 55.7123377,20.9701799 58.0923047,20.9701799 C61.1190478,20.9701799 62.6366467,19.9960047 62.6366467,18.0434188 C62.6366467,17.3403184 62.4210547,16.8532308 61.9349157,16.5270939 C61.4487768,16.200957 60.692091,16.0400063 59.6099035,16.0400063 L57.7160754,16.0400063 C55.6066553,16.0908328 54.5244678,16.9040574 54.5244678,18.5855685 Z M55.4460181,8.61509714 C55.4460181,9.53421025 55.7165649,10.1864841 56.2576587,10.7286337 C56.7987524,11.2157213 57.5004834,11.4867962 58.4220337,11.4867962 C59.3943115,11.4867962 60.1509973,11.2157213 60.6371362,10.7286337 C61.17823,10.2415462 61.393822,9.5384458 61.393822,8.61509714 C61.393822,7.64092194 61.1232751,6.88275951 60.5821814,6.39567191 C60.0410876,5.90858432 59.3393567,5.63750948 58.3670788,5.63750948 C57.4497559,5.63750948 56.6888428,5.90858432 56.2027039,6.45073399 C55.6616101,6.93358604 55.4460181,7.69174847 55.4460181,8.61509714 Z" id="Shape"></path>
                    <path d="M69.4894447,16.1930595 C67.8072917,16.1930595 66.5064832,15.6546929 65.5319361,14.6326374 C64.6124721,13.610582 64.1209614,12.1595156 64.1209614,10.2752323 C64.1209614,8.4456269 64.5531519,6.93988266 65.476853,5.86314935 C66.396317,4.73173818 67.5911965,4.19337152 69.1631833,4.19337152 C70.5190749,4.19337152 71.6037882,4.67706031 72.4173232,5.59396602 C73.2308581,6.56134361 73.6079655,7.85258238 73.6079655,9.46768234 L73.6079655,10.3299102 L65.2607578,10.3299102 C65.2607578,11.8903323 65.6421023,13.1268932 66.4005542,13.9344432 C67.1039229,14.796671 68.1886362,15.1710041 69.5445278,15.1710041 C70.1928135,15.1710041 70.7902532,15.1163262 71.2775268,15.0111765 C71.7648003,14.9018208 72.4173232,14.7419932 73.175775,14.418132 L73.175775,15.4401874 C72.5274894,15.7093707 71.9300496,15.9238762 71.387693,16.0332319 C70.7902532,16.1425877 70.1928135,16.1930595 69.4894447,16.1930595 Z M69.2182664,5.16495509 C68.07847,5.16495509 67.2140891,5.54349415 66.5064832,6.2416884 C65.8581975,6.99456052 65.4217699,8.01661597 65.3158409,9.41721047 L72.4724063,9.41721047 C72.4724063,8.07129383 72.2012279,7.04923839 71.6037882,6.29636627 C71.0614316,5.53928816 70.2478966,5.16495509 69.2182664,5.16495509 Z M79.6247345,4.24804939 C80.112008,4.24804939 80.6543647,4.30272725 81.1967213,4.40787699 L80.9806261,5.42993243 C80.4806411,5.32057671 79.9721817,5.26589884 79.4637224,5.27010483 C78.4891753,5.27010483 77.6756403,5.69911576 77.0231175,6.50666574 C76.3748318,7.36889359 76.0485704,8.39094903 76.0485704,9.68218781 L76.0485704,15.9785541 L74.9638571,15.9785541 L74.9638571,4.46676084 L75.8833211,4.46676084 L75.9934873,6.5655496 L76.0485704,6.5655496 C76.5358439,5.70332175 77.0231175,5.11448322 77.5654741,4.79062203 C78.2179969,4.41208298 78.8662826,4.24804939 79.6247345,4.24804939 Z M14.1478815,0 L6.39387635,0 L6.39387635,10.3299102 L16.8003556,10.3299102 L16.8003444,2.68762728 C16.8045816,1.23656091 15.6097021,1.49426764e-16 14.1478815,0 Z M4.01259172,0 L2.71178321,0 C1.24996257,0 0,1.18188305 0,2.69183327 L0,3.98307205 L4.01259172,3.98307205 L4.01259172,0 Z M0,6.40151601 L4.01259172,6.40151601 L4.01259172,10.3845881 L0,10.3845881 L0,6.40151601 Z M12.7919899,16.7314262 L14.0927984,16.7314262 C15.554619,16.7314262 16.8045816,15.5495431 16.8045816,14.0395929 L16.8045816,12.7525601 L12.7919899,12.7525601 L12.7919899,16.7314262 Z M6.39387635,12.7525601 L10.4064681,12.7525601 L10.4064681,16.7356322 L6.39387635,16.7356322 L6.39387635,12.7525601 Z M0,12.7525601 L0,14.0437989 C0,15.4948653 1.19064232,16.7356322 2.71178321,16.7356322 L4.01259172,16.7356322 L4.01259172,12.7525601 L0,12.7525601 Z" id="Shape"></path>
                </g>
                <path d="M28.7704918,43.1264368 C20.6491898,43.1264368 14.0655738,36.4981926 14.0655738,28.3218391 C14.0655738,20.1454855 20.6491898,13.5172414 28.7704918,13.5172414 C36.8917938,13.5172414 43.4754098,20.1454855 43.4754098,28.3218391 C43.4754098,36.4981926 36.8917938,43.1264368 28.7704918,43.1264368 Z M28.7704918,40.5517241 C35.4793934,40.5517241 40.9180328,35.0762181 40.9180328,28.3218391 C40.9180328,21.5674601 35.4793934,16.091954 28.7704918,16.091954 C22.0615902,16.091954 16.6229508,21.5674601 16.6229508,28.3218391 C16.6229508,35.0762181 22.0615902,40.5517241 28.7704918,40.5517241 Z" id="Combined-Shape-Copy-3" fill="#121212"></path>
            </g>
        </g>
    </g>
</svg>