<?xml version="1.0" encoding="UTF-8"?>
<svg width="30px" height="25px" viewBox="0 0 30 25" version="1.1" xmlns="http://www.w3.org/2000/svg" xmlns:xlink="http://www.w3.org/1999/xlink">
    <!-- Generator: Sketch 46.2 (44496) - http://www.bohemiancoding.com/sketch -->
    <title>Shape</title>
    <desc>Created with Sketch.</desc>
    <defs></defs>
    <g id="Page-2" stroke="none" stroke-width="1" fill="none" fill-rule="evenodd">
        <g id="Final-Copy-17" transform="translate(-330.000000, -205.000000)" fill-rule="nonzero" fill="#1D1B1A">
            <g id="Group-3" transform="translate(0.000000, 70.000000)">
                <g id="Group-7">
                    <g id="Monogram" transform="translate(330.000000, 135.000000)">
                        <path d="M3.55742297,4.92994316 C3.59469568,4.5562665 3.45425954,4.18692868 3.17927171,3.93543013 L0.37815126,0.511463845 L0.37815126,0 L9.07563025,0 L15.7983193,14.9603174 L21.7086836,0 L30,0 L30,0.511463845 L27.6050421,2.8414658 C27.3985704,3.00116253 27.2961499,3.26363542 27.3389356,3.5234176 L27.3389356,20.6432492 C27.2961499,20.9030313 27.3985704,21.1655041 27.6050421,21.3252009 L29.9439776,23.6552029 L29.9439776,24.1666667 L18.1792718,24.1666667 L18.1792718,23.6552029 L20.602241,21.2683716 C20.8403361,21.0268469 20.8403361,20.9558104 20.8403361,20.5864198 L20.8403361,6.7484813 L14.1036415,24.1098374 L13.1932773,24.1098374 L5.35014005,6.7484813 L5.35014005,18.3842837 C5.28474682,18.8734856 5.44486715,19.3660048 5.78431372,19.7197727 L8.93557422,23.5983736 L8.93557422,24.1098374 L0,24.1098374 L0,23.5983736 L3.1512605,19.7197727 C3.4882356,19.3654183 3.63901919,18.8696319 3.55742297,18.3842837 L3.55742297,4.92994316 Z" id="Shape"></path>
                    </g>
                </g>
            </g>
        </g>
    </g>
</svg>