<?xml version="1.0" encoding="UTF-8"?>
<svg width="16px" height="16px" viewBox="0 0 16 16" version="1.1" xmlns="http://www.w3.org/2000/svg" xmlns:xlink="http://www.w3.org/1999/xlink">
    <!-- Generator: Sketch 42 (36781) - http://www.bohemiancoding.com/sketch -->
    <title>mobile-nav-support</title>
    <desc>Created with Sketch.</desc>
    <defs></defs>
    <g id="Page-1" stroke="none" stroke-width="1" fill="none" fill-rule="evenodd">
        <g id="Mobile" transform="translate(-207.000000, -134.000000)" fill-rule="nonzero" fill="#333333">
            <g id="Subtitles" transform="translate(207.000000, 134.000000)">
                <g id="Layer_1">
                    <path d="M7.75,14.2083333 C7.24129542,14.2015346 6.73430985,14.1477011 6.23552083,14.0475208 C5.99994374,14.0072468 5.75839871,14.0698078 5.57199167,14.2193771 C4.61863652,14.9196996 3.49929827,15.3596065 2.324225,15.4957698 C2.18792546,15.5099906 2.05575207,15.4438611 1.98540997,15.3262524 C1.91506787,15.2086438 1.91932994,15.0609118 1.99633542,14.9475542 C2.45055171,14.3820089 2.77666325,13.7246518 2.95216875,13.0208396 C2.98759184,12.8286775 2.91248408,12.6328537 2.75764375,12.5136667 C1.04370377,11.2404201 0.0235053317,9.23915957 0,7.10416667 C0,3.18550833 3.46983646,0 7.75,0 C12.0301635,0 15.5,3.18547604 15.5,7.10416667 C15.5,11.0228573 12.0302927,14.2083333 7.75,14.2083333 Z" id="mobile-nav-support"></path>
                </g>
            </g>
        </g>
    </g>
</svg>