<?xml version="1.0" encoding="UTF-8"?>
<svg width="38px" height="38px" viewBox="0 0 38 38" version="1.1" xmlns="http://www.w3.org/2000/svg" xmlns:xlink="http://www.w3.org/1999/xlink">
    <!-- Generator: Sketch 45.1 (43504) - http://www.bohemiancoding.com/sketch -->
    <title>mobile-nav-toggle</title>
    <desc>Created with Sketch.</desc>
    <defs></defs>
    <g id="Page-1" stroke="none" stroke-width="1" fill="none" fill-rule="evenodd">
        <g id="Balance-Copy-3" transform="translate(-355.000000, -17.000000)" fill-rule="nonzero" fill="#D7ECFF">
            <path d="M374,55 C363.50659,55 355,46.4934102 355,36 C355,25.5065898 363.50659,17 374,17 C384.49341,17 393,25.5065898 393,36 C393,46.4934102 384.49341,55 374,55 Z M382.133352,44.3545785 L374.943615,25.3438785 C374.789993,24.9551353 374.416402,24.7000008 374.00079,24.7000008 C373.585179,24.7000008 373.211588,24.9551353 373.057966,25.3438785 L365.868229,44.3545785 C365.724165,44.7666847 365.861083,45.2252749 366.206968,45.4891514 C366.552854,45.7530279 367.028469,45.7617392 367.383662,45.5107035 L373.428182,41.4007035 C373.774477,41.1665167 374.227104,41.1665167 374.573399,41.4007035 L380.617994,45.5107035 C380.973187,45.7616751 381.448756,45.7529301 381.794607,45.4890671 C382.140458,45.2252042 382.277373,44.7666613 382.133352,44.3545785 Z" id="mobile-nav-toggle" transform="translate(374.000000, 36.000000) scale(-1, 1) translate(-374.000000, -36.000000) "></path>
        </g>
    </g>
</svg>