<?xml version="1.0" encoding="UTF-8"?>
<svg width="16px" height="16px" viewBox="0 0 16 16" version="1.1" xmlns="http://www.w3.org/2000/svg" xmlns:xlink="http://www.w3.org/1999/xlink">
    <!-- Generator: Sketch 42 (36781) - http://www.bohemiancoding.com/sketch -->
    <title>mobile-nav-support-alt</title>
    <desc>Created with Sketch.</desc>
    <defs>
        <path d="M8.00119866,14.6688642 C7.47600558,14.6618451 6.95258722,14.6062667 6.43763109,14.5028393 C6.1944183,14.4612599 5.94504414,14.5258487 5.75259513,14.6802659 C4.76833914,15.4032878 3.61272008,15.8574533 2.39955948,15.99803 C2.2588421,16.0127117 2.12238461,15.9444388 2.04976253,15.8230181 C1.97714045,15.7015975 1.98154066,15.5490771 2.0610421,15.4320452 C2.52998078,14.8481691 2.86666249,14.1695052 3.0478566,13.4428805 C3.08442785,13.2444899 3.00688564,13.042319 2.84702651,12.9192688 C1.07753306,11.6047528 0.0242672037,9.53862596 0,7.33443211 C0,3.28875936 3.58230333,0 8.00119866,0 C12.420094,0 16.0023973,3.28872602 16.0023973,7.33443211 C16.0023973,11.3801382 12.4202273,14.6688642 8.00119866,14.6688642 Z" id="path-1"></path>
        <mask id="mask-2" maskContentUnits="userSpaceOnUse" maskUnits="objectBoundingBox" x="0" y="0" width="16.0023973" height="16" fill="white">
            <use xlink:href="#path-1"></use>
        </mask>
    </defs>
    <g id="Page-1" stroke="none" stroke-width="1" fill="none" fill-rule="evenodd">
        <g id="Mobile" transform="translate(-207.000000, -134.000000)" stroke-width="2" stroke="#05121D" fill-rule="nonzero">
            <g id="Subtitles" transform="translate(207.000000, 134.000000)">
                <g id="Layer_1">
                    <use id="mobile-nav-support-alt" mask="url(#mask-2)" xlink:href="#path-1"></use>
                </g>
            </g>
        </g>
    </g>
</svg>