<?xml version="1.0" encoding="UTF-8"?>
<svg width="14px" height="15px" viewBox="0 0 14 15" version="1.1" xmlns="http://www.w3.org/2000/svg" xmlns:xlink="http://www.w3.org/1999/xlink">
    <!-- Generator: Sketch 49.3 (51167) - http://www.bohemiancoding.com/sketch -->
    <title>mobile-nav-close</title>
    <desc>Created with Sketch.</desc>
    <defs></defs>
    <g id="Page-1" stroke="none" stroke-width="1" fill="none" fill-rule="evenodd">
        <g id="home-copy-23" transform="translate(-376.000000, -24.000000)" fill="#011F3C" fill-rule="nonzero">
            <g id="Group-17" transform="translate(218.000000, 0.000000)">
                <path d="M171.69909,37.957242 C171.51161,38.1446877 171.257288,38.25 170.992097,38.25 C170.726907,38.25 170.472584,38.1446877 170.285105,37.957242 L164.99118,32.667016 L159.70305,37.9518004 C159.311989,38.3384915 158.681821,38.3368091 158.292832,37.9480355 C157.903844,37.5592619 157.902183,36.9294639 158.289115,36.5386462 L163.577445,31.2540615 L158.290264,25.9705751 C157.909444,25.5788312 157.913928,24.9540739 158.300331,24.5678297 C158.686734,24.1815855 159.311858,24.176994 159.703899,24.5575207 L164.99133,29.8409572 L170.284006,24.5520293 C170.535438,24.2940514 170.906323,24.1912562 171.254789,24.2829654 C171.603255,24.3746746 171.87538,24.6466972 171.967069,24.9949777 C172.058758,25.3432582 171.955824,25.713904 171.697641,25.9651335 L166.405315,31.2540615 L171.69924,36.5442875 C171.886739,36.7316557 171.992065,36.9858022 171.992036,37.2507957 C171.992008,37.5157893 171.886629,37.7699135 171.69909,37.957242 Z" id="mobile-nav-close"></path>
            </g>
        </g>
    </g>
</svg>