<?xml version="1.0" encoding="UTF-8"?>
<svg width="13px" height="13px" viewBox="0 0 13 13" version="1.1" xmlns="http://www.w3.org/2000/svg" xmlns:xlink="http://www.w3.org/1999/xlink">
    <!-- Generator: Sketch 49.1 (51147) - http://www.bohemiancoding.com/sketch -->
    <title>nav-manager</title>
    <desc>Created with Sketch.</desc>
    <defs></defs>
    <g id="Page-1" stroke="none" stroke-width="1" fill="none" fill-rule="evenodd">
        <path d="M7.20117125,12.7065841 C6.81095579,13.0974733 6.17791134,13.0978537 5.7872269,12.7074337 C5.39654246,12.3170137 5.39616228,11.6836375 5.78637775,11.2927483 L9.59309336,7.49108438 L0.999006852,7.49108438 C0.447270603,7.49108438 0,7.04357937 0,6.49155397 C0,5.93952857 0.447270603,5.49202356 0.999006852,5.49202356 L9.57616019,5.49202356 L5.78637775,1.70725168 C5.39616228,1.31636249 5.39654246,0.68298628 5.7872269,0.292566314 C6.17791134,-0.0978536523 6.81095579,-0.0974732731 7.20117125,0.293415915 L12.7068978,5.79308212 C12.894547,5.98043979 13,6.23478542 13,6.50002499 C13,6.76526455 12.894547,7.01961018 12.7068978,7.20696786 L7.20117125,12.7065841 Z" id="nav-manager" fill="#CCE6E3" fill-rule="nonzero"></path>
    </g>
</svg>