<?xml version="1.0" encoding="UTF-8"?>
<svg width="12px" height="12px" viewBox="0 0 12 12" version="1.1" xmlns="http://www.w3.org/2000/svg" xmlns:xlink="http://www.w3.org/1999/xlink">
    <!-- Generator: Sketch 49.1 (51147) - http://www.bohemiancoding.com/sketch -->
    <title>nav-blog</title>
    <desc>Created with Sketch.</desc>
    <defs></defs>
    <g id="Page-1" stroke="none" stroke-width="1" fill="none" fill-rule="evenodd">
        <g id="home" transform="translate(-711.000000, -29.000000)" fill="#CCE6E3">
            <g id="nav" transform="translate(140.000000, 18.000000)">
                <g id="Group-35" transform="translate(353.000000, 10.000000)">
                    <g id="Group-34" transform="translate(218.000000, 0.000000)">
                        <g id="nav-blog" transform="translate(0.000000, 1.000000)">
                            <path d="M2.88437085,0 L9.11562915,3.33066907e-16 C10.1185877,0 10.4822847,0.104428813 10.8489514,0.300524292 C11.2156181,0.496619771 11.5033802,0.784381917 11.6994757,1.15104858 C11.8955712,1.51771525 12,1.88141227 12,2.88437085 L12,9.11562915 C12,10.1185877 11.8955712,10.4822847 11.6994757,10.8489514 C11.5033802,11.2156181 11.2156181,11.5033802 10.8489514,11.6994757 C10.4822847,11.8955712 10.1185877,12 9.11562915,12 L2.88437085,12 C1.88141227,12 1.51771525,11.8955712 1.15104858,11.6994757 C0.784381917,11.5033802 0.496619771,11.2156181 0.300524292,10.8489514 C0.104428813,10.4822847 1.22827002e-16,10.1185877 0,9.11562915 L1.55376046e-16,2.88437085 C3.25490444e-17,1.88141227 0.104428813,1.51771525 0.300524292,1.15104858 C0.496619771,0.784381917 0.784381917,0.496619771 1.15104858,0.300524292 C1.51771525,0.104428813 1.88141227,1.11022302e-16 2.88437085,0 Z"></path>
                        </g>
                    </g>
                </g>
            </g>
        </g>
    </g>
</svg>