<?xml version="1.0" encoding="UTF-8"?>
<svg width="10px" height="10px" viewBox="0 0 10 10" version="1.1" xmlns="http://www.w3.org/2000/svg" xmlns:xlink="http://www.w3.org/1999/xlink">
    <!-- Generator: Sketch 49.1 (51147) - http://www.bohemiancoding.com/sketch -->
    <title>nav-blog-middle</title>
    <desc>Created with Sketch.</desc>
    <defs></defs>
    <g id="Page-1" stroke="none" stroke-width="1" fill="none" fill-rule="evenodd">
        <g id="home" transform="translate(-712.000000, -30.000000)" fill="#011F3C">
            <g id="nav" transform="translate(140.000000, 18.000000)">
                <g id="Group-35" transform="translate(353.000000, 10.000000)">
                    <g id="Group-34" transform="translate(218.000000, 0.000000)">
                        <g id="nav-blog-middle" transform="translate(0.000000, 1.000000)">
                            <path d="M2.88437085,1.75 C2.23414039,1.75 2.10486722,1.7749638 1.97634659,1.84369739 C1.91464975,1.87669322 1.87669322,1.91464975 1.84369739,1.97634659 C1.7749638,2.10486722 1.75,2.23414039 1.75,2.88437085 L1.75,9.11562915 C1.75,9.76585961 1.7749638,9.89513278 1.84369739,10.0236534 C1.87669322,10.0853503 1.91464975,10.1233068 1.97634659,10.1563026 C2.10486722,10.2250362 2.23414039,10.25 2.88437085,10.25 L9.11562915,10.25 C9.76585961,10.25 9.89513278,10.2250362 10.0236534,10.1563026 C10.0853503,10.1233068 10.1233068,10.0853503 10.1563026,10.0236534 C10.2250362,9.89513278 10.25,9.76585961 10.25,9.11562915 L10.25,2.88437085 C10.25,2.23414039 10.2250362,2.10486722 10.1563026,1.97634659 C10.1233068,1.91464975 10.0853503,1.87669322 10.0236534,1.84369739 C9.89513278,1.7749638 9.76585961,1.75 9.11562915,1.75 L2.88437085,1.75 Z"></path>
                        </g>
                    </g>
                </g>
            </g>
        </g>
    </g>
</svg>