<?xml version="1.0" encoding="UTF-8"?>
<svg width="19px" height="18px" viewBox="0 0 19 18" version="1.1" xmlns="http://www.w3.org/2000/svg" xmlns:xlink="http://www.w3.org/1999/xlink">
    <!-- Generator: Sketch 49.1 (51147) - http://www.bohemiancoding.com/sketch -->
    <title>open-letter</title>
    <desc>Created with Sketch.</desc>
    <defs></defs>
    <g id="open-letter" stroke="none" stroke-width="1" fill="none" fill-rule="evenodd">
        <path d="M16.0625,16 L2.9375,16 C2.41973305,16 2.00000001,15.572348 2.00000001,15.0448126 L2.00000001,9.38373503 C1.99997705,9.24216452 2.07649233,9.11209126 2.19904225,9.04537029 C2.32159216,8.97864931 2.47024931,8.98612988 2.58575,9.06482979 L8.63331249,13.185381 C9.15811331,13.5419034 9.84185542,13.5419034 10.3666562,13.185381 L16.41425,9.06470243 C16.5297735,8.98601345 16.6784459,8.97855651 16.8009963,9.04530444 C16.9235468,9.11205237 17.0000475,9.2421513 17,9.38373503 L17,15.0448126 C17,15.572348 16.5802669,16 16.0625,16 Z M16.5825625,8.01950576 L15.0265625,8.94902507 C14.9226282,9.01111672 14.7889905,9.01690339 14.6788592,8.96408103 C14.568728,8.91125867 14.4999845,8.80840369 14.5,8.69646935 L14.5,6.76042349 C14.5,6.29646071 14.080267,5.92034457 13.5625,5.92034457 L5.4375,5.92034457 C4.91973305,5.92034457 4.5,6.29646071 4.5,6.76042349 L4.5,8.69644135 C4.50001399,8.80837409 4.43126483,8.91122538 4.32112973,8.96403788 C4.21099463,9.01685038 4.0773584,9.01104789 3.9734375,8.94894107 L2.4175,8.01950576 C2.15666304,7.86369812 1.99999143,7.60137929 2,7.32047609 L2,6.76042349 C2.00000187,6.47956598 2.15663262,6.21728821 2.41740625,6.06147783 L8.97990625,2.14110957 C9.2948262,1.95296348 9.7051113,1.95296348 10.0200312,2.14110957 L16.5825312,6.06147783 C16.8433287,6.21727538 16.9999842,6.47955536 17,6.76042349 L17,7.32047609 C17.0000225,7.60136867 16.8433757,7.86368528 16.5825625,8.01950576 Z" fill="#FFFFFF" fill-rule="nonzero"></path>
    </g>
</svg>