<svg xmlns="http://www.w3.org/2000/svg" width="9" height="11" viewBox="0 0 9 11">
    <path fill="#599EFF" fill-rule="nonzero" d="M7.676 4.5h.265c.608.023 1.082.508 1.058 1.083v4.334c.024.575-.45 1.06-1.058 1.083H1.059c-.608-.024-1.082-.508-1.058-1.083V5.583c-.024-.575.45-1.06 1.058-1.083h.265V2.748c0-1.008.224-1.595.722-2.065C2.545.212 3.166 0 4.232 0h.536c1.066 0 1.687.212 2.186.683.498.47.722 1.057.722 2.065V4.5zM6.617 2.749c0-.642-.142-1.015-.46-1.315-.316-.3-.712-.434-1.39-.434h-.534c-.678 0-1.074.135-1.39.434-.318.3-.46.673-.46 1.315v1.75h4.234V2.75z"/>
</svg>
