<?xml version="1.0" encoding="UTF-8"?>
<svg width="14px" height="15px" viewBox="0 0 14 15" version="1.1" xmlns="http://www.w3.org/2000/svg" xmlns:xlink="http://www.w3.org/1999/xlink">
    <!-- Generator: Sketch 49 (51002) - http://www.bohemiancoding.com/sketch -->
    <title>sendSymbol</title>
    <desc>Created with Sketch.</desc>
    <defs></defs>
    <g id="Page-1" stroke="none" stroke-width="1" fill="none" fill-rule="evenodd">
        <g id="dashboard-copy-8" transform="translate(-1128.000000, -27.000000)" fill="#FFFFFF" fill-rule="nonzero">
            <g id="wallet">
                <g transform="translate(352.000000, 0.000000)" id="header">
                    <g>
                        <g id="buttons" transform="translate(574.000000, 20.000000)">
                            <g id="send" transform="translate(193.000000, 0.000000)">
                                <path d="M9.92690777,15.2777778 C9.33861068,15.2777778 8.87549213,15.7846556 9.03005072,16.3434889 C9.85182322,19.3150667 12.611988,21.5 15.8904454,21.5 C19.816905,21.5 23,18.3660222 23,14.5 C23,10.6340089 19.816905,7.5 15.8904454,7.5 C12.611988,7.5 9.85182322,9.68489444 9.03005072,12.65648 C8.87549213,13.2153678 9.33861068,13.7222222 9.92690777,13.7222222 L17.1433265,13.7222222 L14.9365439,11.5549444 C14.6307709,11.2503122 14.6323903,10.7596978 14.9401698,10.4570333 C15.2479571,10.1543689 15.7462484,10.1533811 16.0552681,10.4548167 L19.6190231,13.9564889 C19.7673753,14.1022678 19.8507938,14.3001811 19.8507938,14.5065722 C19.8507938,14.7129633 19.7673753,14.9108767 19.6190231,15.0566556 L16.0552681,18.5584444 C15.7466986,18.8625556 15.2461245,18.8628667 14.9371995,18.5590667 C14.6282667,18.2552667 14.6279745,17.7623889 14.9365439,17.4582 L17.1567556,15.2777778 L9.92690777,15.2777778 Z" id="sendSymbol" transform="translate(16.000000, 14.500000) scale(1, -1) rotate(90.000000) translate(-16.000000, -14.500000) "></path>
                            </g>
                        </g>
                    </g>
                </g>
            </g>
        </g>
    </g>
</svg>