<?xml version="1.0" encoding="UTF-8"?>
<svg width="612px" height="498px" viewBox="0 0 612 498" version="1.1" xmlns="http://www.w3.org/2000/svg" xmlns:xlink="http://www.w3.org/1999/xlink" xmlns:sketch="http://www.bohemiancoding.com/sketch/ns">
    <!-- Generator: Sketch 3.5.1 (25234) - http://www.bohemiancoding.com/sketch -->
    <title>twitter</title>
    <desc>Created with Sketch.</desc>
    <defs></defs>
    <g id="Page-1" stroke="none" stroke-width="1" fill="none" fill-rule="evenodd" sketch:type="MSPage">
        <g id="twitter" sketch:type="MSLayerGroup" fill="#FFFFFF">
            <g id="Capa_1" sketch:type="MSShapeGroup">
                <path d="M612,59.258 C589.475,69.239 565.306,76.008 539.912,79.03 C565.841,63.503 585.689,38.875 595.096,9.619 C570.774,23.998 543.927,34.439 515.321,40.099 C492.414,15.662 459.831,0.441 423.691,0.441 C354.357,0.441 298.14,56.658 298.14,125.954 C298.14,135.782 299.249,145.381 301.391,154.56 C197.065,149.32 104.556,99.337 42.641,23.386 C31.818,41.896 25.661,63.464 25.661,86.487 C25.661,130.046 47.842,168.48 81.496,190.966 C60.921,190.278 41.57,184.618 24.629,175.21 L24.629,176.778 C24.629,237.584 67.92,288.332 125.322,299.882 C114.805,302.712 103.715,304.28 92.242,304.28 C84.135,304.28 76.295,303.477 68.608,301.947 C84.593,351.854 130.944,388.146 185.861,389.141 C142.914,422.795 88.762,442.796 29.945,442.796 C19.811,442.796 9.829,442.184 0.001,441.075 C55.568,476.756 121.537,497.56 192.439,497.56 C423.387,497.56 549.627,306.269 549.627,140.372 L549.206,124.119 C573.872,106.526 595.211,84.422 612,59.258 L612,59.258 Z" id="Shape"></path>
            </g>
        </g>
    </g>
</svg>