<?xml version="1.0" encoding="UTF-8"?>
<svg width="28px" height="24px" viewBox="0 0 28 24" version="1.1" xmlns="http://www.w3.org/2000/svg" xmlns:xlink="http://www.w3.org/1999/xlink">
    <!-- Generator: Sketch 49.1 (51147) - http://www.bohemiancoding.com/sketch -->
    <title>twitter</title>
    <desc>Created with Sketch.</desc>
    <defs></defs>
    <g id="Page-1" stroke="none" stroke-width="1" fill="none" fill-rule="evenodd">
        <g id="home-copy-14" transform="translate(-1112.000000, -2230.000000)" fill="#5D9CF5">
            <g id="Group-12" transform="translate(140.000000, 2197.000000)">
                <g id="Group-5" transform="translate(0.000000, 32.000000)">
                    <g id="Group-6" transform="translate(930.000000, 0.000000)">
                        <path d="M66.701532,4.7943088 C67.8881259,4.04550053 68.7986148,2.858154 69.22592,1.44373827 C68.1149264,2.13881267 66.8872455,2.64148493 65.5773904,2.9136212 C64.532136,1.73494147 63.0382109,1 61.3848683,1 C58.2129483,1 55.6425427,3.7126968 55.6425427,7.05806733 C55.6425427,7.53300587 55.6902037,7.99581107 55.7888125,8.437816 C51.0161413,8.18474653 46.7841756,5.7753864 43.9491695,2.10761227 C43.4544815,3.00548893 43.1718025,4.04550053 43.1718025,5.15484613 C43.1718025,7.25566947 44.1858308,9.1103568 45.7274168,10.1989023 C44.7857017,10.1677019 43.8998649,9.8920988 43.1241416,9.44142707 L43.1241416,9.51596133 C43.1241416,12.4522605 45.1028937,14.9014877 47.7341081,15.4561607 C47.2509244,15.5982956 46.744732,15.6693629 46.2188179,15.6693629 C45.8490344,15.6693629 45.4874684,15.6329625 45.1390503,15.5618951 C45.8687563,17.9677885 47.9904913,19.7219413 50.5050185,19.7687419 C48.5377708,21.3946267 46.0610436,22.3618373 43.3706639,22.3618373 C42.907202,22.3618373 42.4486705,22.3358371 42,22.2786364 C44.5424664,23.9963888 47.5615425,25 50.8057756,25 C61.3733639,25 67.1485591,15.7681641 67.1485591,7.7618084 C67.1485591,7.49833893 67.145272,7.23660267 67.1337677,6.97833307 C68.2562657,6.12379027 69.232494,5.05604507 70,3.84096493 C68.9695369,4.32283693 67.8618301,4.6487072 66.701532,4.7943088 Z" id="twitter"></path>
                    </g>
                </g>
            </g>
        </g>
    </g>
</svg>